# File produced by Open Asset Import Library (http://www.assimp.sf.net)
# (assimp v3.1.137539927)

mtllib flaptop.mtl

# vertex positions
v 0.000002 0.007976 0.018295
v -0.065409 0.008373 0.009832
v -0.080278 0.000064 0.009841
v 0.000005 -0.000294 0.017033
v -0.000056 0.044901 0.009729
v -0.013000 0.037966 0.009648
v -0.035992 0.025097 0.009758
v -0.000002 0.025066 0.018280
v 0.088715 -0.000303 0.009844
v 0.073578 0.007445 0.009837
v 0.039127 0.025166 0.009762
v 0.013200 0.038460 0.009654
v 0.000016 0.007808 0.016281
v 0.000016 -0.000329 0.015023
v -0.080065 0.000023 0.007853
v -0.065138 0.008206 0.007853
v -0.000038 0.044091 0.007853
v 0.000016 0.024504 0.016308
v -0.035610 0.024556 0.007853
v -0.012575 0.037192 0.007853
v 0.073332 0.007282 0.007853
v 0.088523 -0.000329 0.007853
v 0.012810 0.037683 0.007853
v 0.038778 0.024620 0.007853

# UV coordinates
vt 0.218853 0.475152
vt 0.216514 0.089627
vt 0.265482 0.001992
vt 0.267595 0.475165
vt 0.001226 0.474805
vt 0.042100 0.398517
vt 0.117945 0.263010
vt 0.118127 0.475128
vt 0.267644 0.998008
vt 0.221980 0.908789
vt 0.117536 0.705742
vt 0.039184 0.552933
vt 0.400347 0.473972
vt 0.352389 0.473972
vt 0.354458 0.001993
vt 0.402693 0.089966
vt 0.614192 0.473657
vt 0.498746 0.473972
vt 0.499055 0.264003
vt 0.573526 0.399765
vt 0.397244 0.906088
vt 0.352389 0.995620
vt 0.576423 0.549379
vt 0.499429 0.702432
vt 0.273784 0.091223
vt 0.273784 0.003249
vt 0.285502 0.001992
vt 0.285450 0.089627
vt 0.346170 0.003249
vt 0.303911 0.475229
vt 0.292065 0.475165
vt 0.334452 0.001992
vt 0.273784 0.474914
vt 0.273784 0.401022
vt 0.284361 0.398517
vt 0.284839 0.474806
vt 0.273784 0.265260
vt 0.285014 0.263010
vt 0.346170 0.996877
vt 0.334438 0.998008
vt 0.273784 0.996877
vt 0.273784 0.907345
vt 0.285476 0.908789
vt 0.285517 0.998008
vt 0.273784 0.703689
vt 0.273784 0.550635
vt 0.284400 0.552933
vt 0.285039 0.705742

# vertex normals
vn -0.140305 0.094003 0.985636
vn -0.119799 0.048999 0.991588
vn -0.106698 0.020500 0.994080
vn -0.212296 0.386593 0.897483
vn -0.167793 0.166493 0.971661
vn -0.178996 0.218496 0.959281
vn 0.128001 0.096101 0.987107
vn 0.096000 0.012700 0.995300
vn 0.107500 0.042400 0.993300
vn 0.194695 0.388191 0.900778
vn 0.162601 0.220202 0.961807
vn 0.151909 0.168310 0.973959
vn 0.140094 -0.094096 -0.985657
vn 0.106697 -0.020899 -0.994072
vn 0.119395 -0.048598 -0.991657
vn 0.212492 -0.386986 -0.897267
vn 0.178993 -0.218591 -0.959260
vn 0.167696 -0.166496 -0.971677
vn -0.127803 -0.096202 -0.987123
vn -0.107096 -0.041998 -0.993361
vn -0.096000 -0.013100 -0.995295
vn -0.194900 -0.388500 -0.900601
vn -0.151794 -0.168393 -0.973962
vn -0.162594 -0.220392 -0.961764
vn -0.478604 0.856308 -0.194102
vn -0.481693 0.870087 -0.104498
vn -0.478915 0.857427 -0.188306
vn -0.006100 -0.999805 0.018800
vn -0.002200 -0.999856 0.016799
vn -0.002500 -0.999854 0.016899
vn -0.436284 0.805871 -0.400285
vn -0.443885 0.806673 -0.390187
vn -0.443902 0.806704 -0.390102
vn -0.464890 0.831982 -0.302793
vn -0.465488 0.832878 -0.299392
vn 0.001200 -0.999885 0.015100
vn 0.449879 0.888359 -0.091796
vn 0.444688 0.875777 -0.187795
vn 0.445095 0.876690 -0.182498
vn 0.433295 0.852090 -0.293596
vn 0.414789 0.824879 -0.384090
vn 0.433798 0.852895 -0.290498
vn 0.404521 0.824144 -0.396421

# Mesh
g flap_top
usemtl flap_top
f 4/4/3 1/1/1 2/2/2 3/3/3
f 8/8/6 5/5/4 6/6/4 7/7/5
f 1/1/1 8/8/6 7/7/5 2/2/2
f 9/9/8 10/10/9 1/1/7 4/4/8
f 11/11/12 12/12/10 5/5/10 8/8/11
f 10/10/9 11/11/12 8/8/11 1/1/7
f 13/13/13 14/14/14 15/15/14 16/16/15
f 17/17/16 18/18/17 19/19/18 20/20/16
f 18/18/17 13/13/13 16/16/15 19/19/18
f 21/21/20 22/22/21 14/14/21 13/13/19
f 23/23/22 24/24/23 18/18/24 17/17/22
f 24/24/23 21/21/20 13/13/19 18/18/24
f 2/28/27 16/25/25 15/26/26 3/27/26
f 14/30/29 4/31/30 3/32/28 15/29/28
f 5/36/31 17/33/31 20/34/32 6/35/33
f 6/35/33 20/34/32 19/37/34 7/38/35
f 7/38/35 19/37/34 16/25/25 2/28/27
f 22/39/36 9/40/36 4/31/30 14/30/29
f 9/44/37 22/41/37 21/42/38 10/43/39
f 11/48/42 24/45/40 23/46/41 12/47/41
f 12/47/41 23/46/41 17/33/43 5/36/43
f 10/43/39 21/42/38 24/45/40 11/48/42
