# File produced by Open Asset Import Library (http://www.assimp.sf.net)
# (assimp v3.1.137539927)

mtllib flap_top.mtl

# vertex positions
v 0.001551 0.780817 1.628053
v -6.513855 0.820628 0.785301
v -8.006500 0.002245 0.785301
v 0.001551 -0.032873 1.502298
v -0.003793 4.409136 0.785301
v -1.257518 3.719149 0.785301
v -3.560981 2.455599 0.785301
v 0.001552 2.450365 1.630753
v 8.852321 -0.032873 0.785301
v 7.333238 0.728198 0.785301
v 3.877816 2.461947 0.785301
v 1.280969 3.768313 0.785302

# UV coordinates
vt 0.258708 0.888714
vt 0.078042 0.892841
vt 0.036736 0.871679
vt 0.258783 0.866320
vt 0.256044 0.984562
vt 0.222033 0.967067
vt 0.159211 0.934867
vt 0.258569 0.934724
vt 0.492850 0.854437
vt 0.452766 0.876440
vt 0.360769 0.927008
vt 0.290870 0.965523

# vertex normals
vn -0.140094 0.094096 0.985657
vn -0.119395 0.048598 0.991657
vn -0.106697 0.020899 0.994072
vn -0.212492 0.386986 0.897267
vn -0.167696 0.166496 0.971677
vn -0.178993 0.218591 0.959260
vn 0.127803 0.096202 0.987123
vn 0.096000 0.013100 0.995295
vn 0.107096 0.041998 0.993361
vn 0.194900 0.388500 0.900601
vn 0.162594 0.220392 0.961764
vn 0.151794 0.168393 0.973962

# Mesh
g kite_flap_top
usemtl flap_top
f 4/4/3 1/1/1 2/2/2 3/3/3
f 8/8/6 5/5/4 6/6/4 7/7/5
f 1/1/1 8/8/6 7/7/5 2/2/2
f 9/9/8 10/10/9 1/1/7 4/4/8
f 11/11/12 12/12/10 5/5/10 8/8/11
f 10/10/9 11/11/12 8/8/11 1/1/7
