# File produced by Open Asset Import Library (http://www.assimp.sf.net)
# (assimp v3.1.137539927)

mtllib flap_btm.mtl

# vertex positions
v 0.000127 0.033607 0.022767
v 0.020703 0.036618 0.008550
v 0.028244 0.050482 0.008587
v 0.000088 0.050438 0.022759
v 0.000206 -0.000011 0.008854
v 0.005599 0.009000 0.008497
v 0.013181 0.022763 0.008494
v 0.000167 0.016779 0.015693
v -0.028287 0.050480 0.008589
v -0.020646 0.036615 0.008552
v -0.012989 0.022760 0.008497
v -0.005307 0.008997 0.008499
v 0.000125 0.033924 0.021614
v 0.000086 0.050607 0.021614
v 0.027739 0.050607 0.007733
v 0.020159 0.036841 0.007733
v 0.000202 0.000446 0.007733
v 0.000163 0.017241 0.014572
v 0.012613 0.023076 0.007733
v 0.005032 0.009310 0.007733
v -0.020105 0.036841 0.007733
v -0.027785 0.050607 0.007733
v -0.004746 0.009310 0.007733
v -0.012426 0.023076 0.007733

# UV coordinates
vt 0.257644 0.557582
vt 0.492646 0.607348
vt 0.492028 0.836513
vt 0.257768 0.835788
vt 0.487614 0.001869
vt 0.493527 0.150822
vt 0.493563 0.378319
vt 0.374571 0.279404
vt 0.761601 0.557582
vt 0.761476 0.835788
vt 0.527244 0.836478
vt 0.526627 0.607302
vt 0.531631 0.001869
vt 0.644674 0.279404
vt 0.525717 0.378270
vt 0.525762 0.150779
vt 0.998008 0.555258
vt 0.998008 0.831022
vt 0.768554 0.831022
vt 0.768554 0.603480
vt 0.768554 0.001869
vt 0.881603 0.279495
vt 0.768554 0.375939
vt 0.768554 0.148397
vt 0.506146 0.611038
vt 0.506146 0.838580
vt 0.250369 0.010214
vt 0.020916 0.467324
vt 0.001992 0.467287
vt 0.236252 0.001869
vt 0.506146 0.009427
vt 0.506146 0.155956
vt 0.506146 0.383497
vt 0.250369 0.928023
vt 0.236225 0.936314
vt 0.513099 0.838580
vt 0.513099 0.611038
vt 0.513099 0.383497
vt 0.513099 0.155956
vt 0.513099 0.009427

# vertex normals
vn 0.535522 -0.206708 0.818833
vn 0.525007 -0.176902 0.832510
vn 0.505276 -0.124294 0.853960
vn 0.566426 -0.310614 0.763335
vn 0.568413 -0.314607 0.760217
vn 0.567924 -0.313514 0.761033
vn -0.531997 -0.209599 0.820395
vn -0.501992 -0.126398 0.855586
vn -0.521475 -0.179091 0.834260
vn -0.561377 -0.313287 0.765968
vn -0.563518 -0.316610 0.763024
vn -0.564390 -0.317794 0.761886
vn -0.535280 0.206792 -0.818970
vn -0.504891 0.124998 -0.854085
vn -0.524629 0.176910 -0.832747
vn -0.566383 0.310591 -0.763377
vn -0.568211 0.314006 -0.760615
vn -0.568903 0.315202 -0.759604
vn 0.531798 0.209699 -0.820498
vn 0.521097 0.179099 -0.834495
vn 0.501599 0.127200 -0.855698
vn 0.561283 0.313190 -0.766077
vn 0.564795 0.318497 -0.761293
vn 0.563891 0.316995 -0.762588
vn 0.713660 -0.388978 -0.582568
vn 0.735596 -0.401798 -0.545397
vn 0.715508 -0.390005 -0.579607
vn 0.064202 0.989537 0.129205
vn -0.000100 0.991501 0.130100
vn -0.000500 0.991501 0.130100
vn 0.782977 -0.456287 -0.422788
vn 0.720533 -0.407119 -0.561326
vn 0.720581 -0.407089 -0.561285
vn 0.680104 -0.372202 -0.631604
vn -0.064299 0.989388 0.130298
vn -0.734686 -0.406692 -0.542990
vn -0.712648 -0.394426 -0.580139
vn -0.714496 -0.395398 -0.577197
vn -0.679590 -0.377695 -0.628891
vn -0.719225 -0.413514 -0.558320
vn -0.679494 -0.377696 -0.628994
vn -0.779589 -0.464593 -0.419994

# Mesh
g flap_btm
usemtl flap_btm_mat
f 2/2/2 3/3/3 4/4/3 1/1/1
f 6/6/4 7/7/5 8/8/6 5/5/4
f 7/7/5 2/2/2 1/1/1 8/8/6
f 1/9/7 4/10/8 9/11/8 10/12/9
f 5/13/10 8/14/11 11/15/12 12/16/10
f 8/14/11 1/9/7 10/12/9 11/15/12
f 15/19/14 16/20/15 13/17/13 14/18/14
f 19/23/18 20/24/16 17/21/16 18/22/17
f 16/20/15 19/23/18 18/22/17 13/17/13
f 14/18/21 13/17/19 21/20/20 22/19/21
f 18/22/24 17/21/22 23/24/22 24/23/23
f 13/17/19 18/22/24 24/23/23 21/20/20
f 15/26/26 3/3/26 2/2/27 16/25/25
f 3/30/28 15/27/28 14/28/29 4/29/30
f 20/32/32 6/6/33 5/5/31 17/31/31
f 19/33/34 7/7/34 6/6/33 20/32/32
f 16/25/25 2/2/27 7/7/34 19/33/34
f 4/29/30 14/28/29 22/34/35 9/35/35
f 21/37/37 10/12/38 9/11/36 22/36/36
f 23/39/40 12/16/40 11/15/41 24/38/39
f 17/40/42 5/13/42 12/16/40 23/39/40
f 24/38/39 11/15/41 10/12/38 21/37/37
