# File produced by Open Asset Import Library (http://www.assimp.sf.net)
# (assimp v3.1.137539927)

mtllib flap_btm.mtl

# vertex positions
v 0.012451 3.392407 2.161451
v 2.015886 3.684136 0.773329
v 2.773925 5.060688 0.773329
v 0.008562 5.060688 2.161451
v 0.020231 0.044583 0.773329
v 0.503245 0.931033 0.773329
v 1.261282 2.307583 0.773329
v 0.016341 1.724127 1.457237
v -2.778523 5.060688 0.773329
v -2.010550 3.684136 0.773329
v -1.242577 2.307583 0.773329
v -0.474605 0.931033 0.773329

# UV coordinates
vt 0.843562 0.912842
vt 0.922877 0.924392
vt 0.952888 0.978889
vt 0.843408 0.978889
vt 0.843870 0.780302
vt 0.862992 0.815397
vt 0.893003 0.869894
vt 0.843716 0.846795
vt 0.733067 0.978889
vt 0.763471 0.924392
vt 0.793875 0.869894
vt 0.824279 0.815397

# vertex normals
vn 0.535280 -0.206792 0.818970
vn 0.524693 -0.176997 0.832688
vn 0.504891 -0.124998 0.854085
vn 0.566383 -0.310591 0.763377
vn 0.568810 -0.315105 0.759713
vn 0.568211 -0.314006 0.760615
vn -0.531799 -0.209699 0.820498
vn -0.501599 -0.127200 0.855698
vn -0.521097 -0.179099 0.834495
vn -0.561283 -0.313190 0.766077
vn -0.563873 -0.317085 0.762564
vn -0.564795 -0.318497 0.761293

# Mesh
g kite_flap_btm
usemtl flap_btm
f 2/2/2 3/3/3 4/4/3 1/1/1
f 6/6/4 7/7/5 8/8/6 5/5/4
f 7/7/5 2/2/2 1/1/1 8/8/6
f 1/1/7 4/4/8 9/9/8 10/10/9
f 5/5/10 8/8/11 11/11/12 12/12/10
f 8/8/11 1/1/7 10/10/9 11/11/12
