# Blender 4.5.3 LTS
# www.blender.org
mtllib ceilingfan.mtl
o ceilingfan
v 17.923859 10.493201 13.880051
v 3.420584 10.493202 22.253521
v 17.923859 10.493199 -14.716140
v 21.344444 10.493199 -12.741266
v 21.344444 10.493201 11.905176
v 3.420584 10.493198 -23.089609
v 0.000000 10.493202 24.228397
v 0.000000 10.493198 -25.064484
v -21.344442 10.493201 11.905176
v -21.344442 10.493199 -12.741266
v -21.344442 10.493201 7.955422
v -21.344442 10.493199 -8.791514
v 0.000000 13.653002 24.228395
v 3.420584 13.653002 22.253519
v 21.344444 13.653001 11.905176
v 17.923859 13.653001 13.880051
v 8.313795 13.653002 30.728828
v 42.243473 13.653007 89.496704
v 56.746765 13.653006 81.123238
v 22.817085 13.653002 22.355345
v 22.817078 12.298799 -23.191442
v 22.817101 13.652998 -23.191431
v 8.313219 13.652998 -31.565252
v 8.313890 12.298799 -31.564865
v 22.817078 10.493202 22.355354
v 8.313803 10.493202 30.728825
v -31.130878 10.493201 7.955422
v -31.130878 10.493199 -8.791514
v 17.923859 12.298800 -14.716140
v 22.817078 10.493198 -23.191442
v 8.313803 12.298802 30.728825
v 3.420584 12.298802 22.253521
v 22.817078 12.298802 22.355354
v 17.923859 12.298801 13.880051
v 3.420584 12.298799 -23.089609
v 8.312746 10.493198 -31.564444
v -21.344442 12.298801 7.955422
v -21.344442 12.298800 -8.791514
v -31.130878 12.298800 -8.791514
v -31.130878 12.298801 7.955422
v 56.746758 10.493193 -81.959305
v 56.746758 13.652994 -81.959312
v 60.167320 13.652994 -79.984451
v 60.167320 10.493195 -79.984451
v 26.237663 13.652998 -21.216572
v 4.893221 10.493197 -33.539787
v 4.893221 13.652997 -33.539787
v 38.822880 13.652993 -92.307663
v 38.822880 10.493194 -92.307663
v -98.990196 10.493199 -8.791525
v -98.990196 13.652999 -8.791524
v -98.990196 13.652999 -12.741266
v -98.990196 10.493199 -12.741266
v 26.237663 10.493198 -21.216570
v 60.167320 13.653006 79.148369
v 60.167320 10.493206 79.148369
v 26.237663 10.493202 20.380476
v 26.237663 13.653002 20.380474
v 56.746765 10.493206 81.123238
v 42.243473 10.493207 89.496704
v 38.822880 10.493207 91.471596
v 38.822880 13.653007 91.471596
v 4.893221 13.653003 32.703697
v 4.893221 10.493203 32.703697
v -31.130878 13.652999 -12.741266
v -31.130878 10.493199 -12.741266
v -31.130878 13.653001 11.905176
v -98.990196 13.653001 11.905176
v -98.990196 10.493201 11.905176
v -31.130878 10.493201 11.905176
v -31.130878 13.652999 -8.791524
v -98.990196 10.493201 7.955417
v -98.990196 13.653001 7.955417
v -31.130877 13.653001 7.955417
v 42.242874 10.493194 -90.333138
v 42.242874 13.652993 -90.333138
v -16.648663 3.722201 9.194066
v -21.344442 13.653001 11.905176
v 4.806837 26.743599 2.357181
v 4.806837 26.743599 -3.193275
v 0.000000 26.743599 -5.968503
v -4.806836 26.743599 -3.193275
v -4.806836 26.743599 2.357181
v 0.000000 26.743599 5.132409
v 21.344444 13.652999 -12.741266
v 7.629900 22.229599 3.987076
v 7.629900 22.229599 -4.823170
v 0.000000 3.722201 18.806179
v -7.629898 22.229599 3.987076
v 0.000000 22.229599 8.392200
v -3.897758 3.722200 -2.668416
v 0.000000 3.722199 -4.918788
v 0.000000 -0.000001 -4.918788
v -3.897758 -0.000001 -2.668416
v 3.897760 3.722200 -2.668416
v 3.897760 -0.000001 -2.668416
v 0.000000 3.722198 -19.642265
v -16.648663 3.722199 -10.030156
v 0.000000 22.229599 -9.228295
v -21.344442 13.652999 -12.741266
v 0.000000 13.652998 -25.064486
v 3.897760 -0.000001 1.832326
v 0.000000 -0.000001 4.082697
v -3.897758 -0.000001 1.832326
v 0.000000 3.722200 4.082696
v -3.897758 3.722200 1.832326
v -7.629898 22.229599 -4.823170
v 3.897760 3.722200 1.832326
v 16.648663 3.722201 9.194066
v 16.648663 3.722199 -10.030156
v -17.787035 22.229599 9.851304
v -17.787035 22.229599 -10.687395
v 17.787037 22.229599 9.851304
v 17.787037 22.229599 -10.687395
v 0.000000 22.229601 20.120653
v 0.000000 22.229597 -20.956747
vn 0.0129 -0.9999 -0.0014
vn -0.0014 -1.0000 0.0066
vn 0.0070 -1.0000 0.0001
vn -0.0000 -1.0000 -0.0000
vn 0.0096 -1.0000 0.0023
vn 0.0923 -0.7071 -0.7010
vn 0.7071 -0.0000 0.7071
vn 0.2588 -0.0000 -0.9659
vn -0.0000 -0.0000 1.0000
vn -0.6088 -0.0000 0.7934
vn 0.0001 -0.0000 1.0000
vn -0.0000 -0.9942 0.1071
vn -0.0000 -0.9942 0.1072
vn -0.0000 -0.9942 -0.1072
vn 0.7475 0.2469 0.6167
vn 0.6756 -0.6452 0.3566
vn 0.2990 0.2580 0.9187
vn 0.0232 0.9989 0.0403
vn -0.0099 0.9998 -0.0172
vn -0.0136 0.9724 0.2331
vn -0.0099 0.9998 0.0172
vn -0.2095 0.9655 0.1545
vn 0.0113 -0.9999 -0.0065
vn 0.0058 -0.9999 -0.0125
vn -0.0121 -0.9999 0.0017
vn -0.0058 -1.0000 0.0033
vn 0.0046 -0.9999 0.0113
vn 0.0046 -0.9999 -0.0113
vn 0.0075 -0.9999 0.0096
vn 0.0928 0.9942 0.0536
vn 0.0061 -1.0000 0.0035
vn -0.1951 0.9724 -0.1283
vn -0.0928 0.9942 0.0536
vn -0.0135 0.9724 -0.2331
vn 0.0928 0.9942 -0.0536
vn -0.0120 -0.9999 -0.0017
vn -0.0085 -1.0000 -0.0050
vn -0.0928 0.9942 -0.0536
vn -0.0000 0.9942 0.1072
vn -0.0000 0.9942 -0.1072
vn 0.2086 0.9724 -0.1049
vn 0.2387 0.9655 0.1040
vn 0.5180 -0.7294 0.4469
vn 0.5588 0.7803 0.2807
vn 0.5588 -0.7804 0.2807
vn 0.0231 -0.9989 -0.0403
vn 0.0232 0.9989 -0.0403
vn 0.5225 0.7803 0.3436
vn -0.5225 0.7803 -0.3436
vn -0.5226 -0.7803 -0.3436
vn -0.5589 -0.7803 -0.2807
vn -0.5663 0.7797 -0.2671
vn -0.0465 0.9989 -0.0000
vn -0.0363 0.7803 -0.6243
vn -0.0363 -0.7804 -0.6243
vn -0.0465 -0.9989 0.0001
vn 0.5225 -0.7804 0.3436
vn 0.5588 0.7803 -0.2807
vn 0.5588 -0.7803 -0.2807
vn 0.5225 -0.7803 -0.3436
vn 0.5144 0.7798 -0.3569
vn 0.0233 -0.9989 0.0402
vn 0.0232 -0.9989 0.0403
vn -0.5225 -0.7803 0.3436
vn -0.5225 0.7803 0.3436
vn -0.5588 0.7803 0.2807
vn -0.5588 -0.7803 0.2807
vn 0.0519 0.7798 -0.6238
vn 0.0208 -0.7807 -0.6246
vn 0.0363 -0.7803 0.6243
vn 0.0519 0.7798 0.6239
vn -0.0363 0.7803 0.6243
vn -0.0363 -0.7803 0.6243
vn 0.0199 0.9998 -0.0000
vn -0.0465 -0.9989 -0.0000
vn 0.0232 -0.9989 -0.0403
vn 0.0233 0.9989 -0.0402
vn -0.0086 -1.0000 -0.0049
vn -0.8217 -0.5699 -0.0000
vn 0.5000 -0.0000 0.8660
vn -0.5000 -0.0000 0.8660
vn -0.0000 1.0000 -0.0000
vn 1.0000 -0.0000 -0.0000
vn 0.8478 0.5302 -0.0000
vn -0.4109 -0.5699 0.7116
vn -0.4239 0.5302 0.7343
vn -0.5000 -0.0000 -0.8660
vn 0.5000 -0.0000 -0.8660
vn -0.4109 -0.5699 -0.7116
vn 0.4239 0.5302 -0.7343
vn -0.4239 0.5302 -0.7343
vn 0.4109 -0.5699 0.7116
vn -1.0000 -0.0000 -0.0000
vn 0.4109 -0.5699 -0.7116
vn 0.8217 -0.5699 -0.0000
vn -0.8478 0.5302 -0.0000
vn 0.4239 0.5302 0.7343
vn -0.9237 0.3831 -0.0000
vn 0.9237 0.3831 -0.0000
vn 0.4618 0.3831 0.7999
vn -0.4618 0.3831 -0.7999
vn -0.4618 0.3831 0.7999
vn 0.4618 0.3831 -0.7999
vt 0.521026 0.776135
vt 0.447992 0.717877
vt 0.669532 0.717873
vt 0.026809 0.966786
vt 0.026797 0.807261
vt 0.045880 0.818276
vt 0.596987 0.846385
vt 0.612237 0.983028
vt 0.594495 0.996094
vt 0.724979 0.266002
vt 0.724973 0.013052
vt 0.805882 0.059762
vt 0.985970 0.265500
vt 0.967618 0.277695
vt 0.970068 0.013051
vt 0.940445 0.675753
vt 0.940149 0.400770
vt 0.959243 0.411766
vt 0.567025 0.708701
vt 0.686107 0.639972
vt 0.805168 0.708735
vt 0.000000 0.000000
vt 0.581630 0.569543
vt 0.581619 0.662967
vt 0.203061 0.662922
vt 0.203072 0.569497
vt 0.977691 0.308876
vt 0.985245 0.308877
vt 0.985228 0.402305
vt 0.977673 0.402299
vt 0.119381 0.159718
vt 0.119379 0.214313
vt 0.025955 0.214309
vt 0.025957 0.159715
vt 0.449435 0.105157
vt 0.542858 0.105160
vt 0.542857 0.159754
vt 0.449433 0.159752
vt 0.014012 0.192268
vt 0.003939 0.192274
vt 0.003906 0.137679
vt 0.013979 0.137673
vt 0.658245 0.625473
vt 0.658246 0.635546
vt 0.603652 0.635552
vt 0.603651 0.625479
vt 0.892078 0.547283
vt 0.902151 0.547277
vt 0.902183 0.601871
vt 0.892111 0.601877
vt 0.415600 0.809734
vt 0.415604 0.819807
vt 0.361014 0.819852
vt 0.361006 0.809779
vt 0.772619 0.717888
vt 0.772615 0.772482
vt 0.679191 0.772475
vt 0.679195 0.717881
vt 0.111150 0.806899
vt 0.111154 0.900323
vt 0.056559 0.900325
vt 0.056556 0.806902
vt 0.942438 0.684793
vt 0.952511 0.684792
vt 0.952518 0.739386
vt 0.942445 0.739388
vt 0.116072 0.602029
vt 0.126145 0.602028
vt 0.126153 0.656622
vt 0.116081 0.656624
vt 0.003906 0.003906
vt 0.119359 0.779223
vt 0.119578 0.796849
vt 0.097546 0.797123
vt 0.097327 0.779497
vt 0.290239 0.538295
vt 0.268205 0.538298
vt 0.268156 0.159740
vt 0.290190 0.159737
vt 0.816194 0.802233
vt 0.816192 0.819860
vt 0.437634 0.819810
vt 0.437636 0.802183
vt 0.422818 0.879275
vt 0.422819 0.857241
vt 0.440446 0.857242
vt 0.440445 0.879276
vt 0.437058 0.128561
vt 0.437056 0.150595
vt 0.058498 0.150554
vt 0.058501 0.128521
vt 0.800516 0.243392
vt 0.818143 0.243392
vt 0.818148 0.621949
vt 0.800521 0.621950
vt 0.818143 0.221358
vt 0.800515 0.221358
vt 0.800514 0.127934
vt 0.818141 0.127934
vt 0.930361 0.779335
vt 0.912733 0.779338
vt 0.912680 0.400779
vt 0.930307 0.400777
vt 0.497888 0.774523
vt 0.498107 0.792149
vt 0.940149 0.013065
vt 0.957776 0.013063
vt 0.957829 0.391621
vt 0.940202 0.391623
vt 0.898945 0.013066
vt 0.916572 0.013063
vt 0.916640 0.391620
vt 0.899013 0.391624
vt 0.691640 0.013063
vt 0.713674 0.013063
vt 0.713674 0.391621
vt 0.691641 0.391621
vt 0.539559 0.966043
vt 0.547114 0.966044
vt 0.539556 0.988077
vt 0.512090 0.874511
vt 0.519644 0.874510
vt 0.519656 0.967934
vt 0.512101 0.967935
vt 0.427399 0.159751
vt 0.449424 0.538310
vt 0.427390 0.538309
vt 0.542848 0.538312
vt 0.422813 0.972699
vt 0.440440 0.972700
vt 0.598216 0.013063
vt 0.598217 0.391621
vt 0.539573 0.872619
vt 0.547128 0.872620
vt 0.576182 0.013063
vt 0.576183 0.391621
vt 0.539577 0.850585
vt 0.557204 0.850588
vt 0.557200 0.872622
vt 0.437071 0.013103
vt 0.437068 0.035133
vt 0.058505 0.035093
vt 0.058513 0.013063
vt 0.790497 0.405540
vt 0.790497 0.423168
vt 0.768467 0.423168
vt 0.768466 0.405541
vt 0.174778 0.538310
vt 0.152747 0.538313
vt 0.152698 0.159755
vt 0.174728 0.159752
vt 0.003906 0.128515
vt 0.003916 0.035091
vt 0.120650 0.806106
vt 0.175245 0.806097
vt 0.175260 0.899521
vt 0.120665 0.899530
vt 0.141398 0.592872
vt 0.119364 0.592871
vt 0.141413 0.214314
vt 0.581616 0.685001
vt 0.203058 0.684955
vt 0.512087 0.852477
vt 0.529714 0.852475
vt 0.529717 0.874509
vt 0.529728 0.967933
vt 0.529731 0.989967
vt 0.512104 0.989969
vt 0.581633 0.547509
vt 0.203075 0.547464
vt 0.800514 0.105900
vt 0.818141 0.105900
vt 0.025940 0.592867
vt 0.003906 0.592866
vt 0.003921 0.214308
vt 0.564891 0.159754
vt 0.564882 0.538312
vt 0.422812 0.994733
vt 0.440439 0.994734
vt 0.557187 0.966045
vt 0.557183 0.988079
vt 0.004125 0.798283
vt 0.003906 0.780657
vt 0.967622 0.286840
vt 0.985250 0.286843
vt 0.967618 0.308874
vt 0.985224 0.424335
vt 0.565947 0.054498
vt 0.565602 0.100980
vt 0.544134 0.057611
vt 0.553291 0.132046
vt 0.560845 0.110012
vt 0.560845 0.132046
vt 0.979080 0.433416
vt 0.986635 0.433418
vt 0.986618 0.526842
vt 0.979064 0.526840
vt 0.843159 0.013074
vt 0.843154 0.023146
vt 0.821116 0.030690
vt 0.821125 0.013063
vt 0.474776 0.993754
vt 0.457148 0.993752
vt 0.457160 0.856261
vt 0.474787 0.856262
vt 0.719087 0.497931
vt 0.719087 0.528895
vt 0.692272 0.544376
vt 0.665457 0.528895
vt 0.665457 0.497931
vt 0.692272 0.482449
vt 0.567025 0.986185
vt 0.567046 0.848693
vt 0.584673 0.848696
vt 0.584653 0.986188
vt 0.335774 0.414820
vt 0.335767 0.463969
vt 0.306068 0.454872
vt 0.306072 0.423908
vt 0.910403 0.798281
vt 0.956372 0.783162
vt 0.956356 0.920654
vt 0.910391 0.905524
vt 0.377030 0.268297
vt 0.408091 0.268302
vt 0.417151 0.297910
vt 0.391410 0.315295
vt 0.827990 0.565011
vt 0.848755 0.565013
vt 0.848751 0.590121
vt 0.827987 0.590118
vt 0.393058 0.184861
vt 0.413823 0.184857
vt 0.413827 0.209965
vt 0.393062 0.209969
vt 0.184745 0.805304
vt 0.230712 0.820428
vt 0.230712 0.927672
vt 0.184745 0.942796
vt 0.152704 0.564844
vt 0.178444 0.547459
vt 0.192826 0.594456
vt 0.161765 0.594453
vt 0.484629 0.854369
vt 0.502256 0.854370
vt 0.502245 0.991862
vt 0.484618 0.991861
vt 0.344977 0.498139
vt 0.344981 0.523247
vt 0.323238 0.535803
vt 0.301493 0.523252
vt 0.323232 0.485588
vt 0.301490 0.498145
vt 0.860032 0.594483
vt 0.880797 0.594484
vt 0.880795 0.619592
vt 0.860030 0.619591
vt 0.376172 0.307431
vt 0.376174 0.325058
vt 0.354140 0.325060
vt 0.354139 0.314987
vt 0.178434 0.641450
vt 0.152698 0.624059
vt 0.763888 0.019969
vt 0.809855 0.013059
vt 0.809855 0.035093
vt 0.070080 0.602026
vt 0.111150 0.673156
vt 0.003906 0.673159
vt 0.044972 0.602026
vt 0.416122 0.400441
vt 0.344982 0.441496
vt 0.345003 0.334252
vt 0.416127 0.375334
vt 0.887670 0.672162
vt 0.887671 0.697270
vt 0.816540 0.738339
vt 0.816538 0.631096
vt 0.887671 0.120302
vt 0.816538 0.079235
vt 0.816538 0.054127
vt 0.887669 0.013058
vt 0.827983 0.615226
vt 0.848748 0.615229
vt 0.599092 0.595387
vt 0.640597 0.616317
vt 0.592206 0.616317
vt 0.241977 0.942085
vt 0.241973 0.804593
vt 0.287940 0.819716
vt 0.287943 0.926960
vt 0.366028 0.181860
vt 0.358717 0.159744
vt 0.376343 0.159938
vt 0.376100 0.181971
vt 0.393054 0.159753
vt 0.413818 0.159750
vt 0.759728 0.242639
vt 0.759310 0.211678
vt 0.788885 0.202185
vt 0.789549 0.251329
vt 0.860034 0.569375
vt 0.880799 0.569377
vt 0.391424 0.221304
vt 0.417159 0.238696
vt 0.299209 0.929296
vt 0.299200 0.814719
vt 0.350997 0.803258
vt 0.351007 0.940750
vt 0.879779 0.129447
vt 0.879805 0.266939
vt 0.828005 0.255492
vt 0.827983 0.140915
vt 0.834863 0.742199
vt 0.886660 0.753661
vt 0.886649 0.868238
vt 0.834850 0.879691
vt 0.827999 0.434183
vt 0.879799 0.422733
vt 0.879779 0.560224
vt 0.827983 0.548759
vt 0.738732 0.263450
vt 0.790528 0.274917
vt 0.790508 0.389494
vt 0.738708 0.400942
vt 0.827983 0.287554
vt 0.879779 0.276088
vt 0.879802 0.413580
vt 0.828002 0.402131
vt 0.733996 0.539922
vt 0.790658 0.572636
vt 0.691432 0.629925
vt 0.691432 0.564497
vt 0.592206 0.572636
vt 0.648868 0.539922
vt 0.648868 0.490774
vt 0.592206 0.458060
vt 0.790659 0.458059
vt 0.733996 0.490774
vt 0.691432 0.466199
vt 0.691432 0.400771
vt 0.624411 0.400766
vt 0.624450 0.422800
vt 0.578471 0.415973
vt 0.647144 0.843173
vt 0.693112 0.850078
vt 0.693121 0.943502
vt 0.647155 0.950416
vt 0.465618 0.091860
vt 0.447992 0.092069
vt 0.455286 0.069947
vt 0.465358 0.069828
vt 0.835538 0.127616
vt 0.827983 0.105582
vt 0.835538 0.105582
vt 0.411551 0.828971
vt 0.411563 0.936215
vt 0.365595 0.929310
vt 0.365584 0.835886
vt 0.789253 0.629537
vt 0.743286 0.636447
vt 0.743286 0.614413
vt 0.399921 0.342272
vt 0.407474 0.320237
vt 0.417547 0.320237
vt 0.417548 0.342271
vt 0.003919 0.944879
vt 0.003906 0.807387
vt 0.011463 0.829420
vt 0.011471 0.922844
vt 0.780358 0.162960
vt 0.790430 0.162850
vt 0.790671 0.184883
vt 0.773045 0.185075
vt 0.889809 0.400681
vt 0.897360 0.422716
vt 0.897346 0.516140
vt 0.889789 0.538173
vt 0.354139 0.536837
vt 0.354140 0.514803
vt 0.400106 0.529931
vt 0.804690 0.829016
vt 0.811615 0.874981
vt 0.704372 0.875017
vt 0.711266 0.829048
vt 0.416118 0.416205
vt 0.416112 0.523449
vt 0.344982 0.482377
vt 0.344984 0.457269
vt 0.555236 0.013063
vt 0.514173 0.084198
vt 0.489065 0.084199
vt 0.447992 0.013071
s 1
usemtl blade
f 1/1/1 2/2/2 3/3/3
f 1/4/1 3/5/3 4/6/4
f 4/7/4 5/8/4 1/9/1
f 2/10/2 6/11/5 3/12/3
f 2/13/2 7/14/6 6/15/5
f 7/16/6 8/17/7 6/18/5
f 9/19/8 10/20/9 8/21/10
s 0
f 9/22/11 11/22/12 10/22/9
f 11/22/13 12/22/14 10/22/9
s 1
f 13/22/15 14/22/16 15/22/17
f 18/23/18 19/24/18 20/25/19 17/26/19
f 21/27/20 22/28/21 23/29/21 24/30/22
f 1/31/23 25/32/24 26/33/25 2/34/26
f 12/35/14 11/36/13 27/37/27 28/38/28
f 30/39/29 21/40/20 29/41/30 3/42/31
f 26/43/25 31/44/32 32/45/33 2/46/26
f 33/47/34 25/48/24 1/49/23 34/50/35
f 24/51/22 36/52/36 6/53/37 35/54/38
f 33/55/34 34/56/35 32/57/33 31/58/32
f 37/59/39 38/60/40 39/61/41 40/62/42
f 11/63/13 37/64/39 40/65/42 27/66/27
f 38/67/40 12/68/14 28/69/28 39/70/41
f 14/22/16 16/71/43 15/22/17
f 43/72/44 44/73/45 41/74/46 42/75/47
f 43/76/44 42/77/47 22/78/21 45/79/48
f 48/80/49 49/81/50 46/82/51 47/83/52
f 51/84/53 52/85/54 53/86/55 50/87/56
f 41/88/46 44/89/45 54/90/57 30/91/29
f 55/92/58 56/93/59 57/94/60 58/95/61
f 59/96/62 19/97/18 18/98/18 60/99/63
f 61/100/64 62/101/65 63/102/66 64/103/67
f 44/73/45 43/72/44 45/104/48 54/105/57
f 65/106/68 66/107/69 53/108/55 52/109/54
f 70/110/70 67/111/71 68/112/72 69/113/73
f 71/114/74 65/115/68 52/116/54 51/117/53
f 71/118/74 39/119/41 65/120/68
f 20/121/19 33/122/34 31/123/32 17/124/19
f 66/125/69 28/38/28 50/126/56 53/127/55
f 28/38/28 27/37/27 72/128/75 50/126/56
f 73/129/53 51/84/53 50/87/56 72/130/75
f 74/131/74 71/114/74 51/117/53 73/132/53
f 71/118/74 74/133/74 40/134/42 39/119/41
f 67/135/71 74/131/74 73/132/53 68/136/72
f 40/134/42 67/137/71 70/138/70 27/139/27
f 49/140/50 75/141/76 36/142/36 46/143/51
f 76/144/77 75/145/76 49/146/50 48/147/49
f 76/148/77 48/149/49 47/150/52 23/151/21
f 36/52/36 24/51/22 47/83/52 46/82/51
f 30/91/29 3/152/31 6/153/78 36/142/36
f 29/154/30 21/155/20 24/156/22 35/157/38
f 56/158/59 59/159/62 25/32/24 57/160/60
f 56/93/59 55/92/58 19/97/18 59/96/62
f 19/24/18 55/161/58 58/162/61 20/25/19
f 58/163/61 57/164/60 25/165/24 33/122/34
f 33/122/34 20/121/19 58/163/61
f 31/123/32 26/166/25 64/167/67 63/168/66
f 31/123/32 63/168/66 17/124/19
f 62/169/65 18/23/18 17/26/19 63/170/66
f 60/99/63 18/98/18 62/171/65 61/172/64
f 60/173/63 61/174/64 64/175/67 26/33/25
f 59/159/62 60/173/63 26/33/25 25/32/24
f 27/37/27 70/176/70 69/177/73 72/128/75
f 68/178/72 73/129/53 72/130/75 69/179/73
f 67/137/71 40/134/42 74/133/74
f 65/120/68 39/119/41 28/180/28 66/181/69
f 75/141/76 41/88/46 30/91/29 36/142/36
f 42/75/47 41/74/46 75/182/76 76/183/77
f 42/77/47 76/148/77 23/151/21 22/78/21
f 54/184/57 45/185/48 21/27/20 30/186/29
f 47/187/52 24/30/22 23/29/21
f 21/27/20 45/185/48 22/28/21
usemtl ceilingfan_holder
f 11/188/79 77/189/79 9/190/79
f 34/191/80 15/192/17 16/193/43
f 34/194/80 16/195/43 14/196/16 32/197/80
f 2/198/80 32/199/80 13/200/80 7/201/80
f 7/202/81 13/203/81 78/204/81 9/205/81
f 79/206/82 80/207/82 81/208/82
f 82/209/82 83/210/82 84/211/82
f 85/212/83 15/213/83 5/214/83 4/215/83
f 86/216/84 87/217/84 80/218/84 79/219/84
f 88/220/85 7/221/85 9/222/85 77/223/85
f 90/224/86 84/225/86 83/226/86 89/227/86
f 92/228/87 93/229/87 94/230/87 91/231/87
f 95/232/88 96/233/88 93/234/88 92/235/88
f 8/236/89 97/237/89 98/238/89 10/239/89
f 80/240/90 87/241/90 99/242/90 81/243/90
f 101/244/87 8/245/87 10/246/87 100/247/87
f 96/248/4 102/249/4 103/250/4
f 96/248/4 103/250/4 104/251/4 93/252/4
f 104/251/4 94/253/4 93/252/4
f 103/254/81 105/255/81 106/256/81 104/257/81
f 85/258/88 4/259/88 3/260/88 29/261/88
f 81/243/91 99/242/91 107/262/91 82/263/91
f 88/264/92 2/265/92 7/266/92
f 108/267/4 109/268/4 88/269/4 105/270/4
f 105/271/4 88/272/4 77/273/4 106/274/4
f 91/275/4 106/276/4 77/277/4 98/278/4
f 110/279/4 95/280/4 92/281/4 97/282/4
f 106/283/93 91/231/93 94/230/93 104/284/93
f 6/285/94 97/286/94 8/287/94
f 4/288/95 5/289/95 109/290/95 110/291/95
f 38/292/93 100/293/93 10/294/93 12/295/93
f 95/232/83 108/296/83 102/297/83 96/233/83
f 83/298/96 82/299/96 107/300/96 89/301/96
f 102/302/80 108/303/80 105/255/80 103/254/80
f 86/304/97 79/305/97 84/225/97 90/224/97
f 111/306/98 112/307/98 100/308/98 78/309/98
f 15/310/99 85/311/99 114/312/99 113/313/99
f 15/314/17 113/315/100 115/316/100 13/317/15
f 116/318/101 101/319/101 100/320/101 112/321/101
f 13/322/102 115/323/102 111/324/102 78/325/102
f 114/326/103 85/327/103 101/328/103 116/329/103
f 87/330/82 114/331/82 116/332/82 99/333/82
f 99/333/82 116/332/82 112/334/82 107/335/82
f 89/336/82 107/335/82 112/334/82 111/337/82
f 113/338/82 86/339/82 90/340/82 115/341/82
f 115/341/82 90/340/82 89/336/82 111/337/82
f 5/342/92 1/343/92 109/344/92
f 109/345/92 1/346/92 2/347/92 88/348/92
f 5/349/80 15/350/17 34/351/80 1/352/80
f 13/353/15 32/354/80 14/355/16
f 98/356/79 77/357/79 11/358/79 12/359/79
f 98/360/79 12/361/79 10/362/79
f 78/363/93 37/364/93 11/365/93 9/366/93
f 78/367/93 100/368/93 38/369/93 37/370/93
f 35/371/88 6/372/88 8/373/88 101/374/88
f 85/375/88 29/376/88 35/377/88 101/378/88
f 3/379/94 4/380/94 110/381/94
f 3/382/94 110/383/94 97/384/94 6/385/94
f 110/386/4 109/387/4 108/388/4 95/389/4
f 113/338/82 114/331/82 87/330/82 86/339/82
f 84/211/82 79/206/82 81/208/82 82/209/82
f 97/390/4 92/391/4 91/392/4 98/393/4
