# File produced by Open Asset Import Library (http://www.assimp.sf.net)
# (assimp v3.1.137539927)

mtllib work_bench.mtl

# vertex positions
v -74.906097 0.090275 26.007278
v -28.160110 0.090275 26.007278
v -28.160110 0.090275 29.019260
v -74.906097 0.090275 29.019260
v -28.160110 67.920151 29.019260
v -74.906097 67.920151 29.019260
v -28.160110 67.920151 26.007278
v -74.906097 67.920151 26.007278
v 75.000000 71.525795 -35.000000
v -75.000000 71.525795 -35.000000
v -75.000000 71.525795 35.000000
v 75.000000 71.525795 35.000000
v 75.000000 68.025795 -35.000000
v 75.000000 68.025795 35.000000
v -75.000000 68.025795 35.000000
v -75.000000 68.025795 -35.000000
v 71.511482 68.025780 -28.962452
v 71.511497 0.145172 -28.962435
v 71.511497 0.145191 28.962452
v 71.511497 68.025795 28.962435
v 75.011490 68.025780 -28.962452
v 75.011490 68.025795 28.962435
v 75.011505 0.145191 28.962452
v 75.011490 0.145172 -28.962435
v -31.581520 68.025780 -28.962452
v -31.581514 0.145172 -28.962435
v -31.581503 0.145191 28.962452
v -31.581514 68.025795 28.962435
v -28.081516 68.025780 -28.962452
v -28.081516 68.025795 28.962435
v -28.081497 0.145191 28.962452
v -28.081516 0.145172 -28.962435
v -74.828110 68.025780 -28.962452
v -74.828110 0.145172 -28.962435
v -74.828102 0.145191 28.962452
v -74.828110 68.025795 28.962435
v -71.328110 68.025780 -28.962452
v -71.328110 68.025795 28.962435
v -71.328094 0.145191 28.962452
v -71.328110 0.145172 -28.962435
v -71.285545 5.012793 -28.962446
v -31.629623 5.012810 -28.962437
v -31.629623 5.012821 28.962446
v -71.285545 5.012810 28.962437
v -71.285545 8.512793 -28.962446
v -71.285545 8.512804 28.962437
v -31.629623 8.512825 28.962446
v -31.629623 8.512804 -28.962437
v -71.285545 26.492887 -28.962446
v -31.629623 26.492903 -28.962437
v -31.629623 26.492918 28.962446
v -71.285545 26.492903 28.962437
v -71.285545 29.992893 -28.962446
v -71.285545 29.992899 28.962437
v -31.629623 29.992920 28.962446
v -31.629623 29.992899 -28.962437
v -71.285545 44.020645 -28.962446
v -31.629623 44.020660 -28.962437
v -31.629623 44.020672 28.962446
v -71.285545 44.020660 28.962437
v -71.285545 47.520649 -28.962446
v -71.285545 47.520657 28.962437
v -31.629623 47.520676 28.962446
v -31.629623 47.520657 -28.962437
v -28.015240 42.097466 18.975021
v 71.536041 42.097519 18.975023
v 71.536041 42.097576 28.309471
v -28.015240 42.097519 28.309471
v -28.015240 56.365089 18.975021
v -28.015240 56.365116 28.309471
v 71.536041 56.365196 28.309471
v 71.536041 56.365116 18.975023

# UV coordinates
vt 0.959274 0.154502
vt 0.959274 0.292812
vt 0.950362 0.292812
vt 0.950362 0.154502
vt 0.758433 0.629727
vt 0.620123 0.629727
vt 0.620123 0.429036
vt 0.758433 0.429036
vt 0.959274 0.004883
vt 0.959274 0.143192
vt 0.950362 0.143192
vt 0.950362 0.004883
vt 0.758433 0.417726
vt 0.620123 0.417726
vt 0.620123 0.217034
vt 0.758433 0.217034
vt 0.850702 0.004883
vt 0.850702 0.205575
vt 0.841790 0.205575
vt 0.841790 0.004883
vt 0.832607 0.004883
vt 0.832607 0.205575
vt 0.823695 0.205575
vt 0.823695 0.004883
vt 0.429139 0.004883
vt 0.429139 0.448696
vt 0.222026 0.448696
vt 0.222026 0.004883
vt 0.211995 0.448696
vt 0.004883 0.448696
vt 0.004883 0.004883
vt 0.211995 0.004883
vt 0.978813 0.903816
vt 0.968457 0.903816
vt 0.968457 0.460005
vt 0.978813 0.460005
vt 0.978813 0.448695
vt 0.968457 0.448695
vt 0.968457 0.004883
vt 0.978813 0.004883
vt 0.802384 0.606841
vt 0.792028 0.606841
vt 0.792028 0.399729
vt 0.802384 0.399729
vt 0.779765 0.606841
vt 0.769409 0.606841
vt 0.769409 0.399729
vt 0.779765 0.399729
vt 0.176268 0.460005
vt 0.176268 0.660847
vt 0.004883 0.660847
vt 0.004883 0.460005
vt 0.439170 0.004883
vt 0.610555 0.004883
vt 0.610555 0.205725
vt 0.439170 0.205725
vt 0.282144 0.872998
vt 0.271788 0.872998
vt 0.271788 0.672157
vt 0.282144 0.672157
vt 0.259525 0.872998
vt 0.249169 0.872998
vt 0.249169 0.672157
vt 0.259525 0.672157
vt 0.339646 0.672157
vt 0.350001 0.672157
vt 0.350001 0.843542
vt 0.339646 0.843542
vt 0.304763 0.843542
vt 0.294408 0.843542
vt 0.294407 0.672157
vt 0.304763 0.672157
vt 0.610555 0.217034
vt 0.610555 0.417876
vt 0.439170 0.417876
vt 0.439170 0.217034
vt 0.439170 0.429186
vt 0.610555 0.429186
vt 0.610555 0.630028
vt 0.439170 0.630028
vt 0.825003 0.600571
vt 0.814647 0.600571
vt 0.814647 0.399729
vt 0.825003 0.399729
vt 0.847622 0.600571
vt 0.837266 0.600571
vt 0.837266 0.399729
vt 0.847622 0.399729
vt 0.077264 0.672157
vt 0.087620 0.672157
vt 0.087620 0.843542
vt 0.077264 0.843542
vt 0.015238 0.843542
vt 0.004883 0.843542
vt 0.004883 0.672157
vt 0.015238 0.672157
vt 0.357221 0.460005
vt 0.357221 0.660847
vt 0.185836 0.660847
vt 0.185836 0.460005
vt 0.620123 0.004883
vt 0.791508 0.004883
vt 0.791508 0.205725
vt 0.620123 0.205725
vt 0.811431 0.205725
vt 0.801076 0.205725
vt 0.801076 0.004883
vt 0.811431 0.004883
vt 0.110239 0.872998
vt 0.099883 0.872998
vt 0.099883 0.672157
vt 0.110239 0.672157
vt 0.859885 0.004883
vt 0.870241 0.004883
vt 0.870241 0.176268
vt 0.859885 0.176268
vt 0.883812 0.876972
vt 0.873457 0.876972
vt 0.873457 0.705586
vt 0.883812 0.705586
vt 0.620123 0.641037
vt 0.737455 0.641037
vt 0.737455 0.812422
vt 0.620123 0.812422
vt 0.610788 0.641337
vt 0.610788 0.812723
vt 0.493456 0.812723
vt 0.493456 0.641337
vt 0.825003 0.941064
vt 0.814647 0.941064
vt 0.814647 0.823732
vt 0.825003 0.823732
vt 0.366789 0.460005
vt 0.377144 0.460005
vt 0.377144 0.577337
vt 0.366789 0.577337
vt 0.769409 0.823732
vt 0.779765 0.823732
vt 0.779765 0.995117
vt 0.769409 0.995117
vt 0.065001 0.843542
vt 0.054645 0.843542
vt 0.054645 0.672157
vt 0.065001 0.672157
vt 0.864122 0.812422
vt 0.746790 0.812422
vt 0.746790 0.641037
vt 0.864122 0.641037
vt 0.239834 0.672157
vt 0.239834 0.843542
vt 0.122502 0.843542
vt 0.122502 0.672157
vt 0.847622 0.941064
vt 0.837266 0.941064
vt 0.837266 0.823732
vt 0.847622 0.823732
vt 0.399763 0.577337
vt 0.389408 0.577337
vt 0.389408 0.460005
vt 0.399763 0.460005
vt 0.317027 0.672157
vt 0.327382 0.672157
vt 0.327382 0.843542
vt 0.317027 0.843542
vt 0.042381 0.843542
vt 0.032026 0.843542
vt 0.032026 0.672157
vt 0.042381 0.672157
vt 0.366789 0.641337
vt 0.484121 0.641337
vt 0.484121 0.812723
vt 0.366789 0.812723
vt 0.886741 0.217034
vt 0.886741 0.388420
vt 0.769409 0.388420
vt 0.769409 0.217034
vt 0.422383 0.577337
vt 0.412027 0.577337
vt 0.412027 0.460005
vt 0.422383 0.460005
vt 0.802384 0.941064
vt 0.792028 0.941064
vt 0.792028 0.823732
vt 0.802384 0.823732
vt 0.896076 0.705586
vt 0.906432 0.705586
vt 0.906432 0.876972
vt 0.896076 0.876972
vt 0.757145 0.995117
vt 0.746790 0.995117
vt 0.746790 0.823732
vt 0.757145 0.823732
vt 0.955361 0.616597
vt 0.955361 0.911145
vt 0.927743 0.911145
vt 0.927743 0.616597
vt 0.955361 0.605287
vt 0.927743 0.605287
vt 0.927743 0.310740
vt 0.955361 0.310740
vt 0.938290 0.299430
vt 0.896076 0.299430
vt 0.896076 0.004883
vt 0.938290 0.004883
vt 0.873457 0.399729
vt 0.915671 0.399729
vt 0.915671 0.694277
vt 0.873457 0.694277
vt 0.688455 0.823732
vt 0.688455 0.865946
vt 0.660837 0.865946
vt 0.660837 0.823732
vt 0.647741 0.823732
vt 0.647741 0.865946
vt 0.620123 0.865946
vt 0.620123 0.823732

# vertex normals
vn 0.000000 -1.000000 0.000000
vn 0.000000 0.000000 1.000000
vn 0.000000 1.000000 0.000000
vn 0.000000 0.000000 -1.000000
vn 1.000000 0.000000 0.000000
vn -1.000000 0.000000 0.000000
vn -0.000000 0.000000 1.000000
vn 0.000000 0.000000 -1.000000
vn -1.000000 0.000000 -0.000000
vn 1.000000 0.000000 0.000000
vn -1.000000 -0.000000 0.000000
vn 1.000000 0.000000 -0.000000
vn -0.000000 0.000000 1.000000
vn 0.000000 -0.000000 -1.000000
vn -0.000000 -1.000000 0.000000
vn 0.000000 1.000000 -0.000000
vn -1.000000 -0.000000 0.000000
vn 1.000000 0.000000 -0.000000
vn -0.000000 0.000000 1.000000
vn 0.000000 -0.000000 -1.000000
vn -0.000000 -1.000000 0.000000
vn 0.000000 1.000000 -0.000000
vn -1.000000 -0.000000 0.000000
vn 1.000000 0.000000 -0.000000
vn -0.000000 0.000000 1.000000
vn 0.000000 -0.000000 -1.000000
vn -0.000000 -1.000000 0.000000
vn 0.000000 1.000000 -0.000000
vn 0.000000 -1.000000 0.000000
vn -0.000000 1.000000 -0.000000
vn -0.000000 0.000000 1.000000
vn 0.000000 0.000000 -1.000000
vn -1.000000 0.000000 0.000000
vn 0.000000 -1.000000 0.000000
vn -0.000000 1.000000 -0.000000
vn -0.000000 0.000000 1.000000
vn 0.000000 0.000000 -1.000000
vn 1.000000 0.000000 0.000000
vn 0.000000 -1.000000 0.000000
vn -0.000000 1.000000 -0.000000
vn -0.000000 0.000000 1.000000
vn 1.000000 0.000000 0.000000
vn 0.000001 -1.000000 0.000006
vn -0.000001 1.000000 -0.000006
vn 0.000000 0.000000 -1.000000
vn 1.000000 0.000000 -0.000001

# Mesh
g Work_Bench
usemtl desk
f 2/2/1 3/3/1 4/4/1 1/1/1
f 3/6/2 5/7/2 6/8/2 4/5/2
f 5/10/3 7/11/3 8/12/3 6/9/3
f 7/14/4 2/15/4 1/16/4 8/13/4
f 7/18/5 5/19/5 3/20/5 2/17/5
f 6/24/6 8/21/6 1/22/6 4/23/6
f 12/28/3 9/25/3 10/26/3 11/27/3
f 13/29/1 14/30/1 15/31/1 16/32/1
f 14/35/7 12/36/7 11/33/7 15/34/7
f 9/37/8 13/38/8 16/39/8 10/40/8
f 11/44/9 10/41/9 16/42/9 15/43/9
f 9/48/10 12/45/10 14/46/10 13/47/10
f 19/51/11 20/52/11 17/49/11 18/50/11
f 22/54/12 23/55/12 24/56/12 21/53/12
f 23/58/13 22/59/13 20/60/13 19/57/13
f 21/62/14 24/63/14 18/64/14 17/61/14
f 24/66/15 23/67/15 19/68/15 18/65/15
f 22/70/16 21/71/16 17/72/16 20/69/16
f 27/75/17 28/76/17 25/73/17 26/74/17
f 30/78/18 31/79/18 32/80/18 29/77/18
f 31/82/19 30/83/19 28/84/19 27/81/19
f 29/86/20 32/87/20 26/88/20 25/85/20
f 32/90/21 31/91/21 27/92/21 26/89/21
f 30/94/22 29/95/22 25/96/22 28/93/22
f 35/99/23 36/100/23 33/97/23 34/98/23
f 38/102/24 39/103/24 40/104/24 37/101/24
f 39/106/25 38/107/25 36/108/25 35/105/25
f 37/110/26 40/111/26 34/112/26 33/109/26
f 40/114/27 39/115/27 35/116/27 34/113/27
f 38/118/28 37/119/28 33/120/28 36/117/28
f 42/122/29 43/123/29 44/124/29 41/121/29
f 47/127/30 48/128/30 45/125/30 46/126/30
f 43/129/31 47/130/31 46/131/31 44/132/31
f 48/135/32 42/136/32 41/133/32 45/134/32
f 48/138/10 47/139/10 43/140/10 42/137/10
f 46/142/33 45/143/33 41/144/33 44/141/33
f 50/146/34 51/147/34 52/148/34 49/145/34
f 55/151/35 56/152/35 53/149/35 54/150/35
f 51/153/36 55/154/36 54/155/36 52/156/36
f 56/159/37 50/160/37 49/157/37 53/158/37
f 56/162/38 55/163/38 51/164/38 50/161/38
f 54/166/9 53/167/9 49/168/9 52/165/9
f 58/170/39 59/171/39 60/172/39 57/169/39
f 63/175/40 64/176/40 61/173/40 62/174/40
f 59/177/41 63/178/41 62/179/41 60/180/41
f 64/183/32 58/184/32 57/181/32 61/182/32
f 64/186/42 63/187/42 59/188/42 58/185/42
f 62/190/9 61/191/9 57/192/9 60/189/9
f 66/194/43 67/195/43 68/196/43 65/193/43
f 71/199/44 72/200/44 69/197/44 70/198/44
f 67/201/7 71/202/7 70/203/7 68/204/7
f 72/207/45 66/208/45 65/205/45 69/206/45
f 72/210/46 71/211/46 67/212/46 66/209/46
f 70/214/9 69/215/9 65/216/9 68/213/9
