# File produced by Open Asset Import Library (http://www.assimp.sf.net)
# (assimp v3.1.137539927)

mtllib kite_enemy1.mtl

# vertex positions
v -24.240086 0.000481 0.000000
v 0.000000 -0.000481 0.000000
v 24.240086 0.000481 0.000000
v 0.000000 23.563854 0.000000
v -48.480217 99.928368 0.000000
v 0.000000 23.563850 0.000000
v 48.480217 99.928368 0.000000
v 0.000000 147.423782 0.000000

# UV coordinates
vt 0.460376 0.084899
vt 0.616184 0.084892
vt 0.771992 0.084899
vt 0.616184 0.236357
vt 0.031919 0.566029
vt 0.348891 0.066743
vt 0.665864 0.566029
vt 0.348891 0.876563

# vertex normals
vn 0.000000 0.000000 1.000000

# Mesh
g kite_2d
usemtl kite_enemy1_mat
f 3/3/1 4/4/1 1/1/1 2/2/1
f 7/7/1 8/8/1 5/5/1 6/6/1
