# File produced by Open Asset Import Library (http://www.assimp.sf.net)
# (assimp v3.1.137539927)

mtllib stick_2.mtl

# vertex positions
v -30.885077 0.762830 1.310294
v 30.713934 0.762830 1.310294
v 30.713934 2.139272 1.310294
v -30.885077 2.139272 1.310294
v 30.713934 0.762830 1.055316
v -30.885077 0.762830 1.055316
v -30.885077 2.139272 1.055316
v 30.713934 2.139272 1.055316
v 30.713934 2.793905 1.055316
v 30.713934 2.793905 1.182818
v -30.885077 2.793905 1.182818
v -30.885077 2.793905 1.055316
v 30.713934 0.146490 1.055316
v 30.713934 0.146490 1.182818
v -30.885077 0.146490 1.182818
v -30.885077 0.146490 1.055316

# UV coordinates
vt 0.732520 0.778039
vt 0.067926 0.777394
vt 0.067940 0.762543
vt 0.732535 0.763189
vt 0.740683 0.724573
vt 0.076088 0.725246
vt 0.076073 0.710395
vt 0.740668 0.709723
vt 0.753271 0.709710
vt 0.740660 0.702660
vt 0.746963 0.702654
vt 0.732544 0.753724
vt 0.067949 0.753078
vt 0.067955 0.746776
vt 0.732550 0.747422
vt 0.067911 0.792857
vt 0.067917 0.786555
vt 0.732512 0.787200
vt 0.732506 0.793502
vt 0.069792 0.731902
vt 0.063485 0.725258
vt 0.076094 0.731896
vt 0.063470 0.710408
vt 0.069763 0.703339
vt 0.076066 0.703332
vt 0.740689 0.731223
vt 0.753285 0.724561
vt 0.746991 0.731217

# vertex normals
vn 0.000000 0.000000 1.000000
vn -0.000000 -0.000000 -1.000000
vn 1.000000 0.000000 0.000000
vn 0.000000 1.000000 0.000000
vn -0.000000 -1.000000 -0.000000
vn -1.000000 -0.000000 -0.000000
vn 0.000000 -0.202496 0.979283
vn 0.000000 0.191095 0.981572

# Mesh
g kite_stick_2
usemtl stick_2_mat
f 2/2/1 3/3/1 4/4/1 1/1/1
f 8/8/2 5/5/2 6/6/2 7/7/2
f 9/10/3 10/11/3 3/9/3 8/8/3
f 10/13/4 9/14/4 12/15/4 11/12/4
f 13/16/5 14/17/5 15/18/5 16/19/5
f 1/21/6 6/6/6 16/22/6 15/20/6
f 14/17/7 2/2/7 1/1/7 15/18/7
f 3/3/8 10/13/8 11/12/8 4/4/8
f 4/23/6 7/7/6 6/6/6 1/21/6
f 11/24/6 12/25/6 7/7/6 4/23/6
f 5/5/3 2/27/3 14/28/3 13/26/3
f 8/8/3 3/9/3 2/27/3 5/5/3
f 5/5/2 13/26/2 16/22/2 6/6/2
f 9/10/2 8/8/2 7/7/2 12/25/2
