# Blender 4.5.3 LTS
# www.blender.org
mtllib choco_wafer_halfOpened.mtl
o w_cardboard_halfclosed
v -31.875000 -0.749994 31.875000
v -31.875000 -0.749998 -31.875000
v 31.875000 -0.749998 -31.875000
v 31.875000 -0.749994 31.875000
v 32.625004 55.809597 -32.625008
v 32.625004 0.000002 -32.625004
v -32.625004 0.000002 -32.625004
v -32.625004 55.716679 -32.625008
v 32.625004 0.000006 32.625004
v 32.625004 55.815678 32.625000
v -32.625004 55.716686 32.625000
v -32.625004 0.000006 32.625004
v -1.972978 70.810287 31.874994
v -1.972978 70.810287 -31.875006
v 2.132842 64.440193 -31.876797
v 2.072231 64.974655 31.870949
v -31.875000 0.000006 31.875000
v 31.875000 0.000006 31.875000
v 31.875000 0.000002 -31.875000
v -31.875000 0.000002 -31.875000
v 31.875000 55.249996 -31.875004
v -31.875000 55.249996 -31.875004
v -31.875000 55.250004 31.874996
v 31.875000 55.250004 31.874996
v -1.641655 70.137436 -31.875006
v -1.641655 70.137436 31.874994
v 1.862397 64.254608 31.873865
v 1.923008 63.720150 -31.873877
vn -0.0000 -1.0000 -0.0000
vn -0.0000 -0.0000 -1.0000
vn -0.0000 -0.0000 1.0000
vn -1.0000 -0.0000 -0.0000
vn 1.0000 -0.0000 -0.0000
vn -0.4418 0.8971 -0.0000
vn 0.2798 0.9601 -0.0039
vn -0.0000 1.0000 -0.0000
vn 0.4418 -0.8971 -0.0000
vn -0.2798 -0.9601 0.0039
vn -0.0006 0.8253 0.5647
vn -0.0006 0.8238 -0.5669
vn 0.2053 -0.3946 0.8956
vn 0.8971 0.4418 -0.0000
vn 0.2053 -0.3946 -0.8956
vn -0.1320 -0.4273 -0.8944
vn -0.9601 0.2798 -0.0033
vn -0.1369 -0.4193 0.8975
vt 0.529655 0.003928
vt 0.529655 0.258170
vt 0.275413 0.258170
vt 0.275413 0.003928
vt 0.797737 0.267289
vt 0.797701 0.489863
vt 0.537477 0.489821
vt 0.537513 0.267616
vt 0.752843 0.531264
vt 0.752880 0.753863
vt 0.492656 0.753511
vt 0.492619 0.531307
vt 0.264162 0.226132
vt 0.003938 0.226169
vt 0.003906 0.003965
vt 0.264130 0.003928
vt 0.264130 0.753874
vt 0.003906 0.753854
vt 0.003944 0.531255
vt 0.264168 0.531299
vt 0.261190 0.362393
vt 0.006949 0.362429
vt 0.936190 0.003927
vt 0.936102 0.264151
vt 0.809720 0.261121
vt 0.808984 0.006880
vt 0.527294 0.267614
vt 0.527294 0.521856
vt 0.273052 0.521856
vt 0.273052 0.267614
vt 0.794119 0.003974
vt 0.794080 0.224317
vt 0.539838 0.224271
vt 0.539877 0.003928
vt 0.529695 0.763019
vt 0.529655 0.983362
vt 0.275413 0.983316
vt 0.275453 0.762973
vt 0.258148 0.983687
vt 0.003906 0.983642
vt 0.003946 0.763299
vt 0.258188 0.763344
vt 0.794080 0.983659
vt 0.539838 0.983613
vt 0.539877 0.763270
vt 0.794119 0.763316
vt 0.262891 0.506238
vt 0.008649 0.506277
vt 0.008628 0.371878
vt 0.262870 0.371838
vt 0.983386 0.273572
vt 0.983528 0.527814
vt 0.858563 0.527888
vt 0.859249 0.273646
vt 0.826141 0.512481
vt 0.826147 0.766723
vt 0.823156 0.766723
vt 0.823149 0.512481
vt 0.837315 0.512485
vt 0.840306 0.512485
vt 0.840312 0.766727
vt 0.837321 0.766727
vt 0.991406 0.003928
vt 0.991412 0.258170
vt 0.988421 0.258170
vt 0.988415 0.003928
vt 0.808984 0.512473
vt 0.811975 0.512473
vt 0.811981 0.766715
vt 0.808990 0.766715
vt 0.797701 0.993103
vt 0.794710 0.996094
vt 0.540468 0.996094
vt 0.537477 0.993103
vt 0.794706 0.512462
vt 0.797700 0.516192
vt 0.537477 0.516108
vt 0.540466 0.512584
vt 0.847281 0.499297
vt 0.844288 0.503041
vt 0.590046 0.502893
vt 0.587056 0.499368
vt 0.523203 0.992806
vt 0.526194 0.995797
vt 0.265970 0.995797
vt 0.268961 0.992805
vt 0.963075 0.006900
vt 0.963075 0.261142
vt 0.960083 0.264133
vt 0.960083 0.003909
vt 0.948909 0.003906
vt 0.948909 0.264130
vt 0.945918 0.261139
vt 0.945918 0.006897
vt 0.676155 0.234785
vt 0.676131 0.237776
vt 0.539838 0.237919
vt 0.541760 0.233717
vt 0.262892 0.509229
vt 0.008650 0.509268
vt 0.808990 0.270914
vt 0.811981 0.270887
vt 0.813185 0.405281
vt 0.808984 0.407207
vt 0.798515 0.247037
vt 0.796182 0.251212
vt 0.672050 0.250236
vt 0.672097 0.247245
vt 0.977240 0.003928
vt 0.977250 0.258169
vt 0.974259 0.258181
vt 0.974249 0.003939
vt 0.823149 0.273500
vt 0.827363 0.271213
vt 0.827356 0.398454
vt 0.824365 0.398459
s 1
usemtl cw_halfOp
f 3/1/1 4/2/1 1/3/1 2/4/1
f 5/5/2 6/6/2 7/7/2 8/8/2
f 9/9/3 10/10/3 11/11/3 12/12/3
f 11/13/4 8/14/4 7/15/4 12/16/4
f 5/17/5 10/18/5 9/19/5 6/20/5
f 13/21/6 14/22/6 8/14/6 11/13/6
f 10/23/7 5/24/7 15/25/7 16/26/7
f 18/27/8 19/28/8 20/29/8 17/30/8
f 19/31/3 21/32/3 22/33/3 20/34/3
f 24/35/2 18/36/2 17/37/2 23/38/2
f 22/39/5 23/40/5 17/41/5 20/42/5
f 24/43/4 21/44/4 19/45/4 18/46/4
f 25/47/9 26/48/9 23/49/9 22/50/9
f 21/51/10 24/52/10 27/53/10 28/54/10
f 17/55/4 20/56/4 2/57/4 1/58/4
f 19/59/2 3/60/2 2/61/2 20/62/2
f 19/63/5 18/64/5 4/65/5 3/66/5
f 4/67/3 18/68/3 17/69/3 1/70/3
f 6/71/1 19/72/1 20/73/1 7/74/1
f 21/75/11 5/76/11 8/77/11 22/78/11
f 10/79/12 24/80/12 23/81/12 11/82/12
f 18/83/1 9/84/1 12/85/1 17/86/1
f 20/87/1 17/88/1 12/89/1 7/90/1
f 6/91/1 9/92/1 18/93/1 19/94/1
f 26/95/13 13/96/13 11/97/13 23/98/13
f 26/48/14 25/47/14 14/99/14 13/100/14
f 14/101/15 25/102/15 22/103/15 8/104/15
f 5/105/16 21/106/16 28/107/16 15/108/16
f 16/109/17 15/110/17 28/111/17 27/112/17
f 24/113/18 10/114/18 16/115/18 27/116/18
