{"asset":{"version":"2.0","generator":"babylon.js glTF exporter for Autodesk MAYA 2024.2 v20251111.2"},"scene":0,"scenes":[{"nodes":[0]}],"nodes":[{"mesh":0,"name":"ceilingFan1","extras":{"currentUVSet":"map1"}}],"meshes":[{"primitives":[{"attributes":{"POSITION":1,"NORMAL":2},"indices":0,"material":0},{"attributes":{"POSITION":4,"NORMAL":5},"indices":3,"material":1}],"name":"ceilingFan1"}],"accessors":[{"bufferView":0,"componentType":5123,"count":408,"type":"SCALAR","name":"accessorIndices"},{"bufferView":1,"componentType":5126,"count":234,"max":[0.6016731,0.13653,0.914715946],"min":[-0.989901841,0.10493198,-0.9230766],"type":"VEC3","name":"accessorPositions"},{"bufferView":1,"byteOffset":2808,"componentType":5126,"count":234,"type":"VEC3","name":"accessorNormals"},{"bufferView":0,"byteOffset":816,"componentType":5123,"count":336,"type":"SCALAR","name":"accessorIndices"},{"bufferView":1,"byteOffset":5616,"componentType":5126,"count":216,"max":[0.213444412,0.267436,0.24228397],"min":[-0.213444412,-1.19209287E-09,-0.250644833],"type":"VEC3","name":"accessorPositions"},{"bufferView":1,"byteOffset":8208,"componentType":5126,"count":216,"type":"VEC3","name":"accessorNormals"},{"bufferView":2,"componentType":5126,"count":31,"max":[1.25],"min":[0.0],"type":"SCALAR","name":"accessorAnimationInput"},{"bufferView":3,"componentType":5126,"count":31,"type":"VEC4","name":"accessorAnimationRotations"}],"bufferViews":[{"buffer":0,"byteLength":1488,"name":"bufferViewScalar"},{"buffer":0,"byteOffset":1488,"byteLength":10800,"byteStride":12,"name":"bufferViewFloatVec3"},{"buffer":0,"byteOffset":12288,"byteLength":124,"name":"bufferViewAnimationFloatScalar"},{"buffer":0,"byteOffset":12412,"byteLength":496,"name":"bufferViewAnimationFloatVec4"}],"buffers":[{"uri":"ceilingfan_anim.bin","byteLength":12908}],"materials":[{"pbrMetallicRoughness":{"baseColorFactor":[0.5,0.5,0.5,1.0],"metallicFactor":0.0,"roughnessFactor":0.450053632},"emissiveFactor":[0.5,0.5,0.5],"name":"openPBR_shader5"},{"pbrMetallicRoughness":{"baseColorFactor":[0.5043,0.2191,0.0,1.0],"metallicFactor":0.0,"roughnessFactor":0.2},"name":"ceilingfan_Holder"}],"animations":[{"channels":[{"sampler":0,"target":{"node":0,"path":"rotation"}}],"samplers":[{"input":6,"output":7}],"name":"All Animations"}]}