# Blender 4.5.3 LTS
# www.blender.org
mtllib kite.mtl
g flap_left_Mesh
v -0.293354 0.647567 0.007607
v -0.314000 0.636311 0.007832
v -0.293354 0.542769 0.007886
v -0.320764 0.591602 0.007710
v -0.338869 0.623615 0.007652
v -0.334623 0.625810 0.007680
v -0.333519 0.614146 0.007877
v -0.293354 0.629641 0.020618
v -0.313414 0.626608 0.016580
v -0.315143 0.600996 0.019096
v -0.293354 0.579242 0.014839
v -0.314114 0.613644 0.020231
v -0.293354 0.616874 0.023829
vn -0.2573 0.4622 0.8486
vn -0.2843 0.4483 0.8475
vn -0.2417 -0.0394 0.9695
vn -0.1287 -0.0247 0.9914
vn -0.4553 0.0951 0.8853
vn -0.3459 0.3661 0.8639
vn -0.2783 0.5906 0.7574
vn -0.2875 0.5975 0.7485
vn -0.4117 -0.3195 0.8535
vn -0.2851 -0.2527 0.9246
vn -0.5590 -0.1780 0.8099
vn -0.3118 -0.2873 0.9057
vn -0.3666 -0.3063 0.8785
vt 0.611237 0.870473
vt 0.677402 0.875109
vt 0.679469 0.894921
vt 0.605197 0.889985
vt 0.752296 0.880178
vt 0.740021 0.875856
vt 0.614303 0.843686
vt 0.679133 0.860635
vt 0.700100 0.928607
vt 0.682509 0.914249
vt 0.738411 0.894153
vt 0.609230 0.935045
vt 0.631152 0.990784
s 1
usemtl kite
f 8/1/1 9/2/2 12/3/3 13/4/4
f 5/5/5 12/3/3 9/2/2 6/6/6
f 1/7/7 2/8/8 9/2/2 8/1/1
f 6/6/6 9/2/2 2/8/8
f 4/9/9 10/10/10 7/11/11
f 11/12/12 10/10/10 4/9/9 3/13/13
f 7/11/11 10/10/10 12/3/3 5/5/5
f 13/4/4 12/3/3 10/10/10 11/12/12
g flap_right_Mesh.001
v 0.297579 0.648824 0.007772
v 0.317649 0.636979 0.007997
v 0.297579 0.540147 0.008052
v 0.324751 0.590712 0.007876
v 0.342429 0.623613 0.007818
v 0.338272 0.625860 0.007845
v 0.337726 0.614468 0.008043
v 0.297579 0.629963 0.015741
v 0.317062 0.626929 0.015091
v 0.318792 0.601318 0.019670
v 0.297579 0.580253 0.012273
v 0.317762 0.613966 0.020805
v 0.297579 0.617195 0.020096
vn 0.1290 0.4174 0.8995
vn -0.0505 0.0323 0.9982
vn 0.1235 0.0038 0.9923
vn 0.1841 0.4303 0.8837
vn 0.4406 0.1469 0.8856
vn 0.3003 0.4313 0.8507
vn 0.1793 0.4517 0.8740
vn 0.2037 0.4706 0.8585
vn 0.3142 -0.2826 0.9063
vn 0.5620 -0.1684 0.8098
vn 0.1708 -0.2322 0.9576
vn 0.1874 -0.2514 0.9496
vn 0.2524 -0.2643 0.9308
vt 0.566282 0.869568
vt 0.573492 0.886330
vt 0.506393 0.909038
vt 0.503639 0.890795
vt 0.432688 0.914662
vt 0.443481 0.907630
vt 0.556376 0.844417
vt 0.498339 0.877689
vt 0.495025 0.946133
vt 0.449414 0.923571
vt 0.508093 0.927102
vt 0.583682 0.926772
vt 0.577240 0.987222
s 1
usemtl kite
f 21/14/14 26/15/15 25/16/16 22/17/17
f 18/18/18 19/19/19 22/17/17 25/16/16
f 14/20/20 21/14/14 22/17/17 15/21/21
f 19/19/19 15/21/21 22/17/17
f 17/22/22 20/23/23 23/24/24
f 24/25/25 16/26/26 17/22/22 23/24/24
f 20/23/23 18/18/18 25/16/16 23/24/24
f 26/15/15 24/25/25 23/24/24 25/16/16
g flap_btm_Mesh.002
v 0.000202 0.008026 0.007733
v 0.005032 0.016890 0.007733
v 0.000086 0.058187 0.021614
v 0.027739 0.058187 0.007733
v 0.000163 0.024821 0.014572
v 0.012613 0.030656 0.007733
v 0.000125 0.041504 0.021614
v 0.020159 0.044421 0.007733
v -0.004746 0.016890 0.007733
v -0.027785 0.058187 0.007733
v -0.012426 0.030656 0.007733
v -0.020105 0.044421 0.007733
vn 0.5353 -0.2068 0.8190
vn 0.5247 -0.1770 0.8327
vn 0.5049 -0.1250 0.8541
vn 0.5664 -0.3106 0.7634
vn 0.5688 -0.3151 0.7597
vn 0.5682 -0.3140 0.7606
vn -0.5318 -0.2097 0.8205
vn -0.5016 -0.1272 0.8557
vn -0.5211 -0.1791 0.8345
vn -0.5613 -0.3132 0.7661
vn -0.5639 -0.3170 0.7626
vn -0.5648 -0.3185 0.7613
vt 0.843562 0.912842
vt 0.922877 0.924392
vt 0.952888 0.978889
vt 0.843408 0.978889
vt 0.843870 0.780302
vt 0.862992 0.815397
vt 0.893003 0.869894
vt 0.843716 0.846795
vt 0.733067 0.978889
vt 0.763471 0.924392
vt 0.793875 0.869894
vt 0.824279 0.815397
s 1
usemtl kite
f 33/27/27 34/28/28 30/29/29 29/30/29
f 27/31/30 28/32/30 32/33/31 31/34/32
f 31/34/32 32/33/31 34/28/28 33/27/27
f 33/27/33 29/30/34 36/35/34 38/36/35
f 27/31/36 31/34/37 37/37/38 35/38/36
f 31/34/37 33/27/33 38/36/35 37/37/38
g flap_top_Mesh.003
v -0.000038 0.802442 0.007853
v -0.012575 0.795542 0.007853
v 0.000016 0.758022 0.015023
v -0.080065 0.758373 0.007853
v 0.000016 0.782854 0.016307
v -0.035610 0.782906 0.007853
v 0.000016 0.766158 0.016280
v -0.065138 0.766557 0.007853
v 0.012810 0.796033 0.007853
v 0.088523 0.758022 0.007853
v 0.038778 0.782970 0.007853
v 0.073332 0.765632 0.007853
vn -0.1401 0.0941 0.9857
vn -0.1194 0.0486 0.9917
vn -0.1067 0.0209 0.9941
vn -0.2125 0.3870 0.8973
vn -0.1677 0.1665 0.9717
vn -0.1790 0.2186 0.9593
vn 0.1278 0.0962 0.9871
vn 0.0960 0.0131 0.9953
vn 0.1071 0.0420 0.9934
vn 0.1949 0.3885 0.9006
vn 0.1626 0.2204 0.9618
vn 0.1518 0.1684 0.9740
vt 0.258708 0.888714
vt 0.078042 0.892841
vt 0.036736 0.871679
vt 0.258783 0.866320
vt 0.256044 0.984562
vt 0.222033 0.967067
vt 0.159211 0.934867
vt 0.258569 0.934724
vt 0.492850 0.854437
vt 0.452766 0.876440
vt 0.360769 0.927008
vt 0.290870 0.965523
s 1
usemtl kite
f 45/39/39 46/40/40 42/41/41 41/42/41
f 39/43/42 40/44/42 44/45/43 43/46/44
f 43/46/44 44/45/43 46/40/40 45/39/39
f 45/39/45 41/42/46 48/47/46 50/48/47
f 39/43/48 43/46/49 49/49/50 47/50/48
f 43/46/49 45/39/45 50/48/47 49/49/50
g top_Mesh.004
v 0.342532 0.623582 0.007717
v -0.000038 0.802442 0.007717
v 0.000190 0.008026 0.007717
v -0.338885 0.623613 0.007717
v -0.139830 0.725486 0.007717
v -0.140947 0.261220 0.007717
v 0.153344 0.725486 0.007717
v 0.139315 0.261220 0.007717
v -0.271513 0.504701 0.007717
v -0.140371 0.504701 0.009451
v 0.146804 0.504701 0.009615
v 0.278308 0.504701 0.007717
v 0.002093 0.504701 0.000501
v 0.342532 0.623582 -0.006052
v 0.153344 0.725486 -0.006052
v 0.146804 0.504701 -0.004153
v 0.278308 0.504701 -0.006052
v -0.271513 0.504701 -0.006052
v -0.140371 0.504701 -0.004317
v -0.139830 0.725486 -0.006052
v -0.338885 0.623613 -0.006052
v -0.000038 0.802442 -0.006052
v 0.002093 0.504701 -0.013268
v -0.140947 0.261220 -0.006052
v 0.139315 0.261220 -0.006052
v 0.000190 0.008026 -0.006051
v 0.349598 0.625692 0.000460
v 0.155577 0.730438 0.000460
v -0.000134 0.808803 0.000460
v -0.141904 0.730148 0.000460
v -0.346020 0.625726 0.000460
v -0.276111 0.502099 0.000460
v -0.145516 0.259150 0.000460
v 0.000217 0.000000 0.000460
v 0.144107 0.258965 0.000460
v 0.282869 0.502147 0.000460
vn -0.0072 -0.0041 -1.0000
vn -0.0088 -0.0013 -1.0000
vn 0.0211 0.0002 -0.9998
vn 0.0213 0.0059 -0.9998
vn 0.0079 -0.0015 -1.0000
vn 0.0064 -0.0038 -1.0000
vn -0.0223 0.0062 -0.9997
vn -0.0212 -0.0000 -0.9998
vn 0.0006 0.0102 -0.9999
vn 0.0003 -0.0001 -1.0000
vn -0.0353 -0.0065 -0.9994
vn 0.0361 -0.0068 -0.9993
vn -0.0001 -0.0075 -1.0000
vn 0.0072 0.0041 1.0000
vn -0.0213 -0.0059 0.9998
vn -0.0211 -0.0002 0.9998
vn 0.0088 0.0014 1.0000
vn -0.0079 0.0015 1.0000
vn 0.0212 -0.0000 0.9998
vn 0.0222 -0.0062 0.9997
vn -0.0064 0.0038 1.0000
vn -0.0006 -0.0102 0.9999
vn -0.0003 -0.0000 1.0000
vn 0.0353 0.0065 0.9994
vn -0.0361 0.0068 0.9993
vn 0.0001 0.0075 1.0000
vn 0.3829 0.7101 0.5908
vn 0.7142 -0.3858 0.5840
vn -0.3724 0.7277 0.5760
vn -0.7062 -0.3997 0.5843
vn 0.3570 0.7105 0.6064
vn -0.7188 -0.3859 0.5783
vn 0.7395 -0.4086 0.5350
vn 0.7035 -0.4015 0.5864
vn -0.3894 0.7045 0.5933
vn -0.7439 -0.4165 0.5226
vn 0.3677 0.6819 -0.6323
vn 0.3421 0.6808 -0.6476
vn -0.3738 0.6763 -0.6348
vn -0.3583 0.7002 -0.6176
vn -0.6787 -0.3842 -0.6259
vn -0.6914 -0.3712 -0.6199
vn -0.7205 -0.4034 -0.5641
vn 0.7151 -0.3952 -0.5766
vn 0.6759 -0.3858 -0.6279
vn 0.6864 -0.3708 -0.6255
vt 0.023557 0.427394
vt 0.062971 0.354435
vt 0.143676 0.354435
vt 0.139663 0.489933
vt 0.400401 0.354435
vt 0.441748 0.427413
vt 0.319586 0.489933
vt 0.319918 0.354435
vt 0.233794 0.537161
vt 0.232486 0.354435
vt 0.320271 0.205009
vt 0.148272 0.205009
vt 0.233655 0.049622
vt 0.890270 0.427394
vt 0.774164 0.489933
vt 0.770150 0.354435
vt 0.850855 0.354435
vt 0.513426 0.354435
vt 0.593908 0.354435
vt 0.594240 0.489933
vt 0.472078 0.427413
vt 0.680032 0.537161
vt 0.681340 0.354435
vt 0.593555 0.205009
vt 0.765554 0.205009
vt 0.680172 0.049622
vt 0.894606 0.428689
vt 0.775534 0.492972
vt 0.853654 0.352868
vt 0.592967 0.492794
vt 0.467700 0.428709
vt 0.510603 0.352839
vt 0.679973 0.541066
vt 0.590751 0.203739
vt 0.680188 0.044697
vt 0.768495 0.203625
vt 0.138292 0.492972
vt 0.019220 0.428689
vt 0.233853 0.541066
vt 0.320859 0.492794
vt 0.446126 0.428709
vt 0.403223 0.352839
vt 0.323076 0.203739
vt 0.233638 0.044697
vt 0.145332 0.203625
vt 0.060172 0.352868
s 1
usemtl kite
f 64/51/51 67/52/52 66/53/53 65/54/54
f 68/55/55 71/56/56 70/57/57 69/58/58
f 72/59/59 65/54/54 66/53/53 73/60/60
f 74/61/61 68/55/55 69/58/58
f 75/62/62 76/63/63 73/60/60 66/53/53
f 67/52/52 75/62/62 66/53/53
f 69/58/58 70/57/57 72/59/59 73/60/60
f 76/63/63 74/61/61 69/58/58 73/60/60
f 51/64/64 57/65/65 61/66/66 62/67/67
f 59/68/68 60/69/69 55/70/70 54/71/71
f 52/72/72 63/73/73 61/66/66 57/65/65
f 56/74/74 60/69/69 59/68/68
f 58/75/75 61/66/66 63/73/73 53/76/76
f 62/67/67 61/66/66 58/75/75
f 60/69/69 63/73/73 52/72/72 55/70/70
f 53/76/76 63/73/73 60/69/69 56/74/74
f 51/64/77 77/77/77 78/78/77 57/65/77
f 62/67/78 86/79/78 77/77/78 51/64/78
f 55/70/79 80/80/79 81/81/79 54/71/79
f 54/71/80 81/81/80 82/82/80 59/68/80
f 57/65/81 78/78/81 79/83/81 52/72/81
f 59/68/82 82/82/82 83/84/82 56/74/82
f 53/76/83 84/85/83 85/86/83 58/75/83
f 58/75/84 85/86/84 86/79/84 62/67/84
f 52/72/85 79/83/85 80/80/85 55/70/85
f 56/74/86 83/84/86 84/85/86 53/76/86
f 78/87/87 77/88/87 64/51/87 65/54/87
f 79/89/88 78/87/88 65/54/88 72/59/88
f 80/90/89 79/89/89 72/59/89 70/57/89
f 81/91/90 80/90/90 70/57/90 71/56/90
f 82/92/91 81/91/91 71/56/91 68/55/91
f 83/93/92 82/92/92 68/55/92 74/61/92
f 84/94/93 83/93/93 74/61/93 76/63/93
f 85/95/94 84/94/94 76/63/94 75/62/94
f 86/96/95 85/95/95 75/62/95 67/52/95
f 77/88/96 86/96/96 67/52/96 64/51/96
g vert_stick_Mesh.005
v -0.014093 0.776520 0.004654
v 0.012381 0.776520 0.004654
v -0.014093 0.038332 0.004655
v 0.012381 0.038332 0.004655
v -0.014093 0.038332 0.007964
v -0.007929 0.038332 0.011272
v -0.014093 0.776520 0.007964
v -0.007929 0.776520 0.011272
v 0.005835 0.038332 0.011272
v 0.012381 0.038332 0.007964
v 0.005835 0.776520 0.011272
v 0.012381 0.776520 0.007964
v -0.007929 0.776520 0.004654
v 0.005835 0.776520 0.004654
v -0.007929 0.038332 0.004655
v 0.005835 0.038332 0.004655
vn -0.0000 -0.0000 1.0000
vn -0.0000 -0.0000 -1.0000
vn -0.0000 -1.0000 -0.0000
vn 1.0000 -0.0000 -0.0000
vn -1.0000 -0.0000 -0.0000
vn -0.0000 1.0000 -0.0000
vn -0.4730 -0.0000 0.8811
vn 0.4511 -0.0000 0.8925
vt 0.856815 0.670977
vt 0.060380 0.670977
vt 0.060380 0.656127
vt 0.856815 0.656127
vt 0.864760 0.616709
vt 0.068325 0.616709
vt 0.068325 0.601858
vt 0.864760 0.601858
vt 0.877364 0.601858
vt 0.864760 0.594795
vt 0.871006 0.594795
vt 0.856815 0.646662
vt 0.060380 0.646662
vt 0.060380 0.640360
vt 0.856815 0.640360
vt 0.060380 0.686440
vt 0.060380 0.680138
vt 0.856815 0.680138
vt 0.856815 0.686440
vt 0.062079 0.623358
vt 0.055723 0.616709
vt 0.068325 0.623358
vt 0.055723 0.601858
vt 0.061967 0.594795
vt 0.068325 0.594795
vt 0.864760 0.623358
vt 0.877364 0.616709
vt 0.871118 0.623358
s 1
usemtl kite
f 94/97/97 92/98/97 95/99/97 97/100/97
f 101/101/98 99/102/98 100/103/98 102/104/98
f 95/105/99 102/104/99 90/106/99 96/107/99
f 98/108/100 96/109/100 90/110/100 88/111/100
f 89/112/101 91/113/101 93/114/101 87/115/101
f 93/116/102 94/117/102 99/102/102 87/118/102
f 91/113/103 92/98/103 94/97/103 93/114/103
f 95/99/104 96/109/104 98/108/104 97/100/104
f 99/102/102 94/117/102 97/119/102 100/103/102
f 100/103/102 97/119/102 98/120/102 88/121/102
f 89/122/99 101/101/99 92/123/99 91/124/99
f 92/123/99 101/101/99 102/104/99 95/105/99
f 87/118/98 99/102/98 101/101/98 89/122/98
f 102/104/98 100/103/98 88/121/98 90/106/98
g hori_stick_Mesh.006
v -0.308851 0.593351 0.010553
v -0.308851 0.619825 0.010553
v 0.307139 0.593351 0.010553
v 0.307139 0.619825 0.010553
v 0.307139 0.593351 0.011828
v 0.307139 0.599514 0.013103
v -0.308851 0.593351 0.011828
v -0.308851 0.599514 0.013103
v 0.307139 0.613279 0.013103
v 0.307139 0.619825 0.011828
v -0.308851 0.613279 0.013103
v -0.308851 0.619825 0.011828
v -0.308851 0.599514 0.010553
v -0.308851 0.613279 0.010553
v 0.307139 0.599514 0.010553
v 0.307139 0.613279 0.010553
vn -0.0000 -0.0000 1.0000
vn -0.0000 -0.0000 -1.0000
vn 1.0000 -0.0000 -0.0000
vn -0.0000 1.0000 -0.0000
vn -0.0000 -1.0000 -0.0000
vn -1.0000 -0.0000 -0.0000
vn -0.0000 -0.2025 0.9793
vn -0.0000 0.1911 0.9816
vt 0.732520 0.778039
vt 0.067926 0.777394
vt 0.067940 0.762543
vt 0.732535 0.763189
vt 0.740683 0.724573
vt 0.076088 0.725246
vt 0.076073 0.710395
vt 0.740668 0.709723
vt 0.753271 0.709710
vt 0.740660 0.702660
vt 0.746963 0.702654
vt 0.732544 0.753724
vt 0.067949 0.753078
vt 0.067955 0.746776
vt 0.732550 0.747422
vt 0.067911 0.792857
vt 0.067917 0.786555
vt 0.732512 0.787200
vt 0.732506 0.793502
vt 0.069792 0.731902
vt 0.063485 0.725258
vt 0.076094 0.731896
vt 0.063470 0.710408
vt 0.069763 0.703339
vt 0.076066 0.703332
vt 0.740689 0.731223
vt 0.753285 0.724561
vt 0.746991 0.731217
s 1
usemtl kite
f 110/125/105 108/126/105 111/127/105 113/128/105
f 117/129/106 115/130/106 116/131/106 118/132/106
f 111/133/107 118/132/107 106/134/107 112/135/107
f 114/136/108 112/137/108 106/138/108 104/139/108
f 105/140/109 107/141/109 109/142/109 103/143/109
f 109/144/110 110/145/110 115/130/110 103/146/110
f 107/141/111 108/126/111 110/125/111 109/142/111
f 111/127/112 112/137/112 114/136/112 113/128/112
f 115/130/110 110/145/110 113/147/110 116/131/110
f 116/131/110 113/147/110 114/148/110 104/149/110
f 105/150/107 117/129/107 108/151/107 107/152/107
f 108/151/107 117/129/107 118/132/107 111/133/107
f 103/146/106 115/130/106 117/129/106 105/150/106
f 118/132/106 116/131/106 104/149/106 106/134/106
