# File produced by Open Asset Import Library (http://www.assimp.sf.net)
# (assimp v3.1.137539927)

mtllib cardboard_Fullyclosed.mtl

# vertex positions
v -6.125537 51.301170 32.858208
v 3.442353 51.301170 32.858208
v 3.442353 51.354309 32.904457
v -6.125537 51.354309 32.904457
v 3.442353 56.638496 32.687565
v -6.125537 56.638496 32.687565
v -6.125537 47.567402 -33.151154
v 3.442353 47.567402 -33.151154
v 3.442353 47.514267 -32.967793
v -6.125537 47.514267 -32.967793
v -6.125537 56.585358 32.641346
v 3.442353 56.585358 32.641346
v -6.125537 56.579185 -32.904934
v -6.125537 56.632324 -33.088322
v 3.442353 56.579185 -32.904934
v 3.442353 56.632324 -33.088322
v -31.875000 -0.750000 31.875000
v -31.875000 -0.750000 -31.875000
v 31.874998 -0.750000 -31.875000
v 31.874998 -0.750000 31.875000
v 32.629333 55.250000 -32.625004
v 32.629333 0.000000 -32.625004
v -32.666668 0.000000 -32.625004
v -32.666668 55.250000 -32.625004
v 32.558224 0.000000 32.625004
v 32.558224 55.250000 32.625004
v -32.481846 55.250000 32.625004
v -32.481846 0.000000 32.625004
v -32.625004 55.250000 -31.875000
v -32.625004 0.000000 -31.875000
v -32.625004 0.000000 31.875000
v -32.625004 55.250000 31.875000
v 32.625004 0.000000 -31.875000
v 32.625004 55.250000 -31.875000
v 32.625004 55.250000 31.875000
v 32.625004 0.000000 31.875000
v -32.667721 55.999916 -32.445686
v -32.667721 55.999916 32.369495
v -1.526660 56.452950 32.369495
v -1.526660 56.452950 -32.445686
v 32.463573 55.999981 32.366356
v 32.463573 55.999981 -32.448833
v -0.958604 55.933685 -32.447701
v -1.019214 56.468147 32.365227
v -31.875000 0.000000 31.875000
v 31.874998 0.000000 31.875000
v 31.874998 0.000000 -31.875000
v -31.875000 0.000000 -31.875000
v 32.629333 55.250000 -31.875000
v -32.666668 55.250000 -31.875000
v -32.666668 0.000000 -31.875000
v 32.629333 0.000000 -31.875000
v 32.558224 0.000000 31.875000
v -32.481846 0.000000 31.875000
v -32.481846 55.250000 31.875000
v 32.558224 55.250000 31.875000
v -31.875000 55.250000 -31.875000
v -31.875000 55.250000 31.875000
v 31.874998 55.250000 31.875000
v 31.874998 55.250000 -31.875000
v -32.656528 55.250000 -32.445686
v -1.515470 55.703033 -32.445686
v -1.515470 55.703033 32.369495
v -32.656528 55.250000 32.369495
v 32.458984 55.250000 32.369495
v -1.023799 55.718166 32.368370
v -0.963188 55.183704 -32.444561
v 32.458984 55.250000 -32.445686

# UV coordinates
vt 0.885038 0.041123
vt 0.885041 0.003906
vt 0.885315 0.003906
vt 0.885312 0.041123
vt 0.905886 0.003908
vt 0.905883 0.041124
vt 0.818894 0.085833
vt 0.818895 0.048617
vt 0.819637 0.048617
vt 0.819637 0.085833
vt 0.972443 0.041123
vt 0.972444 0.003906
vt 0.993016 0.003907
vt 0.993014 0.041124
vt 0.939852 0.790248
vt 0.960408 0.789410
vt 0.960615 0.789590
vt 0.940059 0.790428
vt 0.993722 0.544140
vt 0.993515 0.544320
vt 0.972960 0.543480
vt 0.973167 0.543300
vt 0.958269 0.799536
vt 0.993530 0.799286
vt 0.993737 0.799999
vt 0.958476 0.800249
vt 0.837793 0.003906
vt 0.875010 0.003907
vt 0.875009 0.039168
vt 0.837792 0.039167
vt 0.960667 0.533716
vt 0.960460 0.534429
vt 0.925197 0.534174
vt 0.925404 0.533461
vt 0.790548 0.003906
vt 0.827764 0.003907
vt 0.827763 0.039168
vt 0.790547 0.039167
vt 0.925197 0.003910
vt 0.962413 0.003906
vt 0.962441 0.259756
vt 0.925224 0.259760
vt 0.955924 0.269207
vt 0.993140 0.269210
vt 0.993123 0.524166
vt 0.955907 0.524164
vt 0.003906 0.509295
vt 0.003906 0.261325
vt 0.251876 0.261325
vt 0.251876 0.509295
vt 0.515408 0.003941
vt 0.515379 0.218848
vt 0.261395 0.218813
vt 0.261424 0.003906
vt 0.778991 0.003944
vt 0.778959 0.218851
vt 0.525971 0.218813
vt 0.526003 0.003906
vt 0.003945 0.733696
vt 0.003906 0.518789
vt 0.251876 0.518744
vt 0.251915 0.733652
vt 0.773941 0.228300
vt 0.773980 0.443207
vt 0.526010 0.443252
vt 0.525971 0.228345
vt 0.636998 0.929212
vt 0.637004 0.677099
vt 0.758146 0.677101
vt 0.758141 0.929214
vt 0.913711 0.489864
vt 0.913700 0.741977
vt 0.783697 0.741975
vt 0.783460 0.489862
vt 0.003906 0.003906
vt 0.251876 0.003906
vt 0.251876 0.251876
vt 0.003906 0.251876
vt 0.515408 0.443204
vt 0.261424 0.443238
vt 0.261395 0.228331
vt 0.515379 0.228297
vt 0.514415 0.667562
vt 0.261427 0.667600
vt 0.261395 0.452693
vt 0.514383 0.452655
vt 0.773941 0.667653
vt 0.525971 0.667608
vt 0.526010 0.452701
vt 0.773980 0.452746
vt 0.379548 0.677033
vt 0.627518 0.677078
vt 0.627479 0.891985
vt 0.379509 0.891940
vt 0.247221 0.743103
vt 0.368364 0.743101
vt 0.368370 0.995214
vt 0.247227 0.995216
vt 0.913711 0.480411
vt 0.783460 0.480413
vt 0.783695 0.228300
vt 0.913698 0.228297
vt 0.179270 0.743116
vt 0.179277 0.991086
vt 0.176359 0.991086
vt 0.176353 0.743116
vt 0.148012 0.991091
vt 0.148006 0.743121
vt 0.150923 0.743121
vt 0.150929 0.991091
vt 0.165097 0.743119
vt 0.165103 0.991088
vt 0.162186 0.991089
vt 0.162179 0.743119
vt 0.136749 0.743124
vt 0.136756 0.991094
vt 0.133838 0.991094
vt 0.133832 0.743124
vt 0.003910 0.958053
vt 0.003906 0.743145
vt 0.006824 0.743145
vt 0.006827 0.958053
vt 0.928114 0.269209
vt 0.928114 0.523193
vt 0.925197 0.523193
vt 0.925197 0.269209
vt 0.942288 0.543828
vt 0.942292 0.758735
vt 0.939375 0.758735
vt 0.939371 0.543828
vt 0.941733 0.523192
vt 0.941733 0.269209
vt 0.944651 0.269209
vt 0.944650 0.523192
vt 0.786377 0.751424
vt 0.786381 0.966332
vt 0.783464 0.966332
vt 0.783460 0.751424
vt 0.772204 0.677102
vt 0.772204 0.930090
vt 0.769286 0.930090
vt 0.769287 0.677102
vt 0.034620 0.958049
vt 0.034616 0.743142
vt 0.037533 0.743141
vt 0.037537 0.958049
vt 0.233048 0.996094
vt 0.233048 0.743106
vt 0.235965 0.743106
vt 0.235965 0.996094
vt 0.051707 0.743139
vt 0.051711 0.958046
vt 0.048794 0.958046
vt 0.048790 0.743139
vt 0.094228 0.743131
vt 0.094228 0.991101
vt 0.091311 0.991101
vt 0.091311 0.743131
vt 0.023360 0.743144
vt 0.023364 0.958052
vt 0.020446 0.958052
vt 0.020442 0.743144
vt 0.080054 0.743134
vt 0.080054 0.991104
vt 0.077137 0.991104
vt 0.077137 0.743134
vt 0.062968 0.958043
vt 0.062963 0.743136
vt 0.065881 0.743136
vt 0.065885 0.958043
vt 0.105485 0.991099
vt 0.105484 0.743129
vt 0.108402 0.743129
vt 0.108402 0.991099
vt 0.972447 0.768395
vt 0.972443 0.553488
vt 0.975360 0.553488
vt 0.975364 0.768395
vt 0.119658 0.991096
vt 0.119658 0.743126
vt 0.122575 0.743126
vt 0.122576 0.991096
vt 0.204702 0.995224
vt 0.204700 0.743111
vt 0.207618 0.743111
vt 0.207619 0.995224
vt 0.851966 0.169760
vt 0.851977 0.048617
vt 0.854894 0.048618
vt 0.854883 0.169761
vt 0.190528 0.995227
vt 0.190527 0.743113
vt 0.193444 0.743113
vt 0.193446 0.995227
vt 0.807638 0.048617
vt 0.807673 0.169760
vt 0.804756 0.169762
vt 0.804720 0.048619
vt 0.218876 0.995232
vt 0.218874 0.743120
vt 0.221791 0.743108
vt 0.221793 0.995219
vt 0.840710 0.048640
vt 0.840714 0.178643
vt 0.837796 0.178620
vt 0.837792 0.048616
vt 0.925218 0.795851
vt 0.925197 0.543738
vt 0.928114 0.543726
vt 0.928135 0.795838
vt 0.790547 0.178868
vt 0.790552 0.048616
vt 0.793469 0.048640
vt 0.793464 0.178891

# vertex normals
vn 0.000000 -0.656518 0.754310
vn 0.000000 0.041011 0.999159
vn 0.000000 0.996817 0.079724
vn 0.000000 -0.960484 -0.278334
vn 0.000000 -0.996795 -0.080001
vn 0.000000 -0.041005 -0.999159
vn 1.000000 0.000000 0.000000
vn 1.000000 0.000000 0.000000
vn 1.000000 0.000000 0.000000
vn -1.000000 0.000000 -0.000000
vn -1.000000 0.000000 -0.000000
vn -1.000000 0.000000 0.000000
vn -1.000000 0.000000 -0.000000
vn -1.000000 0.000000 -0.000000
vn 0.000000 -0.006934 0.999976
vn 0.000000 -0.990577 0.136957
vn 1.000000 0.000000 0.000000
vn 1.000000 0.000000 0.000000
vn 1.000000 0.000000 0.000000
vn 0.000000 0.990642 -0.136488
vn 0.000000 0.006931 -0.999976
vn 0.000000 -1.000000 0.000000
vn 0.000000 0.000000 -1.000000
vn 0.000000 0.000000 1.000000
vn 1.000000 0.000000 0.000000
vn -0.014546 0.999894 0.000000
vn 0.006006 0.999973 -0.004120
vn 0.006006 0.999973 -0.004120
vn 0.006006 0.999973 -0.004120
vn 0.000000 1.000000 0.000000
vn 0.014546 -0.999894 0.000000
vn -0.006006 -0.999973 0.004120
vn -0.006006 -0.999973 0.004120
vn -0.999889 -0.014926 0.000000
vn -0.000000 0.000000 1.000000
vn -0.000000 0.000000 1.000000
vn -0.000000 0.000000 1.000000
vn 0.999889 0.014921 0.000000
vn 0.999981 -0.006114 0.000000
vn 0.999981 -0.006114 0.000000
vn 0.999981 -0.006114 0.000000
vn -0.000025 -0.004191 -0.999991
vn -0.000025 -0.004191 -0.999991
vn -0.000025 -0.004191 -0.999991
vn -0.000025 -0.004191 -0.999991
vn -0.999981 0.006109 -0.000986
vn -0.999981 0.006109 -0.000986
vn -0.999981 0.006109 -0.000986
vn -0.999981 0.006109 -0.000986
vn 0.000025 0.004188 0.999991
vn 0.000025 0.004188 0.999991
vn 0.000025 0.004188 0.999991

# Mesh
g Box_Fully_Closed_combined_Box_Fully_Closed_combined
usemtl standardSurface1
f 4/4/1 1/1/1 2/2/1
f 2/2/1 3/3/1 4/4/1
f 6/6/3 4/4/2 3/3/2
f 3/3/2 5/5/3 6/6/3
f 10/10/4 7/7/4 8/8/4
f 8/8/4 9/9/4 10/10/4
f 1/14/6 11/11/5 12/12/5
f 12/12/5 2/13/6 1/14/6
f 3/18/7 2/15/7 12/16/8
f 12/16/8 5/17/9 3/18/7
f 4/22/12 6/19/10 11/20/11
f 11/20/11 1/21/12 4/22/12
f 7/26/12 10/23/12 13/24/13
f 13/24/13 14/25/14 7/26/12
f 13/30/16 10/27/15 9/28/15
f 9/28/15 15/29/16 13/30/16
f 8/34/19 16/31/17 15/32/18
f 15/32/18 9/33/19 8/34/19
f 7/38/21 14/35/20 16/36/20
f 16/36/20 8/37/21 7/38/21
f 6/19/10 14/25/14 13/24/13
f 13/24/13 11/20/11 6/19/10
f 14/42/20 6/39/3 5/40/3
f 5/40/3 16/41/20 14/42/20
f 16/31/17 5/17/9 12/16/8
f 12/16/8 15/32/18 16/31/17
f 11/46/5 13/43/16 15/44/16
f 15/44/16 12/45/5 11/46/5

# Mesh
g Box_Fully_Closed_combined_Box_Fully_Closed_combined
usemtl standardSurface7
f 20/50/22 17/47/22 18/48/22
f 18/48/22 19/49/22 20/50/22
f 24/54/23 21/51/23 22/52/23
f 22/52/23 23/53/23 24/54/23
f 28/58/24 25/55/24 26/56/24
f 26/56/24 27/57/24 28/58/24
f 32/62/12 29/59/12 30/60/12
f 30/60/12 31/61/12 32/62/12
f 36/66/25 33/63/25 34/64/25
f 34/64/25 35/65/25 36/66/25
f 40/70/26 37/67/26 38/68/26
f 38/68/26 39/69/26 40/70/26
f 44/74/29 41/71/27 42/72/27
f 42/72/27 43/73/28 44/74/29
f 48/78/30 45/75/30 46/76/30
f 46/76/30 47/77/30 48/78/30
f 52/82/24 49/79/24 50/80/24
f 50/80/24 51/81/24 52/82/24
f 56/86/23 53/83/23 54/84/23
f 54/84/23 55/85/23 56/86/23
f 48/90/25 57/87/25 58/88/25
f 58/88/25 45/89/25 48/90/25
f 60/94/12 47/91/12 46/92/12
f 46/92/12 59/93/12 60/94/12
f 64/98/31 61/95/31 62/96/31
f 62/96/31 63/97/31 64/98/31
f 68/102/32 65/99/32 66/100/33
f 66/100/33 67/101/32 68/102/32
f 17/106/12 45/103/12 48/104/12
f 48/104/12 18/105/12 17/106/12
f 18/110/23 48/107/23 47/108/23
f 47/108/23 19/109/23 18/110/23
f 19/114/25 47/111/25 46/112/25
f 46/112/25 20/113/25 19/114/25
f 20/118/24 46/115/24 45/116/24
f 45/116/24 17/117/24 20/118/24
f 21/122/25 49/119/25 52/120/25
f 52/120/25 22/121/25 21/122/25
f 22/126/22 52/123/22 51/124/22
f 51/124/22 23/125/22 22/126/22
f 23/130/12 51/127/12 50/128/12
f 50/128/12 24/129/12 23/130/12
f 24/134/30 50/131/30 49/132/30
f 49/132/30 21/133/30 24/134/30
f 25/138/25 53/135/25 56/136/25
f 56/136/25 26/137/25 25/138/25
f 26/142/30 56/139/30 55/140/30
f 55/140/30 27/141/30 26/142/30
f 27/146/12 55/143/12 54/144/12
f 54/144/12 28/145/12 27/146/12
f 28/150/22 54/147/22 53/148/22
f 53/148/22 25/149/22 28/150/22
f 29/154/23 57/151/23 48/152/23
f 48/152/23 30/153/23 29/154/23
f 30/158/22 48/155/22 45/156/22
f 45/156/22 31/157/22 30/158/22
f 31/162/24 45/159/24 58/160/24
f 58/160/24 32/161/24 31/162/24
f 32/166/30 58/163/30 57/164/30
f 57/164/30 29/165/30 32/166/30
f 33/170/23 47/167/23 60/168/23
f 60/168/23 34/169/23 33/170/23
f 34/174/30 60/171/30 59/172/30
f 59/172/30 35/173/30 34/174/30
f 35/178/24 59/175/24 46/176/24
f 46/176/24 36/177/24 35/178/24
f 36/182/22 46/179/22 47/180/22
f 47/180/22 33/181/22 36/182/22
f 37/186/34 61/183/34 64/184/34
f 64/184/34 38/185/34 37/186/34
f 38/190/37 64/187/35 63/188/36
f 63/188/36 39/189/37 38/190/37
f 39/194/38 63/191/38 62/192/38
f 62/192/38 40/193/38 39/194/38
f 40/198/23 62/195/23 61/196/23
f 61/196/23 37/197/23 40/198/23
f 41/202/39 65/199/39 68/200/40
f 68/200/40 42/201/41 41/202/39
f 42/206/45 68/203/42 67/204/43
f 67/204/43 43/205/44 42/206/45
f 43/210/49 67/207/46 66/208/47
f 66/208/47 44/209/48 43/210/49
f 44/214/52 66/211/50 65/212/51
f 65/212/51 41/213/50 44/214/52
