# File produced by Open Asset Import Library (http://www.assimp.sf.net)
# (assimp v3.1.137539927)

mtllib flapleft.mtl

# vertex positions
v 0.015866 0.088176 0.023266
v -0.004330 0.085219 0.019143
v -0.005082 0.071061 0.023213
v 0.016181 0.074186 0.026883
v -0.030290 0.081125 0.010396
v -0.025668 0.084488 0.010142
v 0.015801 0.106553 0.009879
v -0.004913 0.095347 0.010040
v -0.012383 0.047745 0.010081
v -0.006480 0.057383 0.021796
v -0.025380 0.070558 0.010156
v 0.015962 0.035682 0.017703
v 0.015536 -0.000936 0.010522
v 0.016635 0.086855 0.020618
v 0.016635 0.074088 0.023829
v -0.004125 0.070858 0.020231
v -0.003425 0.083822 0.016580
v -0.028880 0.080829 0.007652
v -0.024634 0.083024 0.007680
v 0.016635 0.104781 0.007607
v -0.004011 0.093525 0.007832
v -0.010775 0.048816 0.007710
v -0.023529 0.071360 0.007877
v -0.005154 0.058210 0.019096
v 0.016635 0.036456 0.014839
v 0.016635 -0.000017 0.007886

# UV coordinates
vt 0.834672 0.652035
vt 0.687348 0.630463
vt 0.681865 0.527181
vt 0.836973 0.549977
vt 0.497980 0.600594
vt 0.531694 0.625127
vt 0.900296 0.661791
vt 0.899124 0.812893
vt 0.832717 0.808640
vt 0.802646 0.661315
vt 0.898377 0.964293
vt 0.628608 0.357099
vt 0.671671 0.427408
vt 0.533795 0.523517
vt 0.835374 0.269107
vt 0.832263 0.001992
vt 0.491137 0.132753
vt 0.491137 0.225889
vt 0.339699 0.249447
vt 0.344805 0.154881
vt 0.159119 0.176717
vt 0.190092 0.160699
vt 0.491137 0.001992
vt 0.340527 0.084104
vt 0.291186 0.410240
vt 0.198148 0.245785
vt 0.332188 0.341709
vt 0.491137 0.500399
vt 0.491137 0.766457
vt 0.024108 0.549263
vt 0.047531 0.642399
vt 0.028215 0.652035
vt 0.001830 0.549977
vt 0.916339 0.956747
vt 0.916538 0.987720
vt 0.896526 0.998008
vt 0.916872 0.655702
vt 0.915230 0.806312
vt 0.142442 0.773160
vt 0.125866 0.786085
vt 0.279460 0.418053
vt 0.184646 0.251635
vt 0.483115 0.773160
vt 0.140404 0.008696
vt 0.089686 0.274754
vt 0.068794 0.269107
vt 0.121178 0.001992
vt 0.148831 0.174558

# vertex normals
vn -0.255410 0.456018 0.852534
vn -0.284704 0.443006 0.850111
vn -0.248205 -0.033701 0.968121
vn -0.131707 -0.021801 0.991049
vn -0.452599 0.103400 0.885699
vn -0.346609 0.365610 0.863824
vn -0.277995 0.591090 0.757187
vn -0.287207 0.597815 0.748418
vn -0.412400 -0.321200 0.852500
vn -0.289886 -0.251388 0.923456
vn -0.557105 -0.172602 0.812307
vn -0.310109 -0.288008 0.906026
vn -0.367188 -0.308290 0.877571
vn 0.257306 -0.462211 -0.848620
vn 0.128697 0.024699 -0.991376
vn 0.241712 0.039402 -0.969548
vn 0.284408 -0.448313 -0.847424
vn 0.455273 -0.095194 -0.885248
vn 0.345900 -0.366100 -0.863900
vn 0.278312 -0.590625 -0.757432
vn 0.287495 -0.597590 -0.748487
vn 0.411679 0.319583 -0.853456
vn 0.558981 0.177894 -0.809873
vn 0.285096 0.252697 -0.924589
vn 0.311792 0.287292 -0.905676
vn 0.366604 0.306303 -0.878510
vn 0.982482 -0.018900 0.185397
vn 0.970783 0.120698 0.207396
vn 0.970540 0.122105 0.207709
vn 0.982471 -0.017499 0.185594
vn -0.376110 0.699618 -0.607516
vn -0.476294 0.740590 -0.473994
vn -0.379303 0.701106 -0.603805
vn -0.361309 0.653917 -0.664717
vn -0.358192 0.671785 -0.648385
vn -0.358194 0.671490 -0.648690
vn 0.963773 0.157996 0.214894
vn -0.692006 -0.378503 -0.614705
vn -0.704287 -0.400892 -0.585889
vn -0.705634 -0.401819 -0.583628
vn -0.694910 -0.379006 -0.611109
vn -0.722112 -0.413207 -0.554810
vn 0.955320 -0.061501 0.289106
vn 0.971100 -0.053500 0.232600
vn 0.970226 -0.054001 0.236106
vn -0.755282 -0.386391 -0.529387

# Mesh
g flap_left
usemtl flap_left
f 4/4/4 1/1/1 2/2/2 3/3/3
f 3/3/3 2/2/2 6/6/6 5/5/5
f 1/10/1 7/7/7 8/8/8 2/9/2
f 6/11/6 2/9/2 8/8/8
f 9/12/9 10/13/10 11/14/11
f 13/16/13 12/15/12 10/13/10 9/12/9
f 10/13/10 3/3/3 5/5/5 11/14/11
f 12/15/12 4/4/4 3/3/3 10/13/10
f 14/17/14 15/18/15 16/19/16 17/20/17
f 17/20/17 16/19/16 18/21/18 19/22/19
f 20/23/20 14/17/14 17/20/17 21/24/21
f 19/22/19 21/24/21 17/20/17
f 22/25/22 23/26/23 24/27/24
f 25/28/25 26/29/26 22/25/22 24/27/24
f 16/19/16 24/27/24 23/26/23 18/21/18
f 15/18/15 25/28/25 24/27/24 16/19/16
f 15/30/27 14/31/28 1/32/29 4/33/30
f 6/11/33 19/34/31 18/35/32 5/36/32
f 7/7/34 20/37/34 21/38/35 8/8/36
f 14/31/28 20/39/37 7/40/37 1/32/29
f 8/8/36 21/38/35 19/34/31 6/11/33
f 22/25/39 9/41/40 11/42/41 23/26/38
f 26/29/42 13/43/42 9/41/40 22/25/39
f 26/44/43 25/45/44 12/46/45 13/47/43
f 23/26/38 11/42/41 5/48/46 18/21/46
f 25/45/44 15/30/27 4/33/30 12/46/45
