# File produced by Open Asset Import Library (http://www.assimp.sf.net)
# (assimp v3.1.137539927)

mtllib puddle1.mtl

# vertex positions
v -46.574303 0.000000 8.608621
v -39.983521 0.000000 6.539110
v -38.964241 0.000000 0.561028
v -44.668812 0.000000 3.724827
v -33.614929 0.000000 4.815226
v -33.080639 0.000000 -1.922043
v -32.512379 0.000000 -8.886187
v -37.719898 0.000000 -5.388254
v -42.180126 0.000000 -0.724346
v -51.208908 0.000000 29.237843
v -42.829716 0.000000 30.532011
v -42.066231 0.000000 24.751392
v -50.340530 0.000000 25.012709
v -34.351650 0.000000 31.291679
v -34.202499 0.000000 24.420862
v -34.327782 0.000000 17.457584
v -41.103119 0.000000 18.651197
v -48.148178 0.000000 20.118252
v -21.423985 0.000000 16.886021
v -20.354141 0.000001 23.493544
v -13.200883 0.000000 23.194792
v -13.352568 0.000000 17.858040
v -19.992386 0.000001 30.062006
v -13.827326 0.000001 28.988623
v -8.286181 0.000000 28.623466
v -6.596962 0.000000 23.715862
v -5.623240 0.000000 19.526798
v -18.894030 0.000000 -9.470426
v -20.427681 0.000000 -2.679296
v -14.035174 0.000000 -0.704511
v -13.044058 0.000000 -7.725210
v -21.550808 0.000000 3.999803
v -14.535038 0.000000 6.025451
v -7.244449 0.000000 8.484246
v -7.880286 0.000000 1.880688
v -8.294607 0.000000 -5.062807
v -1.439204 0.000000 25.716970
v 0.018415 0.000000 21.692179
v -3.363799 0.000000 29.827787
v 1.249208 0.000000 31.816843
v 2.995475 0.000000 28.458094
v 4.616230 0.000000 24.105867
v -2.181839 0.000000 4.076280
v -4.679921 0.000000 -1.729504
v -0.280073 0.000000 10.000895
v 6.076927 0.000000 12.712492
v 3.288384 0.000000 6.743478
v -1.632616 0.000000 1.939249
v -27.159908 0.000000 23.951906
v -28.091896 0.000000 16.810863
v -26.786518 0.000001 30.982351
v -26.838978 0.000000 -3.043643
v -25.810280 0.000000 -10.052164
v -27.690733 0.000000 3.782593
v -40.552681 0.000000 12.574801
v -47.313435 0.000000 14.361660
v -34.081287 0.000000 11.098736
v -28.188606 0.000000 10.244261
v -21.852890 0.000000 10.454841
v -14.052395 0.000000 12.173946
v -6.165584 0.000000 14.407938
v 0.429070 0.000000 16.163174
v 6.377643 0.000000 17.679028
v -47.374500 0.000000 36.496834
v -42.326897 0.000000 40.435852
v -42.781288 0.000000 35.649673
v -50.293091 0.000000 32.986465
v -36.951607 0.000000 43.059940
v -35.421463 0.000000 37.373146
v -28.365606 0.000000 37.217159
v -21.687742 0.000001 36.375999
v -30.920937 0.000000 43.054142
v -24.411654 0.000000 42.562759
v -15.461885 0.000000 36.043964
v -9.890337 0.000000 35.897949
v -17.600502 0.000000 43.730057
v -11.451956 0.000000 44.355881
v -5.175392 0.000000 35.614864
v -0.888750 0.000000 35.263237
v -6.930485 0.000000 42.240070
v -3.222551 0.000000 38.753448
v -2.112856 -0.000000 -20.774961
v 2.281000 -0.000000 -22.154636
v 2.960522 -0.000000 -26.140026
v -0.842525 -0.000000 -24.030827
v 6.526727 -0.000000 -23.303894
v 6.882921 -0.000000 -27.795406
v 7.261761 -0.000000 -32.438168
v 3.790083 -0.000000 -30.106216
v 0.816597 -0.000000 -26.996941
v -5.202591 -0.000000 -7.022149
v 0.383537 -0.000000 -6.159370
v 0.892528 -0.000000 -10.013116
v -4.623671 -0.000000 -9.838904
v 6.035581 0.000000 -5.652925
v 6.135015 0.000000 -10.233468
v 6.051494 0.000000 -14.875656
v 1.534603 -0.000000 -14.079914
v -3.162104 -0.000000 -13.101875
v 14.654026 0.000000 -15.256697
v 15.367254 0.000000 -10.851683
v 20.136093 0.000000 -11.050850
v 20.034967 0.000000 -14.608685
v 15.608425 0.000001 -6.472707
v 19.718464 0.000000 -7.188294
v 23.412560 0.000000 -7.431733
v 24.538708 0.000000 -10.703470
v 25.187855 0.000000 -13.496180
v 16.340660 -0.000000 -32.827660
v 15.318228 -0.000000 -28.300243
v 19.579899 -0.000000 -26.983719
v 20.240641 -0.000000 -31.664185
v 14.569473 -0.000000 -23.847509
v 19.246655 -0.000000 -22.497076
v 24.107048 -0.000000 -20.857880
v 23.683159 -0.000000 -25.260254
v 23.406944 -0.000000 -29.889252
v 27.977215 -0.000000 -9.369397
v 28.948959 -0.000000 -12.052591
v 26.694149 -0.000000 -6.628853
v 29.769485 -0.000000 -5.302814
v 30.933662 -0.000000 -7.541981
v 32.014168 -0.000000 -10.443466
v 27.482124 -0.000000 -23.796524
v 25.816734 -0.000000 -27.667042
v 28.749966 -0.000000 -19.846781
v 32.987968 -0.000000 -18.039047
v 31.128933 -0.000000 -22.018393
v 27.848270 -0.000000 -25.221212
v 10.830076 0.000000 -10.546106
v 10.208750 0.000000 -15.306799
v 11.079002 0.000000 -5.859144
v 11.044029 -0.000000 -28.543137
v 11.729828 -0.000000 -33.215485
v 10.476192 -0.000000 -23.992317
v 1.901562 -0.000000 -18.130844
v -2.605608 -0.000000 -16.939606
v 6.215824 -0.000000 -19.114887
v 10.144278 -0.000000 -19.684536
v 14.368086 -0.000000 -19.544151
v 19.568417 -0.000000 -18.398077
v 24.826294 -0.000000 -16.908751
v 29.222729 -0.000000 -15.738594
v 33.188446 -0.000000 -14.728025
v -2.646319 -0.000000 -2.182822
v 0.718752 -0.000000 0.443192
v 0.415825 -0.000000 -2.747597
v -4.592049 -0.000000 -4.523068
v 4.302279 -0.000000 2.192581
v 5.322372 0.000000 -1.598613
v 10.026276 0.000000 -1.702605
v 14.478188 0.000000 -2.263378
v 8.322723 -0.000000 2.188721
v 12.662247 -0.000000 1.861127
v 18.628757 0.000000 -2.484735
v 22.343122 0.000000 -2.582076
v 17.203014 -0.000000 2.639324
v 21.302044 -0.000000 3.056540
v 25.486416 -0.000000 -2.770802
v 28.344181 -0.000000 -3.005220
v 24.316360 -0.000000 1.646003
v 26.788315 -0.000000 -0.678411

# UV coordinates
vt 0.133628 0.215829
vt 0.147533 0.194209
vt 0.169990 0.196427
vt 0.153029 0.213791
vt 0.159979 0.173047
vt 0.184685 0.177751
vt 0.210237 0.182556
vt 0.192565 0.197808
vt 0.171443 0.209232
vt 0.055034 0.212188
vt 0.058625 0.180843
vt 0.080122 0.183784
vt 0.071052 0.213224
vt 0.064231 0.149668
vt 0.089037 0.155886
vt 0.113905 0.163180
vt 0.102962 0.186323
vt 0.090773 0.210166
vt 0.128639 0.117430
vt 0.105976 0.107096
vt 0.114079 0.081716
vt 0.133083 0.087506
vt 0.082758 0.099342
vt 0.092669 0.078270
vt 0.099426 0.058742
vt 0.118699 0.057503
vt 0.134691 0.058125
vt 0.225719 0.134254
vt 0.199838 0.133084
vt 0.199034 0.108200
vt 0.225205 0.111543
vt 0.174763 0.130550
vt 0.174388 0.103379
vt 0.172729 0.074797
vt 0.195805 0.083569
vt 0.220318 0.091881
vt 0.116587 0.037025
vt 0.132464 0.035749
vt 0.099941 0.039892
vt 0.097337 0.021381
vt 0.111107 0.018415
vt 0.128321 0.016875
vt 0.193525 0.060960
vt 0.211907 0.075631
vt 0.174131 0.048311
vt 0.170647 0.022831
vt 0.189329 0.038705
vt 0.201735 0.061089
vt 0.097642 0.131071
vt 0.122355 0.141435
vt 0.072777 0.122821
vt 0.194845 0.156452
vt 0.221009 0.159648
vt 0.169508 0.152800
vt 0.125311 0.190320
vt 0.112254 0.212828
vt 0.136969 0.168545
vt 0.145828 0.148236
vt 0.151299 0.125290
vt 0.152796 0.095604
vt 0.152530 0.065103
vt 0.152712 0.039709
vt 0.153118 0.016870
vt 0.032751 0.191292
vt 0.023574 0.169304
vt 0.040305 0.175639
vt 0.042481 0.205217
vt 0.019440 0.147433
vt 0.041353 0.147531
vt 0.048848 0.122361
vt 0.058430 0.099221
vt 0.025388 0.125795
vt 0.033549 0.102916
vt 0.065741 0.077202
vt 0.071741 0.057350
vt 0.036054 0.077324
vt 0.039851 0.054641
vt 0.077391 0.040706
vt 0.082866 0.025667
vt 0.051888 0.040493
vt 0.068046 0.030612
vt 0.165466 0.462717
vt 0.174736 0.448304
vt 0.189707 0.449782
vt 0.178399 0.461358
vt 0.183033 0.434195
vt 0.199503 0.437332
vt 0.216539 0.440535
vt 0.204757 0.450703
vt 0.190675 0.458319
vt 0.113070 0.460290
vt 0.115464 0.439393
vt 0.129795 0.441354
vt 0.123748 0.460980
vt 0.119201 0.418610
vt 0.135739 0.422755
vt 0.152317 0.427617
vt 0.145022 0.443046
vt 0.136896 0.458942
vt 0.162140 0.397117
vt 0.147031 0.390228
vt 0.152433 0.373309
vt 0.165103 0.377168
vt 0.131552 0.385059
vt 0.138160 0.371011
vt 0.142664 0.357992
vt 0.155513 0.357166
vt 0.166174 0.357581
vt 0.226860 0.408334
vt 0.209606 0.407553
vt 0.209069 0.390964
vt 0.226517 0.393193
vt 0.192889 0.405864
vt 0.192639 0.387751
vt 0.191533 0.368696
vt 0.206917 0.374544
vt 0.223259 0.380085
vt 0.154105 0.343514
vt 0.164690 0.342664
vt 0.143008 0.345426
vt 0.141272 0.333085
vt 0.150452 0.331107
vt 0.161927 0.330081
vt 0.205397 0.359471
vt 0.217652 0.369252
vt 0.192468 0.351038
vt 0.190145 0.334052
vt 0.202600 0.344635
vt 0.210870 0.359557
vt 0.141475 0.406212
vt 0.157951 0.413121
vt 0.124898 0.400712
vt 0.206277 0.423132
vt 0.223720 0.425263
vt 0.189386 0.420697
vt 0.159921 0.445711
vt 0.151216 0.460716
vt 0.167693 0.431194
vt 0.173599 0.417655
vt 0.177246 0.402358
vt 0.178244 0.382567
vt 0.178067 0.362233
vt 0.178188 0.345304
vt 0.178459 0.330078
vt 0.098214 0.446359
vt 0.092097 0.431701
vt 0.103251 0.435924
vt 0.104701 0.455642
vt 0.089340 0.417120
vt 0.103949 0.417185
vt 0.108946 0.400405
vt 0.115334 0.384978
vt 0.093306 0.402694
vt 0.098746 0.387442
vt 0.120208 0.370299
vt 0.124208 0.357064
vt 0.100416 0.370380
vt 0.102948 0.355259
vt 0.127975 0.345968
vt 0.131625 0.335942
vt 0.110973 0.345827
vt 0.121744 0.339239

# vertex normals
vn 0.000000 1.000000 0.000000
vn -0.000000 1.000000 -0.000000
vn -0.000000 1.000000 -0.000000
vn -0.000000 1.000000 -0.000000
vn -0.000000 1.000000 -0.000000
vn -0.000000 1.000000 -0.000000
vn -0.000000 1.000000 -0.000000
vn -0.000000 1.000000 -0.000000
vn -0.000000 1.000000 -0.000000
vn 0.000000 1.000000 -0.000000
vn 0.000000 1.000000 -0.000000
vn 0.000000 1.000000 0.000000
vn 0.000000 1.000000 0.000000
vn 0.000000 1.000000 0.000000
vn 0.000000 1.000000 -0.000000
vn 0.000000 1.000000 -0.000000
vn 0.000000 1.000000 -0.000000
vn 0.000000 1.000000 -0.000000
vn 0.000000 1.000000 0.000000
vn -0.000000 1.000000 -0.000000
vn -0.000000 1.000000 -0.000000
vn -0.000000 1.000000 -0.000000
vn -0.000000 1.000000 -0.000000
vn -0.000000 1.000000 -0.000000
vn -0.000000 1.000000 -0.000000
vn 0.000000 1.000000 -0.000000
vn 0.000000 1.000000 -0.000000
vn 0.000000 1.000000 -0.000000
vn 0.000000 1.000000 -0.000000
vn -0.000000 1.000000 0.000000
vn -0.000000 1.000000 0.000000
vn -0.000000 1.000000 0.000000
vn -0.000000 1.000000 0.000000
vn -0.000000 1.000000 0.000000
vn 0.000000 1.000000 0.000000
vn -0.000000 1.000000 0.000000
vn 0.000000 1.000000 0.000000
vn 0.000000 1.000000 0.000000
vn 0.000000 1.000000 0.000000
vn 0.000000 1.000000 0.000000
vn 0.000000 1.000000 0.000000
vn 0.000000 1.000000 0.000000
vn 0.000000 1.000000 0.000000
vn -0.000000 1.000000 -0.000000
vn 0.000000 1.000000 0.000000
vn 0.000000 1.000000 0.000000
vn 0.000000 1.000000 -0.000000
vn -0.000000 1.000000 -0.000000
vn -0.000000 1.000000 -0.000000
vn 0.000000 1.000000 -0.000000
vn -0.000000 1.000000 0.000000
vn 0.000000 1.000000 0.000000
vn 0.000000 1.000000 0.000000
vn 0.000000 1.000000 0.000000

# Mesh
g Spill2
usemtl puddle
f 4/4/1 1/1/1 2/2/1
f 2/2/1 3/3/1 4/4/1
f 3/3/1 2/2/1 5/5/1
f 5/5/1 6/6/1 3/3/1
f 8/8/1 3/3/1 6/6/1
f 6/6/1 7/7/1 8/8/1
f 9/9/1 4/4/1 3/3/1
f 3/3/1 8/8/1 9/9/1
f 13/13/1 10/10/1 11/11/2
f 11/11/2 12/12/3 13/13/1
f 12/12/3 11/11/2 14/14/4
f 14/14/4 15/15/5 12/12/3
f 17/17/7 12/12/3 15/15/5
f 15/15/5 16/16/6 17/17/7
f 18/18/1 13/13/1 12/12/3
f 12/12/3 17/17/7 18/18/1
f 22/22/11 19/19/8 20/20/9
f 20/20/9 21/21/10 22/22/11
f 21/21/10 20/20/9 23/23/12
f 23/23/12 24/24/13 21/21/10
f 26/26/15 21/21/10 24/24/13
f 24/24/13 25/25/14 26/26/15
f 27/27/16 22/22/11 21/21/10
f 21/21/10 26/26/15 27/27/16
f 31/31/1 28/28/1 29/29/1
f 29/29/1 30/30/1 31/31/1
f 30/30/1 29/29/1 32/32/1
f 32/32/1 33/33/1 30/30/1
f 35/35/1 30/30/1 33/33/1
f 33/33/1 34/34/1 35/35/1
f 36/36/1 31/31/1 30/30/1
f 30/30/1 35/35/1 36/36/1
f 38/38/18 27/27/16 26/26/15
f 26/26/15 37/37/17 38/38/18
f 37/37/17 26/26/15 25/25/14
f 25/25/14 39/39/19 37/37/17
f 41/41/1 37/37/17 39/39/19
f 39/39/19 40/40/1 41/41/1
f 42/42/1 38/38/18 37/37/17
f 37/37/17 41/41/1 42/42/1
f 44/44/1 36/36/1 35/35/1
f 35/35/1 43/43/1 44/44/1
f 43/43/1 35/35/1 34/34/1
f 34/34/1 45/45/1 43/43/1
f 47/47/1 43/43/1 45/45/1
f 45/45/1 46/46/1 47/47/1
f 48/48/1 44/44/1 43/43/1
f 43/43/1 47/47/1 48/48/1
f 50/50/21 16/16/6 15/15/5
f 15/15/5 49/49/20 50/50/21
f 49/49/20 15/15/5 14/14/4
f 14/14/4 51/51/22 49/49/20
f 20/20/9 49/49/20 51/51/22
f 51/51/22 23/23/12 20/20/9
f 19/19/8 50/50/21 49/49/20
f 49/49/20 20/20/9 19/19/8
f 53/53/1 7/7/1 6/6/1
f 6/6/1 52/52/1 53/53/1
f 52/52/1 6/6/1 5/5/1
f 5/5/1 54/54/1 52/52/1
f 29/29/1 52/52/1 54/54/1
f 54/54/1 32/32/1 29/29/1
f 28/28/1 53/53/1 52/52/1
f 52/52/1 29/29/1 28/28/1
f 56/56/1 18/18/1 17/17/7
f 17/17/7 55/55/23 56/56/1
f 55/55/23 17/17/7 16/16/6
f 16/16/6 57/57/24 55/55/23
f 2/2/1 55/55/23 57/57/24
f 57/57/24 5/5/1 2/2/1
f 1/1/1 56/56/1 55/55/23
f 55/55/23 2/2/1 1/1/1
f 59/59/26 32/32/1 54/54/1
f 54/54/1 58/58/25 59/59/26
f 58/58/25 54/54/1 5/5/1
f 5/5/1 57/57/24 58/58/25
f 50/50/21 58/58/25 57/57/24
f 57/57/24 16/16/6 50/50/21
f 19/19/8 59/59/26 58/58/25
f 58/58/25 50/50/21 19/19/8
f 61/61/28 34/34/1 33/33/1
f 33/33/1 60/60/27 61/61/28
f 60/60/27 33/33/1 32/32/1
f 32/32/1 59/59/26 60/60/27
f 22/22/11 60/60/27 59/59/26
f 59/59/26 19/19/8 22/22/11
f 27/27/16 61/61/28 60/60/27
f 60/60/27 22/22/11 27/27/16
f 63/63/1 46/46/1 45/45/1
f 45/45/1 62/62/29 63/63/1
f 62/62/29 45/45/1 34/34/1
f 34/34/1 61/61/28 62/62/29
f 38/38/18 62/62/29 61/61/28
f 61/61/28 27/27/16 38/38/18
f 42/42/1 63/63/1 62/62/29
f 62/62/29 38/38/18 42/42/1
f 67/67/1 64/64/1 65/65/30
f 65/65/30 66/66/31 67/67/1
f 66/66/31 65/65/30 68/68/32
f 68/68/32 69/69/33 66/66/31
f 11/11/2 66/66/31 69/69/33
f 69/69/33 14/14/4 11/11/2
f 10/10/1 67/67/1 66/66/31
f 66/66/31 11/11/2 10/10/1
f 71/71/35 23/23/12 51/51/22
f 51/51/22 70/70/34 71/71/35
f 70/70/34 51/51/22 14/14/4
f 14/14/4 69/69/33 70/70/34
f 72/72/36 70/70/34 69/69/33
f 69/69/33 68/68/32 72/72/36
f 73/73/37 71/71/35 70/70/34
f 70/70/34 72/72/36 73/73/37
f 75/75/39 25/25/14 24/24/13
f 24/24/13 74/74/38 75/75/39
f 74/74/38 24/24/13 23/23/12
f 23/23/12 71/71/35 74/74/38
f 76/76/40 74/74/38 71/71/35
f 71/71/35 73/73/37 76/76/40
f 77/77/41 75/75/39 74/74/38
f 74/74/38 76/76/40 77/77/41
f 79/79/1 40/40/1 39/39/19
f 39/39/19 78/78/42 79/79/1
f 78/78/42 39/39/19 25/25/14
f 25/25/14 75/75/39 78/78/42
f 80/80/43 78/78/42 75/75/39
f 75/75/39 77/77/41 80/80/43
f 81/81/1 79/79/1 78/78/42
f 78/78/42 80/80/43 81/81/1

# Mesh
g Spill1
usemtl puddle
f 85/85/1 82/82/1 83/83/1
f 83/83/1 84/84/1 85/85/1
f 84/84/1 83/83/1 86/86/1
f 86/86/1 87/87/1 84/84/1
f 89/89/1 84/84/1 87/87/1
f 87/87/1 88/88/1 89/89/1
f 90/90/1 85/85/1 84/84/1
f 84/84/1 89/89/1 90/90/1
f 94/94/1 91/91/1 92/92/44
f 92/92/44 93/93/3 94/94/1
f 93/93/3 92/92/44 95/95/4
f 95/95/4 96/96/5 93/93/3
f 98/98/7 93/93/3 96/96/5
f 96/96/5 97/97/6 98/98/7
f 99/99/1 94/94/1 93/93/3
f 93/93/3 98/98/7 99/99/1
f 103/103/11 100/100/8 101/101/9
f 101/101/9 102/102/10 103/103/11
f 102/102/10 101/101/9 104/104/45
f 104/104/45 105/105/46 102/102/10
f 107/107/47 102/102/10 105/105/46
f 105/105/46 106/106/14 107/107/47
f 108/108/16 103/103/11 102/102/10
f 102/102/10 107/107/47 108/108/16
f 112/112/1 109/109/1 110/110/1
f 110/110/1 111/111/1 112/112/1
f 111/111/1 110/110/1 113/113/1
f 113/113/1 114/114/1 111/111/1
f 116/116/1 111/111/1 114/114/1
f 114/114/1 115/115/1 116/116/1
f 117/117/1 112/112/1 111/111/1
f 111/111/1 116/116/1 117/117/1
f 119/119/18 108/108/16 107/107/47
f 107/107/47 118/118/17 119/119/18
f 118/118/17 107/107/47 106/106/14
f 106/106/14 120/120/19 118/118/17
f 122/122/1 118/118/17 120/120/19
f 120/120/19 121/121/1 122/122/1
f 123/123/1 119/119/18 118/118/17
f 118/118/17 122/122/1 123/123/1
f 125/125/1 117/117/1 116/116/1
f 116/116/1 124/124/1 125/125/1
f 124/124/1 116/116/1 115/115/1
f 115/115/1 126/126/1 124/124/1
f 128/128/1 124/124/1 126/126/1
f 126/126/1 127/127/1 128/128/1
f 129/129/1 125/125/1 124/124/1
f 124/124/1 128/128/1 129/129/1
f 131/131/21 97/97/6 96/96/5
f 96/96/5 130/130/20 131/131/21
f 130/130/20 96/96/5 95/95/4
f 95/95/4 132/132/22 130/130/20
f 101/101/9 130/130/20 132/132/22
f 132/132/22 104/104/45 101/101/9
f 100/100/8 131/131/21 130/130/20
f 130/130/20 101/101/9 100/100/8
f 134/134/1 88/88/1 87/87/1
f 87/87/1 133/133/1 134/134/1
f 133/133/1 87/87/1 86/86/1
f 86/86/1 135/135/1 133/133/1
f 110/110/1 133/133/1 135/135/1
f 135/135/1 113/113/1 110/110/1
f 109/109/1 134/134/1 133/133/1
f 133/133/1 110/110/1 109/109/1
f 137/137/1 99/99/1 98/98/7
f 98/98/7 136/136/23 137/137/1
f 136/136/23 98/98/7 97/97/6
f 97/97/6 138/138/48 136/136/23
f 83/83/1 136/136/23 138/138/48
f 138/138/48 86/86/1 83/83/1
f 82/82/1 137/137/1 136/136/23
f 136/136/23 83/83/1 82/82/1
f 140/140/26 113/113/1 135/135/1
f 135/135/1 139/139/49 140/140/26
f 139/139/49 135/135/1 86/86/1
f 86/86/1 138/138/48 139/139/49
f 131/131/21 139/139/49 138/138/48
f 138/138/48 97/97/6 131/131/21
f 100/100/8 140/140/26 139/139/49
f 139/139/49 131/131/21 100/100/8
f 142/142/28 115/115/1 114/114/1
f 114/114/1 141/141/27 142/142/28
f 141/141/27 114/114/1 113/113/1
f 113/113/1 140/140/26 141/141/27
f 103/103/11 141/141/27 140/140/26
f 140/140/26 100/100/8 103/103/11
f 108/108/16 142/142/28 141/141/27
f 141/141/27 103/103/11 108/108/16
f 144/144/1 127/127/1 126/126/1
f 126/126/1 143/143/50 144/144/1
f 143/143/50 126/126/1 115/115/1
f 115/115/1 142/142/28 143/143/50
f 119/119/18 143/143/50 142/142/28
f 142/142/28 108/108/16 119/119/18
f 123/123/1 144/144/1 143/143/50
f 143/143/50 119/119/18 123/123/1
f 148/148/1 145/145/1 146/146/30
f 146/146/30 147/147/51 148/148/1
f 147/147/51 146/146/30 149/149/32
f 149/149/32 150/150/33 147/147/51
f 92/92/44 147/147/51 150/150/33
f 150/150/33 95/95/4 92/92/44
f 91/91/1 148/148/1 147/147/51
f 147/147/51 92/92/44 91/91/1
f 152/152/35 104/104/45 132/132/22
f 132/132/22 151/151/34 152/152/35
f 151/151/34 132/132/22 95/95/4
f 95/95/4 150/150/33 151/151/34
f 153/153/36 151/151/34 150/150/33
f 150/150/33 149/149/32 153/153/36
f 154/154/37 152/152/35 151/151/34
f 151/151/34 153/153/36 154/154/37
f 156/156/39 106/106/14 105/105/46
f 105/105/46 155/155/52 156/156/39
f 155/155/52 105/105/46 104/104/45
f 104/104/45 152/152/35 155/155/52
f 157/157/40 155/155/52 152/152/35
f 152/152/35 154/154/37 157/157/40
f 158/158/53 156/156/39 155/155/52
f 155/155/52 157/157/40 158/158/53
f 160/160/1 121/121/1 120/120/19
f 120/120/19 159/159/54 160/160/1
f 159/159/54 120/120/19 106/106/14
f 106/106/14 156/156/39 159/159/54
f 161/161/43 159/159/54 156/156/39
f 156/156/39 158/158/53 161/161/43
f 162/162/1 160/160/1 159/159/54
f 159/159/54 161/161/43 162/162/1
