# File produced by Open Asset Import Library (http://www.assimp.sf.net)
# (assimp v3.1.151885474)

mtllib Wheel1.mtl

# vertex positions
v 0.000000 1.725176 -0.746010
v -0.660197 1.593855 -0.746010
v -0.660197 1.593855 0.412646
v 0.000000 1.725176 0.412646
v -1.219883 1.219883 -0.746010
v -1.219883 1.219883 0.412646
v -1.593855 0.660196 -0.746010
v -1.593855 0.660196 0.412646
v -1.725175 0.000000 -0.746011
v -1.725175 0.000000 0.412646
v -1.593855 -0.660196 -0.746011
v -1.593855 -0.660196 0.412646
v -1.219883 -1.219883 -0.746011
v -1.219883 -1.219883 0.412646
v -0.660197 -1.593854 -0.746011
v -0.660197 -1.593854 0.412646
v 0.000000 -1.725175 -0.746011
v 0.000000 -1.725175 0.412646
v 0.660197 -1.593854 -0.746011
v 0.660197 -1.593854 0.412646
v 1.219883 -1.219883 -0.746011
v 1.219883 -1.219883 0.412646
v 1.593855 -0.660196 -0.746011
v 1.593855 -0.660196 0.412646
v 1.725175 0.000000 -0.746011
v 1.725175 0.000000 0.412646
v 1.593853 0.660197 -0.746010
v 1.593853 0.660197 0.412646
v 1.219883 1.219883 -0.746010
v 1.219883 1.219883 0.412646
v -0.268402 -0.111176 0.412646
v -0.268402 -0.111176 0.746010
v -0.290516 0.000000 0.746010
v -0.290516 0.000000 0.412646
v 0.660197 1.593855 -0.746010
v 0.660197 1.593855 0.412646
v 0.000000 0.000000 -0.746010
v -0.111177 0.268402 0.412646
v 0.000000 0.290516 0.412646
v 0.111175 0.268402 0.412646
v 0.205425 0.205426 0.412646
v 0.268402 0.111176 0.412646
v 0.290516 0.000000 0.412646
v 0.268402 -0.111176 0.412646
v 0.205425 -0.205425 0.412646
v 0.111175 -0.268402 0.412646
v 0.000000 -0.290516 0.412646
v -0.111177 -0.268402 0.412646
v -0.205426 -0.205425 0.412646
v -0.268402 0.111176 0.412646
v -0.205426 0.205426 0.412646
v 0.000000 -0.000001 0.746009
v -0.205426 -0.205425 0.746010
v -0.111177 -0.268402 0.746010
v 0.290516 0.000000 0.746010
v 0.268402 -0.111176 0.746010
v -0.268402 0.111176 0.746010
v 0.205425 -0.205425 0.746010
v -0.111177 0.268402 0.746010
v 0.000000 0.290516 0.746010
v -0.205426 0.205426 0.746010
v 0.111175 -0.268402 0.746010
v 0.000000 -0.290516 0.746010
v 0.111175 0.268402 0.746010
v 0.205425 0.205426 0.746010
v 0.268402 0.111176 0.746010

# UV coordinates
vt 0.036616 0.963558
vt 0.036616 0.982196
vt 0.003906 0.982196
vt 0.003906 0.963558
vt 0.360944 0.966709
vt 0.360944 0.954940
vt 0.397407 0.954940
vt 0.397407 0.966709
vt 0.360944 0.937327
vt 0.397407 0.937327
vt 0.360944 0.916550
vt 0.397407 0.916550
vt 0.360944 0.895774
vt 0.397407 0.895774
vt 0.360944 0.878160
vt 0.397407 0.878160
vt 0.360944 0.866392
vt 0.397407 0.866392
vt 0.774492 0.959619
vt 0.774492 0.940982
vt 0.807202 0.940982
vt 0.807202 0.959619
vt 0.774492 0.922343
vt 0.807202 0.922343
vt 0.250996 0.862475
vt 0.250996 0.874244
vt 0.214533 0.874244
vt 0.214533 0.862475
vt 0.250996 0.891857
vt 0.214533 0.891857
vt 0.250996 0.912633
vt 0.214533 0.912633
vt 0.250996 0.933410
vt 0.214533 0.933410
vt 0.250996 0.951023
vt 0.214533 0.951023
vt 0.186278 0.142879
vt 0.196769 0.142879
vt 0.196769 0.146377
vt 0.186278 0.146377
vt 0.250996 0.962792
vt 0.214533 0.962792
vt 0.036616 0.944920
vt 0.003906 0.944920
vt 0.062945 0.336445
vt 0.089742 0.296341
vt 0.080332 0.343647
vt 0.003906 0.877930
vt 0.043246 0.885755
vt 0.043246 0.888924
vt 0.003906 0.896749
vt 0.044459 0.891852
vt 0.011108 0.914136
vt 0.046700 0.894093
vt 0.024416 0.927444
vt 0.049628 0.895306
vt 0.041803 0.934646
vt 0.052797 0.895306
vt 0.060623 0.934646
vt 0.055725 0.894093
vt 0.078010 0.927444
vt 0.057966 0.891852
vt 0.091317 0.914136
vt 0.059179 0.888924
vt 0.098519 0.896749
vt 0.059179 0.885755
vt 0.098519 0.877929
vt 0.057966 0.882827
vt 0.091317 0.860542
vt 0.055725 0.880586
vt 0.078010 0.847235
vt 0.052797 0.879373
vt 0.060622 0.840033
vt 0.049628 0.879373
vt 0.041803 0.840033
vt 0.046700 0.880586
vt 0.024416 0.847235
vt 0.044459 0.882827
vt 0.011108 0.860542
vt 0.987948 0.090494
vt 0.986363 0.082527
vt 0.989532 0.082527
vt 0.990473 0.117181
vt 0.979982 0.117181
vt 0.979982 0.113682
vt 0.990473 0.113682
vt 0.196769 0.149876
vt 0.186278 0.149876
vt 0.979982 0.110716
vt 0.990473 0.110716
vt 0.186278 0.174510
vt 0.186278 0.165098
vt 0.189417 0.165098
vt 0.189417 0.174510
vt 0.196769 0.152842
vt 0.186278 0.152842
vt 0.979982 0.108734
vt 0.990473 0.108734
vt 0.196769 0.154824
vt 0.186278 0.154824
vt 0.765358 0.170772
vt 0.765358 0.180184
vt 0.762219 0.180184
vt 0.762219 0.170772
vt 0.192555 0.165098
vt 0.192555 0.174510
vt 0.759080 0.180184
vt 0.759080 0.170772
vt 0.990473 0.125628
vt 0.979982 0.125628
vt 0.979982 0.123646
vt 0.990473 0.123646
vt 0.186278 0.137931
vt 0.196769 0.137931
vt 0.196769 0.139913
vt 0.186278 0.139913
vt 0.979982 0.120680
vt 0.990473 0.120680
vt 0.994701 0.085981
vt 0.992460 0.083740
vt 0.995914 0.088909
vt 0.981194 0.095006
vt 0.983435 0.097247
vt 0.995914 0.092078
vt 0.979982 0.092078
vt 0.994701 0.095006
vt 0.979982 0.088909
vt 0.992460 0.097247
vt 0.981194 0.085981
vt 0.989532 0.098460
vt 0.983435 0.083740
vt 0.986363 0.098460
vt 0.099152 0.343647
vt 0.049638 0.323138
vt 0.099152 0.249034
vt 0.116539 0.256236
vt 0.042436 0.305751
vt 0.129846 0.269544
vt 0.042436 0.286931
vt 0.137048 0.286931
vt 0.049638 0.269544
vt 0.137048 0.305751
vt 0.062945 0.256236
vt 0.129846 0.323138
vt 0.080332 0.249034
vt 0.116539 0.336445

# vertex normals
vn -0.195090 0.980785 0.000000
vn -0.555571 0.831469 0.000000
vn -0.831469 0.555571 0.000000
vn -0.980785 0.195090 0.000000
vn -0.980785 -0.195090 0.000000
vn -0.831470 -0.555570 0.000000
vn -0.555570 -0.831470 0.000000
vn -0.195090 -0.980785 0.000000
vn 0.195090 -0.980785 0.000000
vn 0.555570 -0.831470 0.000000
vn 0.831469 -0.555571 0.000000
vn 0.980785 -0.195090 0.000000
vn 0.980785 0.195090 0.000000
vn 0.831470 0.555570 0.000000
vn -0.980786 -0.195089 0.000000
vn 0.555570 0.831470 0.000000
vn 0.195090 0.980785 0.000000
vn 0.000000 0.000000 -1.000000
vn 0.000000 0.000000 -1.000000
vn 0.000000 0.000000 1.000000
vn 0.000000 0.000001 1.000000
vn 0.000000 0.000000 1.000000
vn -0.000000 0.000000 1.000000
vn 0.000000 0.000000 1.000000
vn 0.980785 -0.195091 0.000000
vn -0.980785 0.195091 0.000000
vn 0.831469 -0.555572 0.000000
vn -0.195090 0.980785 0.000000
vn -0.831469 0.555572 -0.000000
vn 0.555571 -0.831469 0.000000
vn -0.555574 0.831467 0.000000
vn 0.195090 -0.980785 0.000000
vn 0.195091 0.980785 0.000000
vn -0.195089 -0.980785 0.000000
vn 0.555573 0.831468 0.000000
vn -0.555572 -0.831468 0.000000
vn -0.831467 -0.555574 0.000000
vn 0.980785 0.195094 0.000000

# Mesh
g Wheel1
usemtl Train
f 4/4/1 1/1/1 2/2/1 3/3/1
f 3/8/2 2/5/2 5/6/2 6/7/2
f 6/7/3 5/6/3 7/9/3 8/10/3
f 8/10/4 7/9/4 9/11/4 10/12/4
f 11/13/5 12/14/5 10/12/5 9/11/5
f 13/15/6 14/16/6 12/14/6 11/13/6
f 15/17/7 16/18/7 14/16/7 13/15/7
f 17/20/8 18/21/8 16/22/8 15/19/8
f 19/23/9 20/24/9 18/21/9 17/20/9
f 21/26/10 22/27/10 20/28/10 19/25/10
f 23/29/11 24/30/11 22/27/11 21/26/11
f 25/31/12 26/32/12 24/30/12 23/29/12
f 26/32/13 25/31/13 27/33/13 28/34/13
f 28/34/14 27/33/14 29/35/14 30/36/14
f 31/37/15 32/38/15 33/39/15 34/40/15
f 30/36/16 29/35/16 35/41/16 36/42/16
f 36/44/17 35/43/17 1/1/17 4/4/17
f 15/45/18 37/46/19 17/47/18
f 39/50/20 4/51/20 3/48/20 38/49/20
f 40/52/20 36/53/20 4/51/20 39/50/20
f 30/55/20 36/53/20 40/52/20 41/54/20
f 28/57/21 30/55/20 41/54/21 42/56/21
f 26/59/20 28/57/21 42/56/21 43/58/20
f 24/61/20 26/59/20 43/58/20 44/60/20
f 22/63/20 24/61/20 44/60/20 45/62/20
f 20/65/20 22/63/20 45/62/20 46/64/20
f 20/65/20 46/64/20 47/66/22 18/67/22
f 18/67/22 47/66/22 48/68/20 16/69/20
f 48/68/20 49/70/20 14/71/20 16/69/20
f 49/70/20 31/72/20 12/73/20 14/71/20
f 31/72/20 34/74/20 10/75/20 12/73/20
f 34/74/20 50/76/20 8/77/20 10/75/20
f 50/76/20 51/78/20 6/79/20 8/77/20
f 51/78/20 38/49/20 3/48/20 6/79/20
f 52/80/23 53/81/24 54/82/24
f 43/83/25 55/84/25 56/85/25 44/86/25
f 57/87/26 50/88/26 34/40/26 33/39/26
f 44/86/27 56/85/27 58/89/27 45/90/27
f 60/93/28 39/94/28 38/91/28 59/92/28
f 61/95/29 51/96/29 50/88/29 57/87/29
f 45/90/30 58/89/30 62/97/30 46/98/30
f 59/99/31 38/100/31 51/96/31 61/95/31
f 46/101/32 62/102/32 63/103/32 47/104/32
f 64/105/33 40/106/33 39/94/33 60/93/33
f 47/104/34 63/103/34 54/107/34 48/108/34
f 65/111/35 41/112/35 40/109/35 64/110/35
f 48/113/36 54/114/36 53/115/36 49/116/36
f 66/117/14 42/118/14 41/112/14 65/111/14
f 49/116/37 53/115/37 32/38/37 31/37/37
f 55/84/38 43/83/38 42/118/38 66/117/38
f 62/119/24 52/80/23 63/120/24
f 58/121/24 52/80/23 62/119/24
f 59/122/24 52/80/23 60/123/24
f 56/124/24 52/80/23 58/121/24
f 59/122/24 61/125/24 52/80/23
f 55/126/24 52/80/23 56/124/24
f 52/80/23 61/125/24 57/127/24
f 66/128/24 52/80/23 55/126/24
f 52/80/23 57/127/24 33/129/24
f 65/130/24 52/80/23 66/128/24
f 52/80/23 33/129/24 32/131/24
f 64/132/24 52/80/23 65/130/24
f 52/80/23 32/131/24 53/81/24
f 60/123/24 52/80/23 64/132/24
f 52/80/23 54/82/24 63/120/24
f 37/46/19 19/133/18 17/47/18
f 13/134/18 37/46/19 15/45/18
f 1/135/18 35/136/18 37/46/19
f 11/137/18 37/46/19 13/134/18
f 37/46/19 35/136/18 29/138/18
f 9/139/18 37/46/19 11/137/18
f 37/46/19 29/138/18 27/140/18
f 7/141/18 37/46/19 9/139/18
f 37/46/19 27/140/18 25/142/18
f 5/143/18 37/46/19 7/141/18
f 37/46/19 25/142/18 23/144/18
f 2/145/18 37/46/19 5/143/18
f 37/46/19 23/144/18 21/146/18
f 1/135/18 37/46/19 2/145/18
f 37/46/19 21/146/18 19/133/18
