# File produced by Open Asset Import Library (http://www.assimp.sf.net)
# (assimp v3.1.151885474)

mtllib Carryon.mtl

# vertex positions
v 0.000002 2.740824 2.740824
v -1.048866 2.740824 2.532191
v -1.048866 -2.740824 2.532191
v 0.000002 -2.740824 2.740824
v -1.938054 2.740824 1.938055
v -1.938054 -2.740824 1.938055
v -2.532190 2.740824 1.048868
v -2.532190 -2.740824 1.048868
v -2.740823 2.740824 -0.000000
v -2.740823 -2.740824 -0.000000
v -2.532190 2.740824 -1.048868
v -2.532190 -2.740824 -1.048868
v -1.938054 2.740824 -1.938055
v -1.938054 -2.740824 -1.938055
v -1.048866 2.740824 -2.532191
v -1.048866 -2.740824 -2.532191
v 0.000002 2.740824 -2.740824
v 0.000002 -2.740824 -2.740824
v 1.048870 2.740824 -2.532191
v 1.048870 -2.740824 -2.532191
v 1.938058 2.740824 -1.938056
v 1.938058 -2.740824 -1.938056
v 2.532193 2.740824 -1.048868
v 2.532193 -2.740824 -1.048868
v 2.740823 2.740824 0.000000
v 2.740823 -2.740824 0.000000
v 2.532193 2.740824 1.048869
v 2.532193 -2.740824 1.048869
v 1.938058 2.740824 1.938055
v 1.938058 -2.740824 1.938055
v 0.000000 -2.740824 -0.000000
v 1.048870 2.740824 2.532192
v 1.048870 -2.740824 2.532192
v 0.000000 2.740824 -0.000000

# UV coordinates
vt 0.572927 0.350382
vt 0.543316 0.350382
vt 0.543316 0.195630
vt 0.572927 0.195630
vt 0.330243 0.852200
vt 0.311546 0.852200
vt 0.311546 0.679692
vt 0.330243 0.679692
vt 0.283563 0.852200
vt 0.283563 0.679692
vt 0.250555 0.852200
vt 0.250555 0.679692
vt 0.217547 0.852200
vt 0.217547 0.679692
vt 0.189564 0.852200
vt 0.189564 0.679692
vt 0.170867 0.852200
vt 0.170867 0.679692
vt 0.068122 0.056427
vt 0.097732 0.056427
vt 0.097732 0.211180
vt 0.068122 0.211180
vt 0.127343 0.056427
vt 0.127343 0.211180
vt 0.502341 0.856117
vt 0.483643 0.856117
vt 0.483643 0.683609
vt 0.502341 0.683609
vt 0.455660 0.856117
vt 0.455660 0.683609
vt 0.422652 0.856117
vt 0.422652 0.683609
vt 0.389644 0.856117
vt 0.389644 0.683609
vt 0.361662 0.856117
vt 0.361662 0.683609
vt 0.876810 0.303366
vt 0.834237 0.239651
vt 0.897952 0.282224
vt 0.342964 0.856117
vt 0.342964 0.683609
vt 0.602537 0.350382
vt 0.602537 0.195630
vt 0.819287 0.003906
vt 0.834237 0.079063
vt 0.791664 0.015348
vt 0.849187 0.003906
vt 0.876810 0.015348
vt 0.819287 0.154220
vt 0.849187 0.154220
vt 0.897952 0.036490
vt 0.791664 0.142778
vt 0.909394 0.064113
vt 0.770522 0.121636
vt 0.909394 0.094013
vt 0.759080 0.094013
vt 0.897952 0.121636
vt 0.759080 0.064113
vt 0.876810 0.142778
vt 0.770522 0.036490
vt 0.819287 0.314808
vt 0.849187 0.314808
vt 0.791664 0.303366
vt 0.849187 0.164494
vt 0.819287 0.164494
vt 0.770522 0.282224
vt 0.876810 0.175936
vt 0.759080 0.254600
vt 0.897952 0.197078
vt 0.759080 0.224701
vt 0.909394 0.224701
vt 0.770522 0.197078
vt 0.909394 0.254601
vt 0.791664 0.175936

# vertex normals
vn -0.195090 0.000000 0.980785
vn -0.555570 0.000000 0.831470
vn -0.831469 0.000000 0.555570
vn -0.980785 0.000000 0.195090
vn -0.980785 0.000000 -0.195091
vn -0.831469 0.000000 -0.555570
vn -0.555570 0.000000 -0.831470
vn -0.195090 0.000000 -0.980785
vn 0.195090 0.000000 -0.980785
vn 0.555570 0.000000 -0.831470
vn 0.831470 0.000000 -0.555570
vn 0.980786 0.000000 -0.195087
vn 0.980786 0.000000 0.195087
vn 0.831469 0.000000 0.555570
vn 0.000000 -1.000000 0.000000
vn 0.000000 -1.000000 -0.000000
vn 0.555570 0.000000 0.831469
vn 0.195090 0.000000 0.980785
vn 0.000000 1.000000 0.000000
vn 0.000000 1.000000 -0.000000

# Mesh
g Carryon
usemtl Train
f 4/4/1 1/1/1 2/2/1 3/3/1
f 3/8/2 2/5/2 5/6/2 6/7/2
f 6/7/3 5/6/3 7/9/3 8/10/3
f 8/10/4 7/9/4 9/11/4 10/12/4
f 11/13/5 12/14/5 10/12/5 9/11/5
f 13/15/6 14/16/6 12/14/6 11/13/6
f 15/17/7 16/18/7 14/16/7 13/15/7
f 17/20/8 18/21/8 16/22/8 15/19/8
f 19/23/9 20/24/9 18/21/9 17/20/9
f 21/26/10 22/27/10 20/28/10 19/25/10
f 23/29/11 24/30/11 22/27/11 21/26/11
f 25/31/12 26/32/12 24/30/12 23/29/12
f 26/32/13 25/31/13 27/33/13 28/34/13
f 28/34/14 27/33/14 29/35/14 30/36/14
f 24/37/15 31/38/16 22/39/15
f 30/36/17 29/35/17 32/40/17 33/41/17
f 33/43/18 32/42/18 1/1/18 4/4/18
f 9/44/19 34/45/20 11/46/19
f 7/47/19 34/45/20 9/44/19
f 5/48/19 34/45/20 7/47/19
f 23/49/19 34/45/20 25/50/19
f 2/51/19 34/45/20 5/48/19
f 21/52/19 34/45/20 23/49/19
f 1/53/19 34/45/20 2/51/19
f 19/54/19 34/45/20 21/52/19
f 1/53/19 32/55/19 34/45/20
f 17/56/19 34/45/20 19/54/19
f 34/45/20 32/55/19 29/57/19
f 15/58/19 34/45/20 17/56/19
f 34/45/20 29/57/19 27/59/19
f 13/60/19 34/45/20 15/58/19
f 34/45/20 27/59/19 25/50/19
f 11/46/19 34/45/20 13/60/19
f 28/61/15 31/38/16 26/62/15
f 30/63/15 31/38/16 28/61/15
f 12/64/15 31/38/16 10/65/15
f 33/66/15 31/38/16 30/63/15
f 14/67/15 31/38/16 12/64/15
f 4/68/15 31/38/16 33/66/15
f 16/69/15 31/38/16 14/67/15
f 3/70/15 31/38/16 4/68/15
f 18/71/15 31/38/16 16/69/15
f 3/70/15 6/72/15 31/38/16
f 20/73/15 31/38/16 18/71/15
f 31/38/16 8/74/15 10/65/15
f 22/39/15 31/38/16 20/73/15
f 26/62/15 31/38/16 24/37/15
f 31/38/16 6/72/15 8/74/15
