# File produced by Open Asset Import Library (http://www.assimp.sf.net)
# (assimp v3.1.137539927)

mtllib stick_1.mtl

# vertex positions
v -0.707368 73.908424 1.127205
v -0.707368 0.089653 1.127211
v 0.669073 0.089653 1.127211
v 0.669073 73.908424 1.127205
v -0.707369 0.089653 0.465455
v -0.707368 73.908424 0.465449
v 0.669073 73.908424 0.465449
v 0.669073 0.089653 0.465455
v 1.323709 0.089653 0.465455
v 1.323709 0.089653 0.796366
v 1.323709 73.908424 0.796360
v 1.323709 73.908424 0.465449
v -1.323709 0.089653 0.465455
v -1.323709 0.089653 0.796366
v -1.323709 73.908424 0.796360
v -1.323709 73.908424 0.465449

# UV coordinates
vt 0.856815 0.670977
vt 0.060380 0.670977
vt 0.060380 0.656127
vt 0.856815 0.656127
vt 0.864760 0.616709
vt 0.068325 0.616709
vt 0.068325 0.601858
vt 0.864760 0.601858
vt 0.877364 0.601858
vt 0.864760 0.594795
vt 0.871006 0.594795
vt 0.856815 0.646662
vt 0.060380 0.646662
vt 0.060380 0.640360
vt 0.856815 0.640360
vt 0.060380 0.686440
vt 0.060380 0.680138
vt 0.856815 0.680138
vt 0.856815 0.686440
vt 0.062079 0.623358
vt 0.055723 0.616709
vt 0.068325 0.623358
vt 0.055723 0.601858
vt 0.061967 0.594795
vt 0.068325 0.594795
vt 0.864760 0.623358
vt 0.877364 0.616709
vt 0.871118 0.623358

# vertex normals
vn 0.000000 0.000000 1.000000
vn -0.000000 -0.000000 -1.000000
vn -0.000000 -1.000000 -0.000000
vn 1.000000 0.000000 0.000000
vn -1.000000 -0.000000 -0.000000
vn 0.000000 1.000000 0.000000
vn -0.472984 0.000000 0.881071
vn 0.451089 0.000000 0.892479

# Mesh
g kite_stick_1
usemtl stick_1_mat
f 3/3/1 4/4/1 1/1/1 2/2/1
f 7/7/2 8/8/2 5/5/2 6/6/2
f 9/10/3 10/11/3 3/9/3 8/8/3
f 12/15/4 11/12/4 10/13/4 9/14/4
f 15/18/5 16/19/5 13/16/5 14/17/5
f 1/21/6 6/6/6 16/22/6 15/20/6
f 2/2/7 1/1/7 15/18/7 14/17/7
f 10/13/8 11/12/8 4/4/8 3/3/8
f 4/23/6 7/7/6 6/6/6 1/21/6
f 11/24/6 12/25/6 7/7/6 4/23/6
f 5/5/3 2/27/3 14/28/3 13/26/3
f 8/8/3 3/9/3 2/27/3 5/5/3
f 6/6/2 5/5/2 13/26/2 16/22/2
f 12/25/2 9/10/2 8/8/2 7/7/2
