# File produced by Open Asset Import Library (http://www.assimp.sf.net)
# (assimp v3.1.137539927)

mtllib workbench.mtl

# vertex positions
v -75.000000 71.525795 35.000000
v 75.000000 71.525795 35.000000
v 75.000000 71.525795 -35.000000
v -75.000000 71.525795 -35.000000
v -75.000000 68.025795 35.000000
v -75.000000 68.025795 -35.000000
v 75.000000 68.025795 -35.000000
v 75.000000 68.025795 35.000000
v -71.511482 68.025780 28.962452
v -71.511497 0.145172 28.962435
v -71.511497 0.145191 -28.962452
v -71.511497 68.025795 -28.962435
v -75.011490 68.025780 28.962452
v -75.011490 68.025795 -28.962435
v -75.011505 0.145191 -28.962452
v -75.011490 0.145172 28.962435
v 31.581520 68.025780 28.962452
v 31.581514 0.145172 28.962435
v 31.581503 0.145191 -28.962452
v 31.581514 68.025795 -28.962435
v 28.081516 68.025780 28.962452
v 28.081516 68.025795 -28.962435
v 28.081497 0.145191 -28.962452
v 28.081516 0.145172 28.962435
v 74.828110 68.025780 28.962452
v 74.828110 0.145172 28.962435
v 74.828102 0.145191 -28.962452
v 74.828110 68.025795 -28.962435
v 71.328110 68.025780 28.962452
v 71.328110 68.025795 -28.962435
v 71.328094 0.145191 -28.962452
v 71.328110 0.145172 28.962435
v 71.285545 5.012793 28.962446
v 31.629623 5.012808 28.962437
v 31.629623 5.012821 -28.962446
v 71.285545 5.012808 -28.962437
v 71.285545 8.512794 28.962446
v 71.285545 8.512804 -28.962437
v 31.629623 8.512825 -28.962446
v 31.629623 8.512804 28.962437
v 71.285545 26.492887 28.962446
v 31.629623 26.492903 28.962437
v 31.629623 26.492918 -28.962446
v 71.285545 26.492903 -28.962437
v 71.285545 29.992893 28.962446
v 71.285545 29.992899 -28.962437
v 31.629623 29.992920 -28.962446
v 31.629623 29.992899 28.962437
v 71.285545 44.020645 28.962446
v 31.629623 44.020660 28.962437
v 31.629623 44.020672 -28.962446
v 71.285545 44.020660 -28.962437
v 71.285545 47.520649 28.962446
v 71.285545 47.520657 -28.962437
v 31.629623 47.520676 -28.962446
v 31.629623 47.520657 28.962437
v 28.015240 42.097466 -18.975021
v -71.536041 42.097519 -18.975023
v -71.536041 42.097576 -28.309471
v 28.015240 42.097519 -28.309471
v 28.015240 56.365086 -18.975021
v 28.015240 56.365116 -28.309471
v -71.536041 56.365196 -28.309471
v -71.536041 56.365116 -18.975023

# UV coordinates
vt 0.003906 0.498766
vt 0.003906 0.003906
vt 0.234841 0.003906
vt 0.234841 0.498766
vt 0.477597 0.498766
vt 0.246663 0.498766
vt 0.246663 0.003906
vt 0.477597 0.003906
vt 0.941283 0.003906
vt 0.952830 0.003906
vt 0.952830 0.498766
vt 0.941283 0.498766
vt 0.974462 0.498766
vt 0.962915 0.498766
vt 0.962915 0.003906
vt 0.974462 0.003906
vt 0.623546 0.935511
vt 0.612000 0.935511
vt 0.612000 0.704576
vt 0.623546 0.704576
vt 0.952830 0.739314
vt 0.941283 0.739314
vt 0.941284 0.508380
vt 0.952830 0.508380
vt 0.489420 0.694962
vt 0.489420 0.471019
vt 0.680518 0.471019
vt 0.680517 0.694962
vt 0.459393 0.732322
vt 0.268295 0.732322
vt 0.268295 0.508380
vt 0.459393 0.508380
vt 0.116401 0.965879
vt 0.104855 0.965879
vt 0.104855 0.741937
vt 0.116401 0.741937
vt 0.296666 0.965879
vt 0.285119 0.965879
vt 0.285119 0.741937
vt 0.296666 0.741937
vt 0.996094 0.195004
vt 0.984547 0.195004
vt 0.984547 0.003906
vt 0.996094 0.003906
vt 0.489420 0.227849
vt 0.489420 0.003906
vt 0.680518 0.003906
vt 0.680517 0.227849
vt 0.882414 0.227849
vt 0.691316 0.227849
vt 0.691316 0.003906
vt 0.882414 0.003906
vt 0.645178 0.928518
vt 0.633631 0.928518
vt 0.633632 0.704576
vt 0.645178 0.704576
vt 0.318298 0.965879
vt 0.306751 0.965879
vt 0.306751 0.741937
vt 0.318298 0.741937
vt 0.073138 0.933034
vt 0.061591 0.933034
vt 0.061591 0.741937
vt 0.073138 0.741937
vt 0.489420 0.461405
vt 0.489420 0.237463
vt 0.680518 0.237463
vt 0.680517 0.461405
vt 0.257496 0.732322
vt 0.066398 0.732322
vt 0.066398 0.508380
vt 0.257496 0.508380
vt 0.666810 0.928518
vt 0.655263 0.928518
vt 0.655263 0.704576
vt 0.666810 0.704576
vt 0.094770 0.965879
vt 0.083223 0.965879
vt 0.083223 0.741937
vt 0.094770 0.741937
vt 0.909567 0.967313
vt 0.898020 0.967313
vt 0.898020 0.776215
vt 0.909567 0.776215
vt 0.822144 0.829985
vt 0.691316 0.829985
vt 0.691316 0.638887
vt 0.822144 0.638887
vt 0.257314 0.741937
vt 0.257314 0.933034
vt 0.126486 0.933034
vt 0.126486 0.741937
vt 0.753337 0.970426
vt 0.741790 0.970426
vt 0.741790 0.839599
vt 0.753337 0.839599
vt 0.698527 0.839599
vt 0.710074 0.839599
vt 0.710074 0.970426
vt 0.698527 0.970426
vt 0.833125 0.776215
vt 0.844671 0.776215
vt 0.844671 0.967313
vt 0.833125 0.967313
vt 0.854756 0.776215
vt 0.866303 0.776215
vt 0.866303 0.967313
vt 0.854756 0.967313
vt 0.882232 0.428561
vt 0.751404 0.428561
vt 0.751405 0.237463
vt 0.882232 0.237463
vt 0.459210 0.741937
vt 0.459210 0.933034
vt 0.328383 0.933034
vt 0.328383 0.741937
vt 0.731705 0.970426
vt 0.720159 0.970426
vt 0.720159 0.839599
vt 0.731705 0.839599
vt 0.729773 0.237463
vt 0.741319 0.237463
vt 0.741319 0.368290
vt 0.729773 0.368290
vt 0.876388 0.776215
vt 0.887935 0.776215
vt 0.887935 0.967313
vt 0.876388 0.967313
vt 0.919652 0.776215
vt 0.931198 0.776215
vt 0.931198 0.967313
vt 0.919652 0.967313
vt 0.822144 0.629273
vt 0.691316 0.629273
vt 0.691316 0.438175
vt 0.822144 0.438175
vt 0.601019 0.704576
vt 0.601019 0.895674
vt 0.470191 0.895674
vt 0.470191 0.704576
vt 0.719688 0.368290
vt 0.708141 0.368290
vt 0.708141 0.237463
vt 0.719688 0.237463
vt 0.676895 0.839599
vt 0.688442 0.839599
vt 0.688442 0.970426
vt 0.676895 0.970426
vt 0.941283 0.748929
vt 0.952830 0.748929
vt 0.952830 0.940026
vt 0.941284 0.940026
vt 0.962915 0.709092
vt 0.974462 0.709092
vt 0.974462 0.900190
vt 0.962915 0.900190
vt 0.863919 0.438175
vt 0.863919 0.766601
vt 0.833125 0.766601
vt 0.833125 0.438175
vt 0.893213 0.003906
vt 0.924008 0.003906
vt 0.924008 0.332332
vt 0.893213 0.332332
vt 0.930668 0.766601
vt 0.883599 0.766601
vt 0.883599 0.438175
vt 0.930669 0.438175
vt 0.003906 0.508380
vt 0.050976 0.508380
vt 0.050976 0.836806
vt 0.003906 0.836806
vt 0.924008 0.341946
vt 0.924008 0.389016
vt 0.893213 0.389016
vt 0.893213 0.341947
vt 0.722111 0.377905
vt 0.722111 0.424974
vt 0.691316 0.424974
vt 0.691316 0.377904
vt 0.974462 0.699478
vt 0.962915 0.699478
vt 0.962915 0.508380
vt 0.974462 0.508380
vt 0.996094 0.596428
vt 0.984547 0.596428
vt 0.984547 0.405330
vt 0.996094 0.405330
vt 0.996094 0.395716
vt 0.984547 0.395716
vt 0.984547 0.204618
vt 0.996094 0.204618

# vertex normals
vn 0.000000 1.000000 0.000000
vn 0.000000 -1.000000 0.000000
vn 0.000000 0.000000 -1.000000
vn 0.000000 0.000000 1.000000
vn 1.000000 0.000000 0.000000
vn -1.000000 0.000000 0.000000
vn 1.000000 -0.000000 -0.000000
vn -1.000000 0.000000 0.000000
vn 0.000000 0.000000 -1.000000
vn 0.000000 -0.000000 1.000000
vn 0.000000 -1.000000 -0.000000
vn 1.000000 -0.000000 -0.000000
vn -1.000000 0.000000 0.000000
vn 0.000000 0.000000 -1.000000
vn 0.000000 -0.000000 1.000000
vn 0.000000 -1.000000 -0.000000
vn 1.000000 -0.000000 -0.000000
vn -1.000000 0.000000 0.000000
vn 0.000000 0.000000 -1.000000
vn 0.000000 -0.000000 1.000000
vn 0.000000 -1.000000 -0.000000
vn -0.000000 -1.000000 -0.000000
vn 0.000000 1.000000 0.000000
vn 0.000000 0.000000 -1.000000
vn -0.000000 0.000000 1.000000
vn 1.000000 0.000000 -0.000000
vn -0.000000 -1.000000 -0.000000
vn 0.000000 1.000000 0.000000
vn 0.000000 0.000000 -1.000000
vn -0.000000 0.000000 1.000000
vn -1.000000 0.000000 -0.000000
vn -0.000000 -1.000000 -0.000000
vn 0.000000 1.000000 0.000000
vn 0.000000 0.000000 -1.000000
vn -1.000000 0.000000 -0.000000
vn -0.000001 -1.000000 -0.000006
vn 0.000001 1.000000 0.000006
vn -0.000000 0.000000 1.000000
vn -1.000000 0.000000 0.000001
vn 0.000000 1.000000 0.000000
vn 0.000000 1.000000 0.000000
vn 0.000000 1.000000 0.000000

# Mesh
g Prop_Desk_03_Prop_Desk_03
usemtl table_top
f 4/4/1 1/1/1 2/2/1
f 2/2/1 3/3/1 4/4/1
f 8/8/2 5/5/2 6/6/2
f 6/6/2 7/7/2 8/8/2
f 4/12/3 3/9/3 7/10/3
f 7/10/3 6/11/3 4/12/3
f 2/16/4 1/13/4 5/14/4
f 5/14/4 8/15/4 2/16/4
f 3/20/5 2/17/5 8/18/5
f 8/18/5 7/19/5 3/20/5
f 1/24/6 4/21/6 6/22/6
f 6/22/6 5/23/6 1/24/6

# Mesh
g Prop_Desk_03_Prop_Desk_03
usemtl table_bottom
f 12/28/7 9/25/7 10/26/7
f 10/26/7 11/27/7 12/28/7
f 16/32/8 13/29/8 14/30/8
f 14/30/8 15/31/8 16/32/8
f 12/36/9 11/33/9 15/34/9
f 15/34/9 14/35/9 12/36/9
f 10/40/10 9/37/10 13/38/10
f 13/38/10 16/39/10 10/40/10
f 11/44/11 10/41/11 16/42/11
f 16/42/11 15/43/11 11/44/11
f 20/48/12 17/45/12 18/46/12
f 18/46/12 19/47/12 20/48/12
f 24/52/13 21/49/13 22/50/13
f 22/50/13 23/51/13 24/52/13
f 20/56/14 19/53/14 23/54/14
f 23/54/14 22/55/14 20/56/14
f 18/60/15 17/57/15 21/58/15
f 21/58/15 24/59/15 18/60/15
f 19/64/16 18/61/16 24/62/16
f 24/62/16 23/63/16 19/64/16
f 28/68/17 25/65/17 26/66/17
f 26/66/17 27/67/17 28/68/17
f 32/72/18 29/69/18 30/70/18
f 30/70/18 31/71/18 32/72/18
f 28/76/19 27/73/19 31/74/19
f 31/74/19 30/75/19 28/76/19
f 26/80/20 25/77/20 29/78/20
f 29/78/20 32/79/20 26/80/20
f 27/84/21 26/81/21 32/82/21
f 32/82/21 31/83/21 27/84/21
f 36/88/22 33/85/22 34/86/22
f 34/86/22 35/87/22 36/88/22
f 40/92/23 37/89/23 38/90/23
f 38/90/23 39/91/23 40/92/23
f 36/96/24 35/93/24 39/94/24
f 39/94/24 38/95/24 36/96/24
f 34/100/25 33/97/25 37/98/25
f 37/98/25 40/99/25 34/100/25
f 35/104/6 34/101/6 40/102/6
f 40/102/6 39/103/6 35/104/6
f 33/108/26 36/105/26 38/106/26
f 38/106/26 37/107/26 33/108/26
f 44/112/27 41/109/27 42/110/27
f 42/110/27 43/111/27 44/112/27
f 48/116/28 45/113/28 46/114/28
f 46/114/28 47/115/28 48/116/28
f 44/120/29 43/117/29 47/118/29
f 47/118/29 46/119/29 44/120/29
f 42/124/30 41/121/30 45/122/30
f 45/122/30 48/123/30 42/124/30
f 43/128/31 42/125/31 48/126/31
f 48/126/31 47/127/31 43/128/31
f 41/132/5 44/129/5 46/130/5
f 46/130/5 45/131/5 41/132/5
f 52/136/32 49/133/32 50/134/32
f 50/134/32 51/135/32 52/136/32
f 56/140/33 53/137/33 54/138/33
f 54/138/33 55/139/33 56/140/33
f 52/144/34 51/141/34 55/142/34
f 55/142/34 54/143/34 52/144/34
f 50/148/25 49/145/25 53/146/25
f 53/146/25 56/147/25 50/148/25
f 51/152/35 50/149/35 56/150/35
f 56/150/35 55/151/35 51/152/35
f 49/156/5 52/153/5 54/154/5
f 54/154/5 53/155/5 49/156/5
f 60/160/36 57/157/36 58/158/36
f 58/158/36 59/159/36 60/160/36
f 64/164/37 61/161/37 62/162/37
f 62/162/37 63/163/37 64/164/37
f 60/168/3 59/165/3 63/166/3
f 63/166/3 62/167/3 60/168/3
f 58/172/38 57/169/38 61/170/38
f 61/170/38 64/171/38 58/172/38
f 59/176/39 58/173/39 64/174/39
f 64/174/39 63/175/39 59/176/39
f 57/180/5 60/177/5 62/178/5
f 62/178/5 61/179/5 57/180/5

# Mesh
g Prop_Desk_03_Prop_Desk_03
usemtl PandaMat2
f 9/184/40 12/181/40 14/182/40
f 14/182/40 13/183/40 9/184/40
f 17/188/41 20/185/41 22/186/41
f 22/186/41 21/187/41 17/188/41
f 25/192/42 28/189/42 30/190/42
f 30/190/42 29/191/42 25/192/42
