# File produced by Open Asset Import Library (http://www.assimp.sf.net)
# (assimp v3.1.151885474)

mtllib Wheel4.mtl

# vertex positions
v 0.000000 1.725176 0.746010
v 0.000000 1.725176 -0.412646
v -0.660196 1.593855 -0.412646
v -0.660196 1.593855 0.746010
v -1.219883 1.219883 -0.412646
v -1.219883 1.219883 0.746010
v -1.593855 0.660196 -0.412646
v -1.593855 0.660196 0.746010
v -1.725174 0.000000 -0.412646
v -1.725174 0.000000 0.746010
v -1.593855 -0.660196 -0.412646
v -1.593855 -0.660196 0.746010
v -1.219883 -1.219883 -0.412646
v -1.219883 -1.219883 0.746010
v -0.660196 -1.593854 -0.412646
v -0.660196 -1.593854 0.746010
v 0.000000 -1.725175 -0.412646
v 0.000000 -1.725175 0.746010
v 0.660197 -1.593854 -0.412646
v 0.660197 -1.593854 0.746010
v 1.219883 -1.219883 -0.412646
v 1.219883 -1.219883 0.746010
v 1.593856 -0.660196 -0.412646
v 1.593856 -0.660196 0.746010
v 1.725175 0.000000 -0.412646
v 1.725175 0.000000 0.746010
v 1.593854 0.660197 -0.412646
v 1.593854 0.660197 0.746010
v 1.219883 1.219883 -0.412646
v 1.219883 1.219883 0.746010
v -0.268402 -0.111176 -0.412646
v -0.290515 0.000000 -0.412646
v -0.290515 0.000000 -0.746010
v -0.268402 -0.111176 -0.746010
v 0.660197 1.593855 -0.412646
v 0.660197 1.593855 0.746010
v 0.000000 0.000000 0.746010
v 0.000000 0.290516 -0.412646
v -0.111177 0.268402 -0.412646
v 0.111175 0.268402 -0.412646
v 0.205425 0.205426 -0.412646
v 0.268402 0.111176 -0.412646
v 0.290516 0.000000 -0.412646
v 0.268402 -0.111176 -0.412646
v 0.205425 -0.205425 -0.412646
v 0.111175 -0.268402 -0.412646
v 0.000000 -0.290516 -0.412646
v -0.111177 -0.268402 -0.412646
v -0.205426 -0.205425 -0.412646
v -0.268402 0.111176 -0.412646
v -0.205426 0.205426 -0.412646
v -0.111177 -0.268402 -0.746010
v 0.000000 0.000002 -0.746010
v 0.000000 -0.290516 -0.746010
v 0.268402 -0.111176 -0.746010
v 0.290516 0.000000 -0.746010
v -0.268402 0.111176 -0.746010
v 0.205425 -0.205425 -0.746010
v 0.000000 0.290516 -0.746010
v -0.111177 0.268402 -0.746010
v -0.205426 0.205426 -0.746010
v 0.111175 -0.268402 -0.746010
v 0.111175 0.268402 -0.746010
v 0.205425 0.205426 -0.746010
v -0.205426 -0.205425 -0.746010
v 0.268402 0.111176 -0.746010

# UV coordinates
vt 0.628081 0.960783
vt 0.660791 0.960783
vt 0.660791 0.979421
vt 0.628081 0.979421
vt 0.446211 0.966709
vt 0.409748 0.966709
vt 0.409748 0.954940
vt 0.446211 0.954940
vt 0.409748 0.937327
vt 0.446211 0.937327
vt 0.409748 0.916550
vt 0.446211 0.916550
vt 0.409748 0.895774
vt 0.446211 0.895774
vt 0.409748 0.878160
vt 0.446211 0.878160
vt 0.409748 0.866392
vt 0.446211 0.866392
vt 0.948476 0.987333
vt 0.915766 0.987333
vt 0.915766 0.968695
vt 0.948476 0.968695
vt 0.915766 0.950057
vt 0.948476 0.950057
vt 0.458552 0.866392
vt 0.495015 0.866392
vt 0.495015 0.878160
vt 0.458552 0.878160
vt 0.495015 0.895774
vt 0.458552 0.895774
vt 0.495015 0.916550
vt 0.458552 0.916550
vt 0.495015 0.937327
vt 0.458552 0.937327
vt 0.495015 0.954940
vt 0.458552 0.954940
vt 0.908277 0.147279
vt 0.908277 0.150777
vt 0.897786 0.150777
vt 0.897786 0.147279
vt 0.495015 0.966709
vt 0.458552 0.966709
vt 0.628081 0.942145
vt 0.660791 0.942145
vt 0.203832 0.919191
vt 0.156526 0.909781
vt 0.203832 0.900371
vt 0.571778 0.750253
vt 0.589165 0.757455
vt 0.566880 0.790806
vt 0.563953 0.789593
vt 0.602472 0.770763
vt 0.569121 0.793047
vt 0.609674 0.788150
vt 0.570334 0.795975
vt 0.609674 0.806969
vt 0.570334 0.799144
vt 0.602472 0.824356
vt 0.569121 0.802072
vt 0.589165 0.837664
vt 0.566880 0.804313
vt 0.571778 0.844866
vt 0.563953 0.805526
vt 0.552958 0.844866
vt 0.560783 0.805526
vt 0.535571 0.837664
vt 0.557855 0.804313
vt 0.522263 0.824356
vt 0.555614 0.802072
vt 0.515062 0.806969
vt 0.554402 0.799144
vt 0.515061 0.788150
vt 0.554402 0.795975
vt 0.522264 0.770763
vt 0.555614 0.793047
vt 0.535571 0.757455
vt 0.557855 0.790806
vt 0.552958 0.750253
vt 0.560783 0.789593
vt 0.979982 0.013457
vt 0.987948 0.011873
vt 0.981194 0.016385
vt 0.186278 0.119210
vt 0.186278 0.115711
vt 0.196769 0.115711
vt 0.196769 0.119210
vt 0.908277 0.154276
vt 0.897786 0.154276
vt 0.186278 0.112745
vt 0.196769 0.112745
vt 0.186278 0.184784
vt 0.189417 0.184784
vt 0.189417 0.194195
vt 0.186278 0.194195
vt 0.908277 0.157242
vt 0.897786 0.157242
vt 0.186278 0.110763
vt 0.196769 0.110763
vt 0.908277 0.159224
vt 0.897786 0.159224
vt 0.986259 0.192167
vt 0.983120 0.192167
vt 0.983120 0.182756
vt 0.986259 0.182756
vt 0.192555 0.184784
vt 0.192555 0.194195
vt 0.979982 0.192167
vt 0.979982 0.182756
vt 0.186278 0.127656
vt 0.186278 0.125674
vt 0.196769 0.125674
vt 0.196769 0.127656
vt 0.908277 0.142331
vt 0.908277 0.144313
vt 0.897786 0.144313
vt 0.897786 0.142331
vt 0.186278 0.122708
vt 0.196769 0.122708
vt 0.983435 0.018626
vt 0.979982 0.010288
vt 0.995914 0.010288
vt 0.994701 0.007360
vt 0.981194 0.007360
vt 0.995914 0.013457
vt 0.983435 0.005119
vt 0.994701 0.016385
vt 0.986363 0.003906
vt 0.992460 0.018626
vt 0.992460 0.005119
vt 0.989533 0.003906
vt 0.989533 0.019839
vt 0.986363 0.019839
vt 0.196630 0.882984
vt 0.196631 0.936578
vt 0.109220 0.919191
vt 0.109220 0.900371
vt 0.183323 0.949886
vt 0.116422 0.882984
vt 0.165936 0.957088
vt 0.129729 0.869677
vt 0.147116 0.957088
vt 0.147116 0.862475
vt 0.129729 0.949885
vt 0.165936 0.862475
vt 0.116422 0.936578
vt 0.183323 0.869677

# vertex normals
vn -0.195090 0.980785 0.000000
vn -0.555571 0.831469 0.000000
vn -0.831469 0.555571 0.000000
vn -0.980785 0.195090 0.000000
vn -0.980785 -0.195090 0.000000
vn -0.831470 -0.555570 0.000000
vn -0.555570 -0.831470 0.000000
vn -0.195090 -0.980785 0.000000
vn 0.195090 -0.980785 0.000000
vn 0.555570 -0.831470 0.000000
vn 0.831469 -0.555571 0.000000
vn 0.980785 -0.195090 0.000000
vn 0.980785 0.195090 0.000000
vn 0.831470 0.555570 0.000000
vn -0.980786 -0.195089 0.000000
vn 0.555570 0.831470 0.000000
vn 0.195090 0.980785 0.000000
vn 0.000000 0.000000 1.000000
vn 0.000000 0.000000 1.000000
vn 0.000000 0.000000 -1.000000
vn 0.000000 -0.000000 -1.000000
vn 0.000000 0.000000 -1.000000
vn 0.000000 0.000000 -1.000000
vn 0.000000 0.000000 -1.000000
vn 0.000000 -0.000000 -1.000000
vn 0.000000 0.000000 -1.000000
vn 0.000000 0.000000 -1.000000
vn 0.000000 0.000000 -1.000000
vn 0.000000 -0.000000 -1.000000
vn 0.000000 0.000000 -1.000000
vn 0.000000 -0.000000 -1.000000
vn 0.000000 0.000000 -1.000000
vn 0.000000 -0.000000 -1.000000
vn 0.000000 -0.000000 -1.000000
vn 0.000000 0.000000 -1.000000
vn -0.000000 0.000000 -1.000000
vn 0.980785 -0.195091 0.000000
vn -0.980785 0.195091 0.000000
vn 0.831469 -0.555572 0.000000
vn -0.195090 0.980785 0.000000
vn -0.831469 0.555572 0.000000
vn 0.555571 -0.831469 0.000000
vn -0.555574 0.831467 0.000000
vn 0.195090 -0.980785 0.000000
vn 0.195091 0.980785 0.000000
vn -0.195089 -0.980785 0.000000
vn 0.555573 0.831468 0.000000
vn -0.555572 -0.831468 0.000000
vn -0.831467 -0.555574 0.000000
vn 0.980785 0.195094 0.000000

# Mesh
g Wheel4
usemtl Train
f 1/1/1 2/2/1 3/3/1 4/4/1
f 4/5/2 3/6/2 5/7/2 6/8/2
f 6/8/3 5/7/3 7/9/3 8/10/3
f 8/10/4 7/9/4 9/11/4 10/12/4
f 11/13/5 12/14/5 10/12/5 9/11/5
f 13/15/6 14/16/6 12/14/6 11/13/6
f 15/17/7 16/18/7 14/16/7 13/15/7
f 17/21/8 18/22/8 16/19/8 15/20/8
f 19/23/9 20/24/9 18/22/9 17/21/9
f 21/27/10 22/28/10 20/25/10 19/26/10
f 23/29/11 24/30/11 22/28/11 21/27/11
f 25/31/12 26/32/12 24/30/12 23/29/12
f 26/32/13 25/31/13 27/33/13 28/34/13
f 28/34/14 27/33/14 29/35/14 30/36/14
f 34/40/15 31/37/15 32/38/15 33/39/15
f 30/36/16 29/35/16 35/41/16 36/42/16
f 36/43/17 35/44/17 2/2/17 1/1/17
f 20/45/18 37/46/19 18/47/18
f 2/49/20 38/50/20 39/51/20 3/48/20
f 35/52/21 40/53/21 38/50/21 2/49/20
f 35/52/21 29/54/22 41/55/22 40/53/21
f 29/54/22 27/56/23 42/57/23 41/55/22
f 27/56/23 25/58/24 43/59/24 42/57/23
f 25/58/24 23/60/25 44/61/25 43/59/24
f 23/60/25 21/62/26 45/63/26 44/61/25
f 21/62/26 19/64/27 46/65/27 45/63/27
f 46/65/28 19/64/27 17/66/28 47/67/28
f 47/67/20 17/66/28 15/68/20 48/69/20
f 49/71/29 48/69/20 15/68/20 13/70/29
f 31/73/30 49/71/29 13/70/29 11/72/30
f 32/75/31 31/73/30 11/72/30 9/74/31
f 50/77/32 32/75/31 9/74/31 7/76/32
f 51/79/33 50/77/33 7/76/32 5/78/33
f 39/51/34 51/79/34 5/78/33 3/48/20
f 52/80/35 53/81/36 54/82/35
f 56/86/37 43/83/37 44/84/37 55/85/37
f 50/87/38 57/88/38 33/39/38 32/38/38
f 55/85/39 44/84/39 45/89/39 58/90/39
f 38/92/40 59/93/40 60/94/40 39/91/40
f 51/95/41 61/96/41 57/88/41 50/87/41
f 58/90/42 45/89/42 46/97/42 62/98/42
f 39/99/43 60/100/43 61/96/43 51/95/43
f 62/104/44 46/101/44 47/102/44 54/103/44
f 40/105/45 63/106/45 59/93/45 38/92/45
f 54/103/46 47/102/46 48/107/46 52/108/46
f 41/110/47 64/111/47 63/112/47 40/109/47
f 52/116/48 48/113/48 49/114/48 65/115/48
f 42/117/14 66/118/14 64/111/14 41/110/14
f 65/115/49 49/114/49 31/37/49 34/40/49
f 43/83/50 56/86/50 66/118/50 42/117/50
f 54/82/35 53/81/36 62/119/35
f 65/120/35 53/81/36 52/80/35
f 63/121/35 53/81/36 59/122/35
f 34/123/35 53/81/36 65/120/35
f 64/124/35 53/81/36 63/121/35
f 33/125/35 53/81/36 34/123/35
f 66/126/35 53/81/36 64/124/35
f 57/127/35 53/81/36 33/125/35
f 56/128/35 53/81/36 66/126/35
f 60/129/35 53/81/36 61/130/35
f 55/131/35 53/81/36 56/128/35
f 60/129/35 59/122/35 53/81/36
f 58/132/35 53/81/36 55/131/35
f 62/119/35 53/81/36 58/132/35
f 61/130/35 53/81/36 57/127/35
f 37/46/19 16/133/18 18/47/18
f 22/134/18 37/46/19 20/45/18
f 1/135/18 4/136/18 37/46/19
f 24/137/18 37/46/19 22/134/18
f 37/46/19 4/136/18 6/138/18
f 26/139/18 37/46/19 24/137/18
f 37/46/19 6/138/18 8/140/18
f 28/141/18 37/46/19 26/139/18
f 37/46/19 8/140/18 10/142/18
f 30/143/18 37/46/19 28/141/18
f 37/46/19 10/142/18 12/144/18
f 36/145/18 37/46/19 30/143/18
f 37/46/19 12/144/18 14/146/18
f 1/135/18 37/46/19 36/145/18
f 37/46/19 14/146/18 16/133/18
