# File produced by Open Asset Import Library (http://www.assimp.sf.net)
# (assimp v3.1.137539927)

mtllib kite_enemy_03.mtl

# vertex positions
v -47.764328 99.836548 0.392724
v -31.926178 115.560051 0.634293
v -31.936901 99.790771 0.711896
v -0.216742 23.330261 0.142273
v -0.019274 23.412022 0.143613
v 23.516731 0.000000 0.256611
v -0.283453 0.068443 0.110108
v -24.083662 0.136917 -0.036424
v -0.413783 23.413170 0.141191
v 0.390298 147.005768 0.615906
v 16.180593 131.190994 0.856089
v 0.351086 131.236359 0.869228
v 0.306866 115.465805 1.941823
v 16.098257 99.651230 2.003613
v 0.265634 99.695877 2.529055
v 16.138304 115.420837 1.611158
v 31.933916 99.607208 0.994488
v 31.971966 115.376404 0.918760
v 47.764400 99.562042 0.814809
v 16.096191 99.096313 2.002867
v 0.223238 83.399506 1.799200
v 0.264041 99.140976 2.528280
v 31.931320 99.052322 0.993778
v 16.054220 83.354553 1.467677
v 0.185454 67.658661 0.584052
v 47.761330 99.007156 0.814029
v 23.911800 61.445007 0.479400
v -0.331643 83.401062 1.795794
v -16.115629 99.188889 1.859874
v -0.290859 99.142586 2.524863
v -0.369449 67.660233 0.580614
v -16.157639 83.447098 1.324682
v -31.937462 99.235847 0.711210
v -0.492618 23.884430 0.141336
v -24.128523 61.583069 0.266638
v -16.114557 99.743790 1.860598
v -0.275402 115.467453 1.938201
v -0.289266 99.697510 2.525637
v -16.101919 115.513489 1.465535
v -0.258567 131.238098 0.865480
v -16.087042 131.283722 0.711025
v -0.246785 147.007614 0.611958
v -47.764400 99.281654 0.391954
v 0.062280 23.882816 0.144754
v -0.307641 23.883907 0.142475
v -0.122697 23.883373 0.143634
v -0.105360 99.327026 2.526259
v -0.105879 99.142059 2.526000
v -0.290306 99.327553 2.525099
v 31.932158 99.237305 0.993999
v 47.762337 99.192146 0.814307
v 0.038297 83.400040 1.798042
v 0.079062 99.141525 2.527161
v -16.115286 99.373886 1.860095
v -0.081317 115.466888 1.939425
v -0.104289 99.696930 2.526756
v -0.034435 147.007019 0.613287
v -0.055361 131.237534 0.866746
v 0.147879 131.236923 0.867965
v 0.177948 147.006378 0.614575
v 0.112784 115.466354 1.940602
v 0.080655 99.696404 2.527915
v -47.764378 99.466614 0.392211
v -31.937271 99.420822 0.711421
v -31.937096 99.605774 0.711683
v -47.764351 99.651596 0.392466
v -16.114920 99.558838 1.860344
v -0.289786 99.512512 2.525357
v 0.000510 67.659195 0.582893
v -0.184472 67.659714 0.581753
v -0.146682 83.400551 1.796902
v 0.264561 99.325928 2.528537
v 16.096878 99.281281 2.003083
v 16.097586 99.466248 2.003329
v 0.265117 99.510933 2.528798
v 31.933018 99.422256 0.994251
v 47.763386 99.377098 0.814549
v -0.104806 99.511986 2.526496
v 0.080135 99.511459 2.527657
v 0.079618 99.326508 2.527400

# UV coordinates
vt 0.657739 0.567421
vt 0.555423 0.669925
vt 0.555058 0.567597
vt 0.616435 0.237171
vt 0.615155 0.237704
vt 0.462060 0.086291
vt 0.616435 0.086290
vt 0.770810 0.086290
vt 0.617714 0.237705
vt 0.346569 0.874930
vt 0.243659 0.772760
vt 0.346374 0.772643
vt 0.346189 0.670158
vt 0.243369 0.568045
vt 0.346000 0.567904
vt 0.243507 0.670347
vt 0.140501 0.568192
vt 0.140708 0.670521
vt 0.037814 0.568314
vt 0.243367 0.564446
vt 0.345839 0.462205
vt 0.345995 0.564311
vt 0.140503 0.564590
vt 0.243153 0.462296
vt 0.345683 0.359861
vt 0.037819 0.564714
vt 0.191558 0.320287
vt 0.349437 0.462200
vt 0.452204 0.564149
vt 0.349588 0.564306
vt 0.349284 0.359856
vt 0.452116 0.462000
vt 0.555045 0.563996
vt 0.348970 0.075942
vt 0.503284 0.319837
vt 0.452213 0.567747
vt 0.349965 0.670153
vt 0.349593 0.567899
vt 0.452639 0.670047
vt 0.350331 0.772637
vt 0.453045 0.772459
vt 0.350701 0.874924
vt 0.657723 0.563822
vt 0.345308 0.075940
vt 0.347166 0.072352
vt 0.347770 0.075942
vt 0.346570 0.075942
vt 0.348392 0.565505
vt 0.348390 0.564307
vt 0.349589 0.565503
vt 0.140502 0.565791
vt 0.037818 0.565914
vt 0.347038 0.462204
vt 0.347193 0.564309
vt 0.452207 0.565348
vt 0.348706 0.670154
vt 0.348396 0.567900
vt 0.349324 0.874926
vt 0.349012 0.772639
vt 0.347693 0.772641
vt 0.347946 0.874928
vt 0.347447 0.670156
vt 0.347198 0.567902
vt 0.657728 0.565021
vt 0.555049 0.565196
vt 0.555054 0.566396
vt 0.657733 0.566221
vt 0.452210 0.566548
vt 0.349591 0.566701
vt 0.346884 0.359859
vt 0.348084 0.359858
vt 0.348238 0.462202
vt 0.345997 0.565508
vt 0.243368 0.565645
vt 0.243368 0.566845
vt 0.345999 0.566706
vt 0.140502 0.566991
vt 0.037816 0.567114
vt 0.348394 0.566703
vt 0.347196 0.566704
vt 0.347195 0.565507
vt 0.345886 0.072883
vt 0.348445 0.072888

# vertex normals
vn 0.020174 -0.000819 -0.999796
vn 0.044304 -0.015663 -0.998895
vn 0.043812 -0.004368 -0.999030
vn 0.006183 0.001408 -0.999980
vn 0.003768 -0.016062 -0.999864
vn -0.011711 -0.039885 -0.999136
vn 0.000063 -0.039457 -0.999221
vn -0.009060 -0.050998 -0.998658
vn -0.046905 -0.013150 -0.998813
vn -0.013536 -0.017887 -0.999748
vn -0.032371 -0.036269 -0.998818
vn -0.035047 -0.004132 -0.999377
vn -0.035641 -0.015471 -0.999245
vn -0.011348 -0.000598 -0.999935
vn -0.046766 0.019368 -0.998718
vn -0.008736 0.060059 -0.998157
vn -0.013426 0.023846 -0.999626
vn -0.038157 0.012564 -0.999193
vn -0.025297 0.032775 -0.999143
vn 0.001066 0.039610 -0.999215
vn -0.018853 0.008758 -0.999784
vn -0.007963 0.021422 -0.999739
vn 0.019599 0.060013 -0.998005
vn 0.055729 0.019018 -0.998265
vn 0.024152 0.023706 -0.999427
vn 0.009762 0.039584 -0.999169
vn 0.034288 0.032635 -0.998879
vn 0.047072 0.012344 -0.998815
vn 0.006375 0.008467 -0.999944
vn 0.016872 0.021348 -0.999630
vn 0.055675 -0.013479 -0.998358
vn 0.019411 -0.051062 -0.998507
vn 0.024043 -0.017941 -0.999550
vn 0.041022 -0.036417 -0.998494
vn 0.010423 -0.039447 -0.999167
vn 0.020346 -0.039900 -0.998996
vn 0.007318 -0.016076 -0.999844
vn 0.027732 0.008619 -0.999578
vn 0.005432 0.008492 -0.999949
vn 0.006154 0.005667 -0.999965
vn 0.006247 0.023799 -0.999697
vn 0.024088 0.001314 -0.999709
vn -0.037473 0.001479 -0.999297
vn -0.011382 0.001411 -0.999934
vn 0.006299 0.061603 -0.998081
vn 0.057201 0.001268 -0.998362
vn 0.005990 -0.052533 -0.998601
vn 0.006136 -0.017934 -0.999820
vn 0.006100 -0.016102 -0.999852
vn 0.006038 -0.042022 -0.999099
vn 0.005987 -0.041978 -0.999101
vn 0.020177 0.001341 -0.999795
vn 0.046279 0.001254 -0.998928
vn 0.006296 0.043496 -0.999034
vn -0.013490 0.001456 -0.999908
vn -0.048380 0.001537 -0.998828

# Mesh
g Kite
usemtl kite_enemy_03
f 1/1/1 2/2/2 3/3/3
f 7/7/4 4/4/4 5/5/4
f 5/5/4 6/6/4 7/7/4
f 7/7/4 8/8/4 9/9/4
f 9/9/4 4/4/4 7/7/4
f 10/10/5 11/11/6 12/12/7
f 13/13/8 14/14/9 15/15/10
f 12/12/7 16/16/11 13/13/8
f 13/13/8 16/16/11 14/14/9
f 16/16/11 17/17/12 14/14/9
f 12/12/7 11/11/6 16/16/11
f 11/11/6 18/18/13 16/16/11
f 16/16/11 18/18/13 17/17/12
f 18/18/13 19/19/14 17/17/12
f 20/20/15 21/21/16 22/22/17
f 23/23/18 24/24/19 20/20/15
f 20/20/15 24/24/19 21/21/16
f 24/24/19 25/25/20 21/21/16
f 27/27/22 24/24/19 23/23/18
f 23/23/18 26/26/21 27/27/22
f 28/28/23 29/29/24 30/30/25
f 31/31/26 32/32/27 28/28/23
f 28/28/23 32/32/27 29/29/24
f 32/32/27 33/33/28 29/29/24
f 35/35/30 32/32/27 31/31/26
f 31/31/26 34/34/29 35/35/30
f 36/36/31 37/37/32 38/38/33
f 3/3/3 39/39/34 36/36/31
f 36/36/31 39/39/34 37/37/32
f 39/39/34 40/40/35 37/37/32
f 3/3/3 2/2/2 39/39/34
f 2/2/2 41/41/36 39/39/34
f 39/39/34 41/41/36 40/40/35
f 41/41/36 42/42/37 40/40/35
f 43/43/38 33/33/28 32/32/27
f 32/32/27 35/35/30 43/43/38
f 44/44/39 25/25/20 24/24/19
f 24/24/19 27/27/22 44/44/39
f 4/45/4 45/46/40 46/47/40
f 49/50/42 47/48/4 48/49/41
f 48/49/41 30/30/25 49/50/42
f 23/23/18 50/51/43 51/52/44
f 51/52/44 26/26/21 23/23/18
f 21/21/16 52/53/45 53/54/41
f 53/54/41 22/22/17 21/21/16
f 29/29/24 54/55/46 49/50/42
f 49/50/42 30/30/25 29/29/24
f 37/37/32 55/56/47 56/57/48
f 56/57/48 38/38/33 37/37/32
f 42/42/37 57/58/49 58/59/50
f 58/59/50 40/40/35 42/42/37
f 40/40/35 58/59/50 55/56/47
f 55/56/47 37/37/32 40/40/35
f 60/61/49 10/10/5 12/12/7
f 12/12/7 59/60/51 60/61/49
f 57/58/49 60/61/49 59/60/51
f 59/60/51 58/59/50 57/58/49
f 59/60/51 12/12/7 13/13/8
f 13/13/8 61/62/47 59/60/51
f 58/59/50 59/60/51 61/62/47
f 61/62/47 55/56/47 58/59/50
f 61/62/47 13/13/8 15/15/10
f 15/15/10 62/63/48 61/62/47
f 55/56/47 61/62/47 62/63/48
f 62/63/48 56/57/48 55/56/47
f 43/43/38 63/64/52 64/65/53
f 64/65/53 33/33/28 43/43/38
f 33/33/28 64/65/53 54/55/46
f 54/55/46 29/29/24 33/33/28
f 66/67/52 1/1/1 3/3/3
f 3/3/3 65/66/53 66/67/52
f 63/64/52 66/67/52 65/66/53
f 65/66/53 64/65/53 63/64/52
f 65/66/53 3/3/3 36/36/31
f 36/36/31 67/68/46 65/66/53
f 64/65/53 65/66/53 67/68/46
f 67/68/46 54/55/46 64/65/53
f 67/68/46 36/36/31 38/38/33
f 38/38/33 68/69/42 67/68/46
f 54/55/46 67/68/46 68/69/42
f 68/69/42 49/50/42 54/55/46
f 44/44/39 46/47/40 69/70/54
f 69/70/54 25/25/20 44/44/39
f 25/25/20 69/70/54 52/53/45
f 52/53/45 21/21/16 25/25/20
f 45/46/40 34/34/29 31/31/26
f 31/31/26 70/71/54 45/46/40
f 46/47/40 45/46/40 70/71/54
f 70/71/54 69/70/54 46/47/40
f 70/71/54 31/31/26 28/28/23
f 28/28/23 71/72/45 70/71/54
f 69/70/54 70/71/54 71/72/45
f 71/72/45 52/53/45 69/70/54
f 71/72/45 28/28/23 30/30/25
f 30/30/25 48/49/41 71/72/45
f 52/53/45 71/72/45 48/49/41
f 48/49/41 53/54/41 52/53/45
f 22/22/17 72/73/55 73/74/56
f 73/74/56 20/20/15 22/22/17
f 20/20/15 73/74/56 50/51/43
f 50/51/43 23/23/18 20/20/15
f 75/76/55 15/15/10 14/14/9
f 14/14/9 74/75/56 75/76/55
f 72/73/55 75/76/55 74/75/56
f 74/75/56 73/74/56 72/73/55
f 74/75/56 14/14/9 17/17/12
f 17/17/12 76/77/43 74/75/56
f 73/74/56 74/75/56 76/77/43
f 76/77/43 50/51/43 73/74/56
f 76/77/43 17/17/12 19/19/14
f 19/19/14 77/78/44 76/77/43
f 50/51/43 76/77/43 77/78/44
f 77/78/44 51/52/44 50/51/43
f 38/38/33 56/57/48 78/79/4
f 78/79/4 68/69/42 38/38/33
f 68/69/42 78/79/4 47/48/4
f 47/48/4 49/50/42 68/69/42
f 62/63/48 15/15/10 75/76/55
f 75/76/55 79/80/4 62/63/48
f 56/57/48 62/63/48 79/80/4
f 79/80/4 78/79/4 56/57/48
f 79/80/4 75/76/55 72/73/55
f 72/73/55 80/81/4 79/80/4
f 78/79/4 79/80/4 80/81/4
f 80/81/4 47/48/4 78/79/4
f 80/81/4 72/73/55 22/22/17
f 22/22/17 53/54/41 80/81/4
f 47/48/4 80/81/4 53/54/41
f 53/54/41 48/49/41 47/48/4
f 5/82/4 4/45/4 46/47/40
f 46/47/40 44/44/39 5/82/4
f 9/83/4 34/34/29 45/46/40
f 45/46/40 4/45/4 9/83/4
