# File produced by Open Asset Import Library (http://www.assimp.sf.net)
# (assimp v3.1.137539927)

mtllib shutter_frame.mtl

# vertex positions
v -250.000000 0.000000 15.000001
v -100.121193 0.000000 15.000002
v -100.121201 200.056549 15.000001
v -250.000000 200.056534 15.000001
v -250.000000 300.000000 15.000001
v -100.121193 300.000000 15.000002
v -100.121193 300.000000 -15.000002
v -250.000000 300.000000 -15.000001
v -250.000000 0.000000 -15.000001
v -103.120895 0.000000 -15.000002
v -100.121193 0.000000 -12.000302
v 250.000000 0.000000 15.000001
v 250.000000 0.000000 -15.000001
v 250.000000 200.056534 -15.000001
v 250.000000 200.056534 15.000001
v -250.000000 200.056534 -15.000001
v 250.000000 300.000000 -15.000001
v 250.000000 300.000000 15.000001
v 99.927216 300.000000 15.000001
v 99.927216 300.000000 -15.000001
v 99.927208 200.056549 15.000001
v 99.927216 0.000000 15.000001
v 99.927216 0.000000 -12.000301
v 102.926926 0.000000 -15.000001
v -103.120895 203.056259 -15.000002
v -100.121193 200.056549 -12.000301
v 102.926926 203.056259 -15.000001
v 99.927216 200.056549 -12.000301

# UV coordinates
vt 0.001992 0.700923
vt 0.001992 0.491408
vt 0.281651 0.491408
vt 0.281651 0.700923
vt 0.429007 0.700923
vt 0.429007 0.491408
vt 0.470944 0.491408
vt 0.470944 0.700923
vt 0.763782 0.914430
vt 0.763782 0.709108
vt 0.767975 0.704915
vt 0.805719 0.704915
vt 0.805719 0.914430
vt 0.904552 0.001974
vt 0.946489 0.001974
vt 0.946489 0.281633
vt 0.904552 0.281633
vt 0.953276 0.001974
vt 0.995213 0.001974
vt 0.995213 0.281633
vt 0.953276 0.281633
vt 0.421362 0.491408
vt 0.421362 0.700923
vt 0.995213 0.421344
vt 0.953276 0.421344
vt 0.946489 0.421344
vt 0.904552 0.421344
vt 0.429007 0.211760
vt 0.470944 0.211760
vt 0.281651 0.211760
vt 0.421362 0.211760
vt 0.429007 0.001974
vt 0.470944 0.001974
vt 0.853791 0.914702
vt 0.816047 0.914702
vt 0.811854 0.910508
vt 0.811854 0.704915
vt 0.853791 0.704915
vt 0.001992 0.211760
vt 0.001992 0.001974
vt 0.281651 0.001974
vt 0.421362 0.001974
vt 0.949936 0.709187
vt 0.945742 0.704994
vt 0.945742 0.425335
vt 0.949936 0.425335
vt 0.960264 0.709176
vt 0.956071 0.713369
vt 0.956071 0.425335
vt 0.960264 0.429528
vt 0.864120 0.984574
vt 0.859927 0.988767
vt 0.859927 0.704915
vt 0.864120 0.704915
vt 0.617442 0.700923
vt 0.613249 0.495601
vt 0.897101 0.495601
vt 0.897101 0.700923
vt 0.477731 0.700923
vt 0.477731 0.491408
vt 0.477731 0.211760
vt 0.613249 0.207567
vt 0.477731 0.001974
vt 0.617442 0.001974
vt 0.897101 0.207567
vt 0.897101 0.001974
vt 0.901863 0.704915
vt 0.901863 0.984574
vt 0.998008 0.429528
vt 0.998008 0.709176
vt 0.907999 0.704994
vt 0.907999 0.425335

# vertex normals
vn 0.000000 0.000000 1.000000
vn 0.000000 0.000000 1.000000
vn 0.000000 -0.000000 1.000000
vn 0.000000 0.000000 1.000000
vn 0.000000 1.000000 0.000000
vn 0.000000 -1.000000 0.000000
vn 1.000000 0.000000 0.000000
vn -1.000000 0.000000 0.000000
vn 0.000000 -0.000000 1.000000
vn 0.000000 -0.000000 1.000000
vn 0.000000 -0.000000 1.000000
vn 0.000000 -0.000000 1.000000
vn 0.000000 0.000000 1.000000
vn 0.000000 0.000000 1.000000
vn 0.707107 0.000000 -0.707107
vn 0.707106 0.000000 -0.707107
vn 0.000000 -0.707108 -0.707106
vn 0.000000 -0.707107 -0.707106
vn 0.000000 -0.707108 -0.707106
vn -0.707107 0.000000 -0.707107
vn -0.707106 0.000000 -0.707107
vn -0.000000 0.000000 -1.000000
vn -0.000000 0.000000 -1.000000
vn -0.000000 0.000000 -1.000000
vn -0.000000 0.000000 -1.000000
vn 0.000000 0.000000 -1.000000
vn 0.000000 0.000000 -1.000000
vn 0.000000 0.000000 -1.000000
vn 0.000000 0.000000 -1.000000
vn 0.000000 0.000000 -1.000000
vn 0.000000 0.000000 -1.000000
vn -1.000000 0.000000 -0.000000
vn 0.000000 -1.000000 -0.000000
vn 0.000000 -1.000000 -0.000000
vn 1.000000 0.000000 0.000000

# Mesh
g Shutter_frame
usemtl shutter_frame
f 2/2/2 3/3/3 4/4/4 1/1/1
f 6/6/5 7/7/5 8/8/5 5/5/5
f 11/11/6 2/12/6 1/13/6 9/9/6 10/10/6
f 14/16/7 15/17/7 12/14/7 13/15/7
f 4/20/8 16/21/8 9/18/8 1/19/8
f 3/3/3 6/22/9 5/23/10 4/4/4
f 5/24/8 8/25/8 16/21/8 4/20/8
f 17/26/7 18/27/7 15/17/7 14/16/7
f 19/28/5 20/29/5 7/7/5 6/6/5
f 21/30/11 19/31/12 6/22/9 3/3/3
f 18/32/5 17/33/5 20/29/5 19/28/5
f 13/37/6 12/38/6 22/34/6 23/35/6 24/36/6
f 12/40/13 15/41/14 21/30/11 22/39/13
f 15/41/14 18/42/4 19/31/12 21/30/11
f 26/44/15 11/45/16 10/46/16 25/43/15
f 27/49/18 28/50/19 26/47/17 25/48/17
f 27/52/21 24/53/21 23/54/21 28/51/20
f 25/56/23 10/57/24 9/58/24 16/55/22
f 7/60/26 25/56/23 16/55/22 8/59/25
f 20/61/27 27/62/28 25/56/23 7/60/26
f 17/63/29 14/64/30 27/62/28 20/61/27
f 14/64/30 13/66/31 24/65/31 27/62/28
f 28/51/32 23/54/32 22/67/32 21/68/32
f 28/50/34 21/69/33 3/70/34 26/47/33
f 11/45/35 26/44/35 3/71/35 2/72/35
