# File produced by Open Asset Import Library (http://www.assimp.sf.net)
# (assimp v3.1.137539927)

mtllib flap_right.mtl

# vertex positions
v -1.804691 9.131937 1.574068
v -1.804693 7.855173 2.009637
v 0.213634 7.532228 2.080496
v 0.143629 8.828600 1.509103
v 2.680296 8.496904 0.781811
v 2.264540 8.721666 0.784539
v -1.804689 11.018068 0.777232
v 0.202280 9.833589 0.799753
v 0.912436 5.206842 0.787597
v 2.210009 7.582422 0.804297
v 0.316603 6.267435 1.966982
v -1.804693 4.160966 1.227344
v -1.804686 0.150316 0.805167

# UV coordinates
vt 0.566282 0.869568
vt 0.573492 0.886330
vt 0.506393 0.909038
vt 0.503639 0.890795
vt 0.432688 0.914662
vt 0.443481 0.907630
vt 0.556376 0.844417
vt 0.498339 0.877689
vt 0.495025 0.946133
vt 0.449414 0.923571
vt 0.508093 0.927102
vt 0.583682 0.926772
vt 0.577240 0.987222

# vertex normals
vn 0.128996 0.417287 0.899573
vn -0.050500 0.032300 0.998202
vn 0.123505 0.003800 0.992337
vn 0.184102 0.430305 0.883710
vn 0.440601 0.146900 0.885602
vn 0.300316 0.431324 0.850747
vn 0.179295 0.451687 0.873975
vn 0.203702 0.470605 0.858508
vn 0.314206 -0.282605 0.906316
vn 0.562006 -0.168402 0.809809
vn 0.170793 -0.232190 0.957558
vn 0.187394 -0.251392 0.949571
vn 0.252406 -0.264307 0.930824

# Mesh
g kite_flap_right
usemtl flap_right
f 3/3/3 4/4/4 1/1/1 2/2/2
f 5/5/5 6/6/6 4/4/4 3/3/3
f 4/4/4 8/8/8 7/7/7 1/1/1
f 6/6/6 8/8/8 4/4/4
f 9/9/9 10/10/10 11/11/11
f 9/9/9 11/11/11 12/12/12 13/13/13
f 10/10/10 5/5/5 3/3/3 11/11/11
f 11/11/11 3/3/3 2/2/2 12/12/12
