# File produced by Open Asset Import Library (http://www.assimp.sf.net)
# (assimp v3.1.137539927)

mtllib cardboard_halfclosed.mtl

# vertex positions
v -31.875000 -0.749996 31.875000
v -31.875000 -0.749996 -31.875000
v 31.875000 -0.749996 -31.875000
v 31.875000 -0.749996 31.875000
v 32.625004 55.809601 -32.625004
v 32.625004 0.000004 -32.625004
v -32.625004 0.000004 -32.625004
v -32.625004 55.716682 -32.625004
v 32.625004 0.000004 32.625004
v 32.625004 55.815674 32.625004
v -32.625004 55.716682 32.625004
v -32.625004 0.000004 32.625004
v -1.972978 70.810287 31.875000
v -1.972978 70.810287 -31.875000
v 2.132842 64.440193 -31.876791
v 2.072231 64.974655 31.870955
v -31.875000 0.000004 31.875000
v 31.875000 0.000004 31.875000
v 31.875000 0.000004 -31.875000
v -31.875000 0.000004 -31.875000
v 31.875000 55.250000 -31.875000
v -31.875000 55.250000 -31.875000
v -31.875000 55.250000 31.875000
v 31.875000 55.250000 31.875000
v -1.641655 70.137436 -31.875000
v -1.641655 70.137436 31.875000
v 1.862397 64.254608 31.873871
v 1.923008 63.720154 -31.873871

# UV coordinates
vt 0.275413 0.258170
vt 0.275413 0.003928
vt 0.529655 0.003928
vt 0.529655 0.258170
vt 0.797737 0.267289
vt 0.797701 0.489863
vt 0.537477 0.489821
vt 0.537513 0.267616
vt 0.752843 0.531264
vt 0.752880 0.753863
vt 0.492656 0.753511
vt 0.492619 0.531307
vt 0.003938 0.226169
vt 0.003906 0.003965
vt 0.264130 0.003928
vt 0.264162 0.226132
vt 0.264168 0.531299
vt 0.264130 0.753874
vt 0.003906 0.753854
vt 0.003944 0.531255
vt 0.261190 0.362393
vt 0.006949 0.362429
vt 0.936190 0.003927
vt 0.936102 0.264151
vt 0.809720 0.261121
vt 0.808984 0.006880
vt 0.273052 0.267614
vt 0.527294 0.267614
vt 0.527294 0.521856
vt 0.273052 0.521856
vt 0.794080 0.224317
vt 0.539838 0.224271
vt 0.539877 0.003928
vt 0.794119 0.003974
vt 0.529655 0.983362
vt 0.275413 0.983316
vt 0.275453 0.762973
vt 0.529695 0.763019
vt 0.258148 0.983687
vt 0.003906 0.983642
vt 0.003946 0.763299
vt 0.258188 0.763344
vt 0.539877 0.763270
vt 0.794119 0.763316
vt 0.794080 0.983659
vt 0.539838 0.983613
vt 0.262870 0.371838
vt 0.262891 0.506238
vt 0.008649 0.506277
vt 0.008628 0.371878
vt 0.983528 0.527814
vt 0.858563 0.527888
vt 0.859249 0.273646
vt 0.983386 0.273572
vt 0.826141 0.512481
vt 0.826147 0.766723
vt 0.823156 0.766723
vt 0.823149 0.512481
vt 0.837321 0.766727
vt 0.837315 0.512485
vt 0.840306 0.512485
vt 0.840312 0.766727
vt 0.991406 0.003928
vt 0.991412 0.258170
vt 0.988421 0.258170
vt 0.988415 0.003928
vt 0.811975 0.512473
vt 0.811981 0.766715
vt 0.808990 0.766715
vt 0.808984 0.512473
vt 0.794710 0.996094
vt 0.540468 0.996094
vt 0.537477 0.993103
vt 0.797701 0.993103
vt 0.540466 0.512584
vt 0.794706 0.512462
vt 0.797700 0.516192
vt 0.537477 0.516108
vt 0.844288 0.503041
vt 0.590046 0.502893
vt 0.587056 0.499368
vt 0.847281 0.499297
vt 0.268961 0.992805
vt 0.523203 0.992806
vt 0.526194 0.995797
vt 0.265970 0.995797
vt 0.963075 0.006900
vt 0.963075 0.261142
vt 0.960083 0.264133
vt 0.960083 0.003909
vt 0.945918 0.261139
vt 0.945918 0.006897
vt 0.948909 0.003906
vt 0.948909 0.264130
vt 0.541760 0.233717
vt 0.676155 0.234785
vt 0.676131 0.237776
vt 0.539838 0.237919
vt 0.262892 0.509229
vt 0.008650 0.509268
vt 0.811981 0.270887
vt 0.813185 0.405281
vt 0.808984 0.407207
vt 0.808990 0.270914
vt 0.796182 0.251212
vt 0.672050 0.250236
vt 0.672097 0.247245
vt 0.798515 0.247037
vt 0.974259 0.258181
vt 0.974249 0.003939
vt 0.977240 0.003928
vt 0.977250 0.258169
vt 0.824365 0.398459
vt 0.823149 0.273500
vt 0.827363 0.271213
vt 0.827356 0.398454

# vertex normals
vn 0.000000 -1.000000 0.000000
vn 0.000000 0.000000 -1.000000
vn -0.000000 0.000000 1.000000
vn -0.000000 0.000000 1.000000
vn -1.000000 0.000000 0.000000
vn 1.000000 0.000000 0.000000
vn -0.441764 0.897132 0.000000
vn 0.279778 0.960057 -0.003891
vn 0.279778 0.960057 -0.003891
vn 0.000000 1.000000 0.000000
vn 0.000000 0.000000 1.000000
vn 0.000000 0.000000 -1.000000
vn 0.441763 -0.897132 0.000000
vn -0.279778 -0.960057 0.003891
vn -0.279778 -0.960057 0.003891
vn -0.279778 -0.960057 0.003891
vn -0.279778 -0.960057 0.003891
vn -0.000594 0.825320 0.564665
vn -0.000594 0.825320 0.564665
vn -0.000632 0.823761 -0.566937
vn -0.000632 0.823761 -0.566937
vn -0.000632 0.823761 -0.566937
vn 0.205344 -0.394608 0.895611
vn 0.205344 -0.394608 0.895611
vn 0.205344 -0.394608 0.895611
vn 0.205344 -0.394608 0.895611
vn 0.897133 0.441761 0.000000
vn 0.205344 -0.394607 -0.895611
vn 0.205344 -0.394607 -0.895611
vn 0.205344 -0.394607 -0.895611
vn 0.205344 -0.394607 -0.895611
vn -0.131974 -0.427282 -0.894434
vn -0.131974 -0.427282 -0.894434
vn -0.131974 -0.427282 -0.894434
vn -0.960062 0.279767 -0.003258
vn -0.960062 0.279767 -0.003258
vn -0.960062 0.279767 -0.003258
vn -0.136930 -0.419268 0.897477
vn -0.136930 -0.419268 0.897477
vn -0.136930 -0.419268 0.897477

# Mesh
g cardboardBoxClosed
usemtl standardSurface7
f 4/4/1 1/1/1 2/2/1
f 2/2/1 3/3/1 4/4/1
f 8/8/2 5/5/2 6/6/2
f 6/6/2 7/7/2 8/8/2
f 12/12/3 9/9/3 10/10/4
f 10/10/4 11/11/3 12/12/3
f 11/16/5 8/13/5 7/14/5
f 7/14/5 12/15/5 11/16/5
f 9/20/6 6/17/6 5/18/6
f 5/18/6 10/19/6 9/20/6
f 14/22/7 8/13/7 11/16/7
f 11/16/7 13/21/7 14/22/7
f 16/26/9 10/23/8 5/24/9
f 5/24/9 15/25/9 16/26/9
f 20/30/10 17/27/10 18/28/10
f 18/28/10 19/29/10 20/30/10
f 19/34/11 21/31/11 22/32/11
f 22/32/11 20/33/11 19/34/11
f 24/38/12 18/35/12 17/36/12
f 17/36/12 23/37/12 24/38/12
f 20/42/6 22/39/6 23/40/6
f 23/40/6 17/41/6 20/42/6
f 21/46/5 19/43/5 18/44/5
f 18/44/5 24/45/5 21/46/5
f 23/50/13 22/47/13 25/48/13
f 25/48/13 26/49/13 23/50/13
f 21/54/17 24/51/14 27/52/15
f 27/52/15 28/53/16 21/54/17
f 1/58/5 17/55/5 20/56/5
f 20/56/5 2/57/5 1/58/5
f 2/62/12 20/59/12 19/60/12
f 19/60/12 3/61/12 2/62/12
f 3/66/6 19/63/6 18/64/6
f 18/64/6 4/65/6 3/66/6
f 4/70/11 18/67/11 17/68/11
f 17/68/11 1/69/11 4/70/11
f 6/74/1 19/71/1 20/72/1
f 20/72/1 7/73/1 6/74/1
f 8/78/19 22/75/18 21/76/19
f 21/76/19 5/77/18 8/78/19
f 10/82/22 24/79/20 23/80/21
f 23/80/21 11/81/20 10/82/22
f 12/86/1 17/83/1 18/84/1
f 18/84/1 9/85/1 12/86/1
f 7/90/1 20/87/1 17/88/1
f 17/88/1 12/89/1 7/90/1
f 9/94/1 18/91/1 19/92/1
f 19/92/1 6/93/1 9/94/1
f 11/98/26 23/95/23 26/96/24
f 26/96/24 13/97/25 11/98/26
f 13/100/27 26/49/27 25/48/27
f 25/48/27 14/99/27 13/100/27
f 14/104/31 25/101/28 22/102/29
f 22/102/29 8/103/30 14/104/31
f 5/108/34 21/105/32 28/106/33
f 28/106/33 15/107/33 5/108/34
f 15/112/35 28/109/35 27/110/36
f 27/110/36 16/111/37 15/112/35
f 16/116/40 27/113/38 24/114/39
f 24/114/39 10/115/39 16/116/40
